<?xml version="1.0" standalone="no"?>
<!DOCTYPE svg PUBLIC "-//W3C//DTD SVG 1.1//EN" "http://www.w3.org/Graphics/SVG/1.1/DTD/svg11.dtd" >
<svg xmlns="http://www.w3.org/2000/svg" xmlns:xlink="http://www.w3.org/1999/xlink" version="1.1">
<metadata></metadata>
<defs>
<font id="heinemann_specialbold" horiz-adv-x="640" >
<font-face units-per-em="1000" ascent="720" descent="-280" />
<missing-glyph horiz-adv-x="275" />
<glyph unicode="fi" horiz-adv-x="670" d="M9 444v39q0 32 30 32h82v77q0 194 182 194q42 0 66 -8q20 -7 19 -31l-3 -50q-1 -22 -18 -22q-7 0 -20 2t-26 2q-66 0 -66 -100v-64h101q30 0 30 -32v-39q0 -32 -30 -32h-101v-380q0 -32 -29 -32h-76q-31 0 -31 32v380h-80q-30 0 -30 32zM464 32v451q0 32 30 32h76 q30 0 30 -32v-451q0 -32 -30 -32h-76q-30 0 -30 32zM454 693q0 32 22.5 55t54.5 23t55 -23t23 -55t-23 -55t-55 -23t-54.5 23t-22.5 55z" />
<glyph unicode="fl" horiz-adv-x="723" d="M9 444v39q0 32 30 32h82v77q0 194 182 194q42 0 66 -8q20 -7 19 -31l-3 -50q-1 -22 -18 -22q-7 0 -20 2t-26 2q-66 0 -66 -100v-64h101q30 0 30 -32v-39q0 -32 -30 -32h-101v-380q0 -32 -29 -32h-76q-31 0 -31 32v380h-80q-30 0 -30 32zM472 220v521q0 33 29 33h76 q31 0 31 -33v-537q0 -49 12.5 -74.5t44.5 -25.5q10 0 21.5 2t16.5 2q21 0 21 -26v-52q0 -20 -21 -27q-29 -10 -71 -10q-41 0 -70.5 12.5t-46.5 31.5t-27 50.5t-13 61.5t-3 71z" />
<glyph unicode=" "  horiz-adv-x="275" />
<glyph unicode="&#x09;" horiz-adv-x="275" />
<glyph unicode="&#xa0;" horiz-adv-x="275" />
<glyph unicode="!" horiz-adv-x="361" d="M100 68q0 33 23.5 56.5t56.5 23.5t56.5 -23.5t23.5 -56.5q0 -34 -23.5 -57t-56.5 -23t-56.5 23t-23.5 57zM206 222h-51q-30 0 -31 32l-14 374q-3 57 -3 61q0 30 31 30h85q30 0 30 -30q0 -23 -2 -61l-15 -374q0 -32 -30 -32z" />
<glyph unicode="&#x22;" horiz-adv-x="492" d="M174 465h-51q-30 0 -31 31l-6 132q-2 38 -2 61q0 30 30 30h68q31 0 31 -30q0 -4 -3 -61l-6 -132q0 -31 -30 -31zM371 465h-51q-30 0 -30 31l-6 132q-3 57 -3 61q0 30 31 30h68q30 0 30 -30q0 -23 -2 -61l-6 -132q-1 -31 -31 -31z" />
<glyph unicode="#" horiz-adv-x="766" d="M640 201h-116l-26 -179q-3 -22 -30 -22h-49q-24 0 -24 22q0 10 2 24l23 155h-122l-26 -179q-3 -22 -30 -22h-48q-25 0 -25 22q0 3 3 24l22 155h-97q-32 0 -32 36v29q0 36 32 36h112l16 114h-98q-32 0 -32 36v28q0 36 32 36h113l27 181q3 22 30 22h49q24 0 24 -22 q0 -10 -2 -24l-24 -157h122l27 181q3 22 30 22h48q25 0 25 -22q0 -3 -3 -24l-23 -157h100q31 0 31 -36v-28q0 -36 -31 -36h-114l-17 -114h101q31 0 31 -36v-29q0 -36 -31 -36zM330 416l-17 -114h121l17 114h-121z" />
<glyph unicode="$" horiz-adv-x="572" d="M228 -67v56q-78 5 -139 33q-26 13 -23 42l9 63q3 24 23 24q8 0 54 -19q55 -22 102 -22q43 0 75 22.5t32 66.5q0 22 -9 39t-31.5 32.5t-38.5 24.5t-52 26q-81 40 -124.5 86.5t-43.5 122.5q0 79 45 128t121 65v67q0 33 31 33h53q30 0 30 -33v-62q69 -7 114 -28 q17 -8 21 -16t1 -25l-13 -60q-5 -22 -23 -22q-8 0 -59 19q-41 13 -81 13q-41 0 -67 -19.5t-26 -54.5q0 -14 6.5 -26.5t14 -21t24.5 -20t26.5 -16.5t32.5 -17t31 -16q87 -45 127 -90.5t40 -125.5q0 -83 -47.5 -133.5t-121.5 -69.5v-66q0 -32 -30 -32h-53q-31 0 -31 32z" />
<glyph unicode="%" horiz-adv-x="923" d="M647 198q0 -127 59 -127t59 127q0 126 -59 126t-59 -126zM545 197q0 210 161 210t161 -210t-161 -210t-161 210zM212 13l414 706q12 22 39 22h34q20 0 20 -16q0 -8 -7 -20l-414 -707q-12 -21 -39 -21h-34q-20 0 -20 15q0 8 7 21zM158 521q0 -126 59 -126t59 126 q0 127 -59 127t-59 -127zM56 520q0 211 161 211t161 -211q0 -209 -161 -209t-161 209z" />
<glyph unicode="&#x26;" horiz-adv-x="738" d="M656 347q0 -115 -63 -210l91 -102q11 -12 7.5 -23.5t-20.5 -11.5h-97q-28 0 -47 22l-23 27q-85 -61 -198 -61q-115 0 -181 54.5t-66 149.5q0 74 39.5 121t108.5 83q-71 88 -71 164q0 80 55.5 125.5t144.5 45.5q88 0 140.5 -41t52.5 -122q0 -36 -12 -65t-36.5 -52 t-46.5 -38t-57 -34l131 -148q26 57 26 124q0 33 35 33h55q32 0 32 -41zM328 96q57 0 103 38l-158 184q-70 -51 -70 -116q0 -51 35.5 -78.5t89.5 -27.5zM262 555q0 -41 54 -107q47 24 72 49t25 60t-20.5 55t-57.5 20q-33 0 -53 -21t-20 -56z" />
<glyph unicode="'" horiz-adv-x="295" d="M174 465h-51q-30 0 -31 31l-6 132q-2 38 -2 61q0 30 30 30h68q31 0 31 -30q0 -4 -3 -61l-6 -132q0 -31 -30 -31z" />
<glyph unicode="(" horiz-adv-x="385" d="M227 309q0 -213 120 -420q7 -11 7 -22q0 -19 -23 -19h-45q-30 0 -53 32q-141 194 -141 429q0 233 141 429q24 32 53 32h45q23 0 23 -19q0 -12 -7 -23q-120 -207 -120 -419z" />
<glyph unicode=")" horiz-adv-x="385" d="M161 309q0 212 -120 419q-7 11 -7 23q0 19 23 19h45q29 0 53 -32q141 -196 141 -429q0 -235 -141 -429q-23 -32 -53 -32h-45q-23 0 -23 19q0 11 7 22q120 207 120 420z" />
<glyph unicode="*" horiz-adv-x="492" d="M301 355l-55 104l-56 -104q-10 -16 -25 -16q-10 0 -19 6l-34 25q-13 9 -13 22q0 10 9 21l81 87l-117 23q-26 5 -26 25q0 3 2 13l13 39q7 21 24 21q9 0 16 -4l109 -48l-13 99q-2 16 -2 25q0 26 28 26h45q28 0 28 -26q0 -9 -2 -25l-13 -99l109 48q8 4 16 4q17 0 24 -21 l13 -39q3 -8 3 -13q0 -20 -27 -25l-117 -23l82 -87q9 -11 9 -21q0 -14 -14 -22l-34 -25q-9 -6 -19 -6q-15 0 -25 16z" />
<glyph unicode="+" horiz-adv-x="599" d="M358 30q0 -30 -33 -30h-52q-32 0 -32 30v164h-164q-30 0 -30 32v52q0 33 30 33h164v164q0 30 32 30h52q33 0 33 -30v-164h164q30 0 30 -33v-52q0 -32 -30 -32h-164v-164z" />
<glyph unicode="," horiz-adv-x="295" d="M68 69q0 33 22.5 56t56.5 23q32 0 57 -22.5t25 -69.5q0 -50 -32 -97t-77 -71q-12 -7 -21 -7q-12 0 -12 10q0 7 7 17q39 48 46 83q-31 3 -51.5 25t-20.5 53z" />
<glyph unicode="-" horiz-adv-x="371" d="M294 210h-217q-31 0 -31 33v52q0 32 31 32h217q29 0 29 -32v-52q0 -33 -29 -33z" />
<glyph unicode="." horiz-adv-x="294" d="M68 68q0 33 23 56.5t56 23.5q34 0 57.5 -23.5t23.5 -56.5q0 -34 -23.5 -57t-57.5 -23q-33 0 -56 23t-23 57z" />
<glyph unicode="/" horiz-adv-x="339" d="M9 30l225 677q8 24 30 24h56q21 0 21 -17q0 -7 -6 -25l-225 -677q-8 -24 -30 -24h-56q-21 0 -21 17q0 7 6 25z" />
<glyph unicode="0" horiz-adv-x="625" d="M197 359q0 -259 115 -259t115 259t-115 259t-115 -259zM55 359q0 372 257 372t257 -372q0 -371 -257 -371t-257 371z" />
<glyph unicode="1" horiz-adv-x="326" d="M122 719h82q30 0 30 -33v-654q0 -32 -30 -32h-82q-30 0 -30 32v654q0 33 30 33z" />
<glyph unicode="2" horiz-adv-x="555" d="M220 608q-49 0 -97.5 -15.5t-56.5 -15.5q-16 0 -18 21l-4 67q-1 16 3.5 23t17.5 13q31 13 83 21.5t92 8.5q113 0 181.5 -54t68.5 -156q0 -110 -104 -231q-55 -64 -177 -172h261q32 0 32 -34v-51q0 -33 -32 -33h-414q-33 0 -33 33v47q0 38 30 63q10 9 42.5 38.5t45.5 41.5 t36 33t38 37t28 30q49 55 72.5 96t23.5 85q0 51 -31.5 77.5t-87.5 26.5z" />
<glyph unicode="3" horiz-adv-x="551" d="M195 101q66 0 113.5 25t47.5 80q0 106 -145 106l-49 -1q-33 0 -33 31v47q0 32 33 32l43 -2q56 0 97.5 24t41.5 77q0 94 -125 94q-46 0 -92.5 -14.5t-54.5 -14.5q-18 0 -19 20l-6 61q-1 16 3.5 23t18.5 13q66 29 168 29q51 0 94 -10t80 -31.5t58 -60.5t21 -91 q0 -65 -38 -109t-104 -59q69 -11 110.5 -53t41.5 -116q0 -76 -44 -125.5t-107 -68.5t-143 -19q-103 0 -158 23q-14 5 -18 12.5t-3 23.5l5 63q2 21 21 21q8 0 51.5 -15t90.5 -15z" />
<glyph unicode="4" horiz-adv-x="611" d="M36 277l251 409q13 20 23 26.5t30 6.5h88q23 0 23 -16q0 -9 -10 -24l-269 -415h183v119q0 33 30 33h77q30 0 30 -33v-119h62q32 0 32 -34v-50q0 -34 -32 -34h-62v-114q0 -32 -30 -32h-77q-30 0 -30 32v114h-297q-33 0 -33 32v56q0 27 11 43z" />
<glyph unicode="5" horiz-adv-x="567" d="M104 719h358q32 0 32 -34v-51q0 -34 -32 -34h-260l-4 -148q38 8 78 8q107 0 175.5 -57t68.5 -166q0 -122 -78.5 -185.5t-208.5 -63.5q-99 0 -154 23q-14 5 -18.5 12.5t-3.5 23.5l5 63q1 21 20 21q8 0 52.5 -15.5t90.5 -14.5q68 0 110 32t42 94q0 64 -43.5 96.5 t-121.5 32.5q-35 0 -70.5 -7t-45.5 -7q-29 0 -29 34l4 309q0 34 33 34z" />
<glyph unicode="6" horiz-adv-x="602" d="M369 616q-91 0 -135.5 -63.5t-46.5 -168.5q61 70 157 70q97 0 154.5 -61.5t57.5 -165.5q0 -103 -67 -171t-181 -68q-259 0 -259 378q0 102 32 182.5t103 131.5t172 51q80 0 137 -22q24 -9 21 -36l-5 -61q-1 -20 -19 -20q-11 0 -47.5 12t-73.5 12zM417 223q0 54 -28 89.5 t-76 35.5q-51 0 -81 -36t-30 -91t29 -92.5t79 -37.5t78.5 38.5t28.5 93.5z" />
<glyph unicode="7" horiz-adv-x="517" d="M44 719h409q32 0 32 -34v-38q0 -26 -9 -45l-237 -570q-8 -20 -19.5 -26t-33.5 -6h-81q-24 0 -24 19q0 9 4 17l250 564h-291q-33 0 -33 34v51q0 34 33 34z" />
<glyph unicode="8" horiz-adv-x="611" d="M403 540q0 41 -29 63.5t-73 22.5q-40 0 -71 -23.5t-31 -63.5q0 -66 117 -118q43 28 65 55.5t22 63.5zM422 194q1 49 -31 78t-101 55q-49 -26 -74.5 -55t-25.5 -71q0 -49 33.5 -77.5t83.5 -28.5q49 0 81.5 26t33.5 73zM566 199q0 -105 -74.5 -158t-187.5 -53 q-114 0 -187 50t-73 153q0 66 39 113t108 69v2q-58 20 -93 66t-35 105q0 94 70.5 139.5t175.5 45.5q59 0 109.5 -16.5t87 -58t36.5 -101.5q0 -118 -121 -172v-2q145 -51 145 -182z" />
<glyph unicode="9" horiz-adv-x="632" d="M548 686v-654q0 -32 -30 -32h-82q-30 0 -30 32v293h-4q-50 -62 -146 -62q-97 0 -156.5 64t-59.5 165t56.5 170t160.5 69q95 0 149 -64v19q0 33 30 33h82q30 0 30 -33zM406 492q0 59 -29 96.5t-81 37.5q-50 0 -79.5 -38t-29.5 -92q0 -56 27.5 -91t78.5 -35q53 0 83 34.5 t30 87.5z" />
<glyph unicode=":" horiz-adv-x="295" d="M68 447q0 33 23 56.5t56 23.5q34 0 57.5 -23.5t23.5 -56.5q0 -34 -23.5 -57t-57.5 -23q-33 0 -56 23t-23 57zM68 68q0 33 23 56.5t56 23.5q34 0 57.5 -23.5t23.5 -56.5q0 -34 -23.5 -57t-57.5 -23q-33 0 -56 23t-23 57z" />
<glyph unicode=";" horiz-adv-x="295" d="M68 447q0 33 23 56.5t56 23.5q34 0 57.5 -23.5t23.5 -56.5q0 -34 -23.5 -57t-57.5 -23q-33 0 -56 23t-23 57zM68 69q0 33 22.5 56t56.5 23q32 0 57 -22.5t25 -69.5q0 -50 -32 -97t-77 -71q-12 -7 -21 -7q-12 0 -12 10q0 7 7 17q39 48 46 83q-31 3 -51.5 25t-20.5 53z" />
<glyph unicode="&#x3c;" horiz-adv-x="647" d="M539 400l-331 -143l331 -142q27 -11 33.5 -20t6.5 -37v-31q0 -27 -16 -27q-12 0 -34 9l-421 185q-27 12 -34 20.5t-7 31.5v26q0 21 7 29t34 20l421 185q22 9 34 9q16 0 16 -27v-31q0 -27 -6.5 -36t-33.5 -21z" />
<glyph unicode="=" horiz-adv-x="617" d="M536 317h-456q-30 0 -30 33v45q0 32 30 32h456q30 0 30 -32v-45q0 -33 -30 -33zM536 78h-456q-30 0 -30 33v45q0 32 30 32h456q30 0 30 -32v-45q0 -33 -30 -33z" />
<glyph unicode="&#x3e;" horiz-adv-x="647" d="M539 194l-422 -185q-22 -9 -33 -9q-17 0 -17 27v31q0 28 6.5 37t34.5 20l331 142l-331 143q-28 11 -34.5 20t-6.5 37v31q0 27 17 27q11 0 33 -9l422 -185q26 -12 33 -20t7 -29v-26q0 -24 -6.5 -32.5t-33.5 -19.5z" />
<glyph unicode="?" horiz-adv-x="524" d="M229 615q-44 0 -89.5 -16.5t-55.5 -16.5q-16 0 -18 21l-4 62q-1 16 3.5 23t18.5 13q69 30 172 30q92 0 150 -44.5t58 -127.5q0 -64 -35.5 -114t-97.5 -102q-22 -18 -22 -47v-43q0 -30 -28 -30h-66q-27 0 -27 31v65q0 34 23 58q11 12 38 37.5t39.5 38.5t24 35.5t11.5 45.5 q0 39 -25.5 60t-69.5 21zM166 68q0 33 23.5 56.5t56.5 23.5t56.5 -23.5t23.5 -56.5q0 -34 -23.5 -57t-56.5 -23t-56.5 23t-23.5 57z" />
<glyph unicode="@" horiz-adv-x="846" d="M546 162q-58 0 -66 52h-3q-36 -52 -100 -52q-57 0 -96 42t-39 108q0 85 55 157.5t141 72.5q64 0 96 -57h4l4 15q6 29 28 29h22q32 0 22 -37l-52 -204q-13 -51 21 -51q57 0 94.5 54t37.5 117q0 114 -76.5 181.5t-196.5 67.5q-128 0 -214 -85.5t-86 -215.5 q0 -136 81.5 -215t227.5 -79q131 0 220 69q1 1 4 3.5t4 3.5t4 3t5 2.5t4.5 2t4.5 1t4.5 -1t4.5 -2t4 -4.5l13 -17q13 -18 -1 -32q-49 -51 -122 -76.5t-154 -25.5q-173 0 -278.5 100.5t-105.5 269.5q0 159 105.5 265.5t274.5 106.5q140 0 240.5 -84t100.5 -222 q0 -110 -68.5 -186t-168.5 -76zM499 386q0 29 -18 49.5t-43 20.5q-47 0 -78 -42.5t-31 -91.5q0 -34 17.5 -54.5t46.5 -20.5q47 0 76 44.5t30 94.5z" />
<glyph unicode="A" horiz-adv-x="739" d="M715 32q4 -10 4 -14q0 -18 -25 -18h-91q-33 0 -43 31l-48 135h-297l-48 -135q-10 -31 -43 -31h-80q-24 0 -24 18q0 5 4 15l250 653q13 33 42 33h107q27 0 40 -33zM474 281l-107 300h-4l-108 -300h219z" />
<glyph unicode="B" horiz-adv-x="650" d="M112 719h204q251 0 251 -181q0 -127 -131 -169q71 -13 110 -58t39 -114q0 -197 -270 -197h-203q-30 0 -30 32v654q0 33 30 33zM426 520q0 89 -126 89h-76v-186h52q72 0 111 21t39 76zM440 209q0 108 -157 108h-59v-207h63q153 0 153 99z" />
<glyph unicode="C" d="M608 111l3 -60q1 -20 -2.5 -26t-21.5 -13q-63 -24 -159 -24q-164 0 -266 92q-115 101 -115 279q0 172 108 275q103 97 273 97q90 0 158 -26q14 -5 18.5 -12t3.5 -24l-4 -68q-2 -21 -18 -21q-4 0 -56 18q-45 15 -96 15q-110 0 -176 -72q-65 -69 -65 -184q0 -116 72 -185 q69 -67 174 -67q48 0 83 10q11 3 24.5 7.5t23 7.5t16.5 3q21 0 22 -22z" />
<glyph unicode="D" horiz-adv-x="745" d="M112 719h194q181 0 286 -88.5t105 -266.5t-101.5 -271t-290.5 -93h-193q-30 0 -30 32v654q0 33 30 33zM550 360q0 116 -68 182q-62 59 -176 59h-82v-485h87q239 0 239 244z" />
<glyph unicode="E" horiz-adv-x="573" d="M82 33v652q0 34 33 34h371q32 0 32 -34v-51q0 -34 -32 -34h-262v-169h236q32 0 32 -34v-50q0 -34 -32 -34h-236v-195h262q32 0 32 -34v-51q0 -33 -32 -33h-371q-33 0 -33 33z" />
<glyph unicode="F" horiz-adv-x="534" d="M82 33v652q0 34 33 34h349q32 0 32 -34v-51q0 -34 -32 -34h-240v-169h218q32 0 32 -34v-50q0 -34 -32 -34h-218v-280q0 -33 -32 -33h-77q-33 0 -33 33z" />
<glyph unicode="G" horiz-adv-x="743" d="M527 116v170h-116q-33 0 -33 33v54q0 34 33 34h223q32 0 32 -34v-318q0 -32 -30 -42q-78 -25 -208 -25q-175 0 -278 101t-103 270q0 168 106 269q107 103 284 103q109 0 190 -25q18 -6 22 -12.5t3 -26.5l-7 -65q-1 -23 -21 -23q-9 0 -63 18q-51 16 -119 16 q-115 0 -184 -74q-65 -73 -65 -182q0 -108 65 -179q68 -73 174 -73q56 0 95 11z" />
<glyph unicode="H" horiz-adv-x="738" d="M82 33v652q0 34 33 34h77q32 0 32 -34v-252h290v252q0 34 34 34h76q32 0 32 -34v-652q0 -33 -32 -33h-76q-34 0 -34 33v280h-290v-280q0 -33 -32 -33h-77q-33 0 -33 33z" />
<glyph unicode="I" horiz-adv-x="390" d="M63 114h61v491h-61q-31 0 -31 32v49q0 33 31 33h264q30 0 30 -33v-49q0 -32 -30 -32h-61v-491h61q30 0 30 -33v-49q0 -32 -30 -32h-264q-31 0 -31 32v49q0 33 31 33z" />
<glyph unicode="J" horiz-adv-x="448" d="M67 638v47q0 34 33 34h289q32 0 32 -34v-47q0 -33 -32 -33h-58v-374q0 -120 -49.5 -181.5t-162.5 -61.5q-62 0 -85 11q-21 8 -21 32v57q0 27 22 27q4 0 21 -4t33 -4q54 0 77.5 32t23.5 109v357h-90q-33 0 -33 33z" />
<glyph unicode="K" horiz-adv-x="684" d="M82 33v652q0 34 33 34h77q32 0 32 -34v-270l235 276q13 18 23 23t33 5h104q21 0 21 -16q0 -10 -11 -24l-261 -295l285 -345q11 -15 11 -23q0 -16 -20 -16h-117q-23 0 -33 5t-23 22l-247 310v-304q0 -33 -32 -33h-77q-33 0 -33 33z" />
<glyph unicode="L" horiz-adv-x="533" d="M82 33v652q0 34 33 34h77q32 0 32 -34v-567h255q32 0 32 -34v-51q0 -33 -32 -33h-364q-33 0 -33 33z" />
<glyph unicode="M" horiz-adv-x="950" d="M395 33l-176 529v-529q0 -33 -32 -33h-72q-33 0 -33 33v652q0 34 33 34h158q32 0 42 -34l161 -491l161 491q10 34 42 34h156q33 0 33 -34v-652q0 -33 -33 -33h-72q-32 0 -32 33v529l-176 -529q-10 -33 -43 -33h-74q-33 0 -43 33z" />
<glyph unicode="N" horiz-adv-x="756" d="M478 33l-267 516v-516q0 -33 -32 -33h-64q-33 0 -33 33v652q0 34 33 34h124q31 0 47 -34l258 -505v505q0 34 33 34h64q33 0 33 -34v-651q0 -34 -33 -34h-114q-33 0 -49 33z" />
<glyph unicode="O" horiz-adv-x="783" d="M193 359q0 -109 50 -181.5t148 -72.5q99 0 148.5 72.5t49.5 181.5t-49.5 181.5t-148.5 72.5q-98 0 -148 -73t-50 -181zM47 359q0 174 90.5 273t253.5 99t253.5 -99t90.5 -273q0 -175 -90 -273t-254 -98q-163 0 -253.5 98t-90.5 273z" />
<glyph unicode="P" horiz-adv-x="609" d="M115 719h160q149 0 221.5 -53.5t72.5 -170.5q0 -110 -73.5 -168.5t-195.5 -58.5h-76v-235q0 -33 -32 -33h-77q-33 0 -33 33v652q0 34 33 34zM283 604h-59v-221h65q134 0 134 111q0 110 -140 110z" />
<glyph unicode="Q" horiz-adv-x="783" d="M547 -83l-65 80q-42 -9 -91 -9q-163 0 -253.5 98t-90.5 273q0 174 90.5 273t253.5 99t253.5 -99t90.5 -273q0 -216 -135 -312l104 -117q12 -13 12 -20q0 -16 -19 -16h-100q-19 0 -28 4.5t-22 18.5zM193 359q0 -109 50 -181.5t148 -72.5h2l-45 56q-10 11 -10 21 q0 14 18 14h83q20 0 29 -3.5t21 -17.5l23 -27q77 68 77 211q0 109 -49.5 181.5t-148.5 72.5q-98 0 -148 -73t-50 -181z" />
<glyph unicode="R" horiz-adv-x="644" d="M82 33v652q0 34 33 34h163q143 0 220 -46.5t77 -160.5q0 -124 -122 -181l153 -292q7 -14 7 -22q0 -17 -23 -17h-90q-23 0 -33.5 5.5t-18.5 22.5l-134 273h-90v-268q0 -33 -32 -33h-77q-33 0 -33 33zM282 604h-58v-189h69q133 0 133 95q0 94 -144 94z" />
<glyph unicode="S" horiz-adv-x="544" d="M234 110q43 0 75 22.5t32 66.5q0 22 -9 39t-31.5 32.5t-38.5 24.5t-52 26q-81 40 -124.5 86.5t-43.5 122.5q0 98 67 149.5t173 51.5q86 0 154 -31q17 -8 21 -16t1 -25l-13 -60q-5 -22 -23 -22q-8 0 -59 19q-41 13 -81 13q-41 0 -67 -19.5t-26 -54.5q0 -14 6.5 -26.5 t14 -21t24.5 -20t26.5 -16.5t32.5 -17t31 -16q87 -45 127 -90.5t40 -125.5q0 -56 -23 -99t-61 -67t-81.5 -36t-89.5 -12q-95 0 -167 34q-26 13 -23 42l9 63q3 24 23 24q8 0 54 -19q55 -22 102 -22z" />
<glyph unicode="T" horiz-adv-x="604" d="M55 719h494q30 0 30 -33v-59q0 -32 -30 -32h-176v-563q0 -32 -30 -32h-81q-31 0 -31 32v563h-176q-30 0 -30 32v59q0 33 30 33z" />
<glyph unicode="U" horiz-adv-x="732" d="M77 287v399q0 33 31 33h81q30 0 30 -33v-378q0 -193 146 -193q148 0 148 193v378q0 33 30 33h81q31 0 31 -33v-399q0 -147 -77.5 -223t-212.5 -76q-139 0 -213.5 77.5t-74.5 221.5z" />
<glyph unicode="V" horiz-adv-x="708" d="M256 33l-233 653q0 2 -1.5 7.5t-1.5 7.5q0 18 24 18h85q30 0 42 -32l182 -538h4l175 538q9 32 42 32h91q23 0 23 -18q0 -4 -4 -16l-231 -652q-11 -33 -41 -33h-116q-28 0 -40 33z" />
<glyph unicode="W" horiz-adv-x="1026" d="M596 687l135 -538h3l129 538q7 32 37 32h84q22 0 22 -18q0 -4 -4 -18l-169 -650q-7 -33 -36 -33h-117q-30 0 -37 33l-127 474h-4l-114 -474q-8 -33 -37 -33h-115q-28 0 -37 33l-186 650q-3 9 -3 18q0 18 21 18h84q29 0 38 -32l141 -538h4l121 538q7 32 38 32h92 q30 0 37 -32z" />
<glyph unicode="X" horiz-adv-x="700" d="M218 690l136 -211l138 209q11 17 20 24t27 7h97q23 0 23 -17q0 -8 -7 -18l-218 -308l239 -341q7 -10 7 -18q0 -17 -23 -17h-108q-18 0 -26.5 6t-19.5 22l-158 243l-158 -241q-8 -12 -12.5 -17t-13.5 -9t-21 -4h-97q-23 0 -23 17q0 6 7 17l239 339l-218 311q-7 10 -7 17 q0 18 23 18h108q18 0 26.5 -6t19.5 -23z" />
<glyph unicode="Y" horiz-adv-x="699" d="M185 691l163 -271l164 271q10 17 18 22.5t27 5.5h100q22 0 22 -18q0 -7 -7 -18l-253 -398v-252q0 -33 -32 -33h-76q-34 0 -34 33v257l-251 393q-6 12 -6 18q0 18 22 18h98q19 0 27 -5.5t18 -22.5z" />
<glyph unicode="Z" horiz-adv-x="581" d="M41 629v56q0 34 33 34h430q32 0 32 -34v-55q0 -28 -21 -58l-319 -449h315q33 0 33 -33v-56q0 -34 -33 -34h-448q-32 0 -32 34v54q0 30 20 58l319 449h-296q-33 0 -33 34z" />
<glyph unicode="[" horiz-adv-x="368" d="M328 -69v-49q0 -33 -32 -33h-193q-33 0 -33 33v854q0 34 33 34h193q32 0 32 -34v-49q0 -33 -32 -33h-87v-689h87q32 0 32 -34z" />
<glyph unicode="\" horiz-adv-x="339" d="M108 707l225 -677q6 -18 6 -25q0 -17 -21 -17h-56q-22 0 -30 24l-225 677q-6 18 -6 25q0 17 21 17h56q22 0 30 -24z" />
<glyph unicode="]" horiz-adv-x="368" d="M40 -118v49q0 34 32 34h87v689h-87q-32 0 -32 33v49q0 34 32 34h192q34 0 34 -34v-854q0 -33 -34 -33h-192q-32 0 -32 33z" />
<glyph unicode="^" horiz-adv-x="616" d="M380 688l163 -320q13 -24 13 -33q0 -21 -23 -21h-61q-29 0 -44 31l-120 242l-120 -242q-15 -31 -44 -31h-61q-23 0 -23 21q0 9 13 33l163 320q15 31 44 31h56q29 0 44 -31z" />
<glyph unicode="_" horiz-adv-x="413" d="M413 -201h-413q-31 0 -31 33v11q0 32 31 32h413q30 0 30 -32v-11q0 -33 -30 -33z" />
<glyph unicode="`" horiz-adv-x="304" d="M169 724l67 -106q5 -8 5 -17q0 -16 -24 -16h-38q-18 0 -28.5 5t-23.5 20l-94 103q-12 12 -12 24q0 18 21 18h73q34 0 54 -31z" />
<glyph unicode="a" horiz-adv-x="636" d="M264 527q103 0 162 -65h4v21q0 32 31 32h76q29 0 29 -32v-451q0 -32 -29 -32h-71q-31 0 -31 32v33h-4q-60 -77 -163 -77q-111 0 -170.5 79.5t-59.5 197.5q0 107 62 184.5t164 77.5zM430 184v157q-37 78 -119 78q-63 0 -97 -46.5t-34 -111.5q0 -71 34 -118t96 -47 q40 0 72 23t48 65z" />
<glyph unicode="b" d="M100 774h76q30 0 30 -33v-289h3q56 75 165 75q104 0 164 -74.5t60 -187.5q0 -129 -70 -197t-192 -68h-236q-30 0 -30 32v709q0 33 30 33zM333 419q-58 0 -92.5 -45.5t-34.5 -111.5v-159h106q62 0 103.5 38.5t41.5 120.5q0 66 -32 111.5t-92 45.5z" />
<glyph unicode="c" horiz-adv-x="479" d="M452 91l3 -51q1 -21 -24 -33q-44 -19 -116 -19q-124 0 -199 75t-75 193q0 121 77 196t202 75q62 0 109 -19q24 -10 21 -35l-4 -49q-1 -20 -21 -20q-6 0 -34.5 8.5t-57.5 8.5q-67 0 -108.5 -47.5t-41.5 -117.5q0 -71 43 -117t116 -46q28 0 56.5 9t34.5 9q18 0 19 -20z" />
<glyph unicode="d" horiz-adv-x="643" d="M264 527q111 0 167 -74h3v288q0 33 31 33h76q29 0 29 -33v-626l55 -84q5 -8 5 -14q0 -17 -22 -17h-91q-16 0 -23 3.5t-15 17.5l-33 52h-6q-57 -85 -170 -85q-111 0 -170 79.5t-59 197.5q0 106 59.5 184t163.5 78zM305 96q59 0 94 46t35 114q0 73 -35 118t-92 45 q-59 0 -91.5 -46.5t-32.5 -112.5q0 -68 32 -116t90 -48z" />
<glyph unicode="e" horiz-adv-x="577" d="M539 254q0 -34 -39 -34h-319q5 -60 48 -96.5t110 -36.5q48 0 91 15.5t48 15.5q17 0 18 -20l4 -50q1 -13 -5 -20.5t-22 -13.5q-66 -26 -151 -26q-133 0 -207 73t-74 200q0 118 71.5 192t185.5 74q120 0 180.5 -73.5t60.5 -199.5zM181 307h229q-2 56 -30.5 88.5t-78.5 32.5 q-51 0 -83 -33t-37 -88z" />
<glyph unicode="f" horiz-adv-x="401" d="M9 444v39q0 32 30 32h82v77q0 194 182 194q42 0 66 -8q20 -7 19 -31l-3 -50q-1 -22 -18 -22q-7 0 -20 2t-26 2q-66 0 -66 -100v-64h101q30 0 30 -32v-39q0 -32 -30 -32h-101v-380q0 -32 -29 -32h-76q-31 0 -31 32v380h-80q-30 0 -30 32z" />
<glyph unicode="g" d="M570 483v-491q0 -136 -72.5 -200t-218.5 -64q-89 0 -158 29q-21 8 -26.5 16.5t-3.5 26.5l7 48q4 22 23 22q3 0 52.5 -18.5t104.5 -18.5q156 0 156 162v82h-3q-49 -77 -163 -77q-109 0 -168 75t-59 190q0 106 59.5 184t166.5 78q111 0 167 -74h5v30q0 32 31 32h71 q29 0 29 -32zM305 104q60 0 94.5 43.5t34.5 111.5q0 73 -35.5 117.5t-91.5 44.5q-59 0 -91.5 -46.5t-32.5 -112.5q0 -67 31.5 -112.5t90.5 -45.5z" />
<glyph unicode="h" horiz-adv-x="637" d="M100 774h76q30 0 30 -33v-296h3q58 82 166 82q101 0 146.5 -59t45.5 -153v-283q0 -32 -30 -32h-76q-30 0 -30 32v227q0 77 -21.5 115.5t-74.5 38.5q-62 0 -95.5 -47.5t-33.5 -129.5v-204q0 -32 -30 -32h-76q-30 0 -30 32v709q0 33 30 33z" />
<glyph unicode="i" horiz-adv-x="276" d="M70 32v451q0 32 30 32h76q30 0 30 -32v-451q0 -32 -30 -32h-76q-30 0 -30 32zM60 693q0 32 22.5 55t54.5 23t55 -23t23 -55t-23 -55t-55 -23t-54.5 23t-22.5 55z" />
<glyph unicode="j" horiz-adv-x="276" d="M60 693q0 32 22.5 55t54.5 23t55 -23t23 -55t-23 -55t-55 -23t-54.5 23t-22.5 55zM70 -50v533q0 32 30 32h76q30 0 30 -32v-533q0 -112 -38.5 -167t-134.5 -55q-33 0 -53 5q-25 6 -22 31l5 49q2 15 7 21t17 6q3 0 12 -1t15 -1q32 0 44 27.5t12 84.5z" />
<glyph unicode="k" horiz-adv-x="565" d="M100 774h76q30 0 30 -33v-442l174 194q11 14 19 18t27 4h93q22 0 22 -16q0 -6 -7 -15l-188 -203l215 -250q7 -7 7 -15q0 -16 -22 -16h-102q-20 0 -28 4t-18 17l-192 236v-225q0 -32 -30 -32h-76q-30 0 -30 32v709q0 33 30 33z" />
<glyph unicode="l" horiz-adv-x="321" d="M70 220v521q0 33 29 33h76q31 0 31 -33v-537q0 -49 12.5 -74.5t44.5 -25.5q10 0 21.5 2t16.5 2q21 0 21 -26v-52q0 -20 -21 -27q-29 -10 -71 -10q-41 0 -70.5 12.5t-46.5 31.5t-27 50.5t-13 61.5t-3 71z" />
<glyph unicode="m" horiz-adv-x="940" d="M175 0h-76q-29 0 -29 32v451q0 32 29 32h72q31 0 31 -32v-39h2q53 83 151 83q125 0 166 -99h3q53 99 164 99q100 0 141 -56.5t41 -156.5v-282q0 -32 -29 -32h-76q-31 0 -31 32v243q0 69 -17.5 103.5t-66.5 34.5q-60 0 -86 -51.5t-26 -132.5v-197q0 -32 -29 -32h-76 q-31 0 -31 32v243q0 69 -17.5 103.5t-66.5 34.5q-112 0 -112 -176v-205q0 -32 -31 -32z" />
<glyph unicode="n" horiz-adv-x="637" d="M175 0h-76q-29 0 -29 32v451q0 32 29 32h72q31 0 31 -32v-38h6q58 82 166 82q101 0 147 -59.5t46 -153.5v-282q0 -32 -30 -32h-76q-30 0 -30 32v233q0 75 -22 111.5t-74 36.5q-62 0 -95.5 -47.5t-33.5 -129.5v-204q0 -32 -31 -32z" />
<glyph unicode="o" d="M183 257q0 -66 36.5 -114.5t100.5 -48.5q63 0 99.5 48.5t36.5 114.5q0 67 -36.5 115.5t-99.5 48.5q-64 0 -100.5 -48.5t-36.5 -115.5zM41 257q0 126 80 198t199 72q118 0 198 -72t80 -198q0 -125 -80 -197t-198 -72q-119 0 -199 72t-80 197z" />
<glyph unicode="p" d="M175 -259h-76q-29 0 -29 32v710q0 32 29 32h72q31 0 31 -32v-40h3q57 84 170 84q110 0 167 -78t57 -198q0 -108 -59.5 -185.5t-165.5 -77.5q-109 0 -165 74h-3v-289q0 -32 -31 -32zM335 419q-59 0 -94 -46t-35 -111q0 -77 34.5 -121.5t92.5 -44.5q59 0 91.5 45.5 t32.5 113.5q0 69 -31.5 116.5t-90.5 47.5z" />
<glyph unicode="q" d="M434 -227v291q-58 -76 -164 -76q-111 0 -170 79t-59 198q0 106 59.5 184t163.5 78q111 0 167 -74h7v30q0 32 31 32h72q29 0 29 -32v-609l55 41q12 9 21 9q12 0 23 -15l28 -40q6 -9 6 -17q0 -15 -17 -26l-118 -76q-14 -9 -36 -9h-67q-31 0 -31 32zM305 96q59 0 94 45.5 t35 111.5q0 77 -34.5 121.5t-92.5 44.5q-59 0 -91.5 -46.5t-32.5 -112.5q0 -68 32 -116t90 -48z" />
<glyph unicode="r" horiz-adv-x="405" d="M175 0h-76q-29 0 -29 32v451q0 32 29 32h72q31 0 31 -32v-39h4q25 44 56 64t76 20q32 0 47 -5q18 -7 18 -30v-61q0 -27 -26 -27q-5 0 -21.5 2.5t-31.5 2.5q-60 0 -89 -48.5t-29 -128.5v-201q0 -32 -31 -32z" />
<glyph unicode="s" horiz-adv-x="457" d="M365 503q15 -6 19 -12.5t1 -19.5l-11 -49q-4 -19 -22 -19q-6 0 -39.5 12t-67.5 12q-32 0 -51 -11.5t-19 -31.5q0 -22 23.5 -37t75.5 -37q12 -4 18 -7q65 -28 93.5 -63.5t28.5 -90.5q0 -82 -61 -121.5t-151 -39.5q-81 0 -135 27q-23 10 -20 35l6 48q4 24 24 24 q3 0 41.5 -17t79.5 -17q82 0 82 53q0 24 -23.5 39t-91.5 42q-61 25 -91.5 60.5t-30.5 92.5q0 75 54.5 113.5t142.5 38.5q68 0 125 -24z" />
<glyph unicode="t" horiz-adv-x="396" d="M110 412h-70q-30 0 -30 32v39q0 32 30 32h70v131q0 33 31 33h76q29 0 29 -33v-131h94q30 0 30 -32v-39q0 -32 -30 -32h-94v-217q0 -100 66 -100q15 0 29.5 2t19.5 2q18 0 18 -22v-51q0 -23 -19 -29q-31 -9 -71 -9q-99 0 -139 48t-40 147v229z" />
<glyph unicode="u" horiz-adv-x="637" d="M206 483v-235q0 -73 21.5 -109.5t74.5 -36.5q62 0 95.5 48.5t33.5 131.5v201q0 32 30 32h76q30 0 30 -32v-451q0 -32 -30 -32h-72q-30 0 -30 32v43h-6q-57 -87 -167 -87q-192 0 -192 222v273q0 32 29 32h76q31 0 31 -32z" />
<glyph unicode="v" horiz-adv-x="554" d="M168 484l111 -351h5l111 351q10 31 42 31h74q24 0 24 -18l-5 -18l-166 -446q-12 -33 -40 -33h-94q-28 0 -40 33l-165 446q-5 15 -5 18q0 18 24 18h82q32 0 42 -31z" />
<glyph unicode="w" horiz-adv-x="848" d="M509 484l91 -350h4l87 350q7 31 40 31h74q23 0 23 -18q0 -5 -4 -21l-134 -443q-9 -33 -40 -33h-86q-30 0 -40 33l-98 344l-97 -344q-9 -33 -40 -33h-91q-31 0 -40 33l-134 443q-4 14 -4 21q0 18 23 18h78q33 0 40 -31l87 -350h3l92 350q8 31 41 31h84q33 0 41 -31z" />
<glyph unicode="x" horiz-adv-x="547" d="M28 34l167 230l-153 217q-7 10 -7 17q0 17 23 17h92q18 0 26 -5.5t20 -23.5l81 -127l81 127q11 18 19.5 23.5t27.5 5.5h81q23 0 23 -17q0 -7 -7 -17l-151 -211l168 -236q8 -10 8 -18q0 -16 -24 -16h-91q-19 0 -27.5 6t-18.5 23l-97 147l-93 -147q-11 -17 -21 -23t-28 -6 h-83q-23 0 -23 16q0 7 7 18z" />
<glyph unicode="y" horiz-adv-x="554" d="M168 484l111 -340h6l110 340q10 31 42 31h74q24 0 24 -18l-5 -18l-269 -719q-12 -31 -42 -31h-74q-24 0 -24 18q0 6 5 18l90 216l-191 498q-5 10 -5 18q0 18 24 18h82q32 0 42 -31z" />
<glyph unicode="z" horiz-adv-x="503" d="M82 515h343q30 0 30 -32v-41q0 -28 -15 -47l-247 -287h244q30 0 30 -33v-43q0 -32 -30 -32h-370q-31 0 -31 32v41q0 26 13 43l246 291h-213q-31 0 -31 33v43q0 32 31 32z" />
<glyph unicode="{" horiz-adv-x="426" d="M306 770h47q32 0 32 -34v-44q0 -34 -30 -34h-14q-35 0 -50 -22.5t-15 -71.5v-105q0 -123 -85 -147v-4q85 -24 85 -147v-105q0 -50 15 -72t50 -22h14q30 0 30 -34v-44q0 -34 -32 -34h-47q-79 0 -122.5 41t-43.5 126v124q0 51 -13 77t-45 34q-31 7 -31 35v45q0 29 31 36 q32 7 45 33t13 78v124q0 85 43.5 126t122.5 41z" />
<glyph unicode="|" horiz-adv-x="297" d="M215 737v-855q0 -32 -31 -32h-71q-31 0 -31 32v855q0 33 31 33h71q31 0 31 -33z" />
<glyph unicode="}" horiz-adv-x="426" d="M72 770h48q165 0 165 -167v-124q0 -51 13.5 -77.5t45.5 -33.5q30 -7 30 -36v-45q0 -28 -30 -35q-32 -8 -45.5 -34t-13.5 -77v-124q0 -167 -165 -167h-48q-32 0 -32 34v44q0 34 30 34h15q35 0 49.5 22t14.5 72v105q0 123 86 147v4q-86 24 -86 147v105q0 50 -14.5 72 t-49.5 22h-15q-30 0 -30 34v44q0 34 32 34z" />
<glyph unicode="~" horiz-adv-x="583" d="M503 319l13 -25q6 -12 6 -24q0 -17 -11 -35q-39 -64 -115 -64q-44 0 -113 33t-97 33q-38 0 -61 -41q-10 -16 -23 -16q-14 0 -22 15l-14 25q-6 12 -6 24q0 15 11 35q40 64 115 64q44 0 113 -33t97 -33q38 0 62 41q10 16 22 16q14 0 23 -15z" />
<glyph unicode="&#xa1;" horiz-adv-x="361" d="M259 447q0 -33 -23 -56.5t-56 -23.5q-34 0 -57.5 23.5t-23.5 56.5q0 34 23.5 57t57.5 23q33 0 56 -23t23 -57zM154 293h51q30 0 30 -32l15 -374q2 -38 2 -61q0 -30 -30 -30h-85q-31 0 -31 30q0 4 3 61l14 374q1 32 31 32z" />
<glyph unicode="&#xa2;" horiz-adv-x="508" d="M257 -68v63q-96 19 -151 89.5t-55 171.5t55.5 172t150.5 91v68q0 32 30 32h54q29 0 29 -32v-63q41 -5 69 -16q22 -10 21 -35l-4 -49q-1 -20 -21 -20q-6 0 -35 8.5t-57 8.5q-67 0 -108.5 -47.5t-41.5 -117.5q0 -71 43 -117t115 -46q29 0 57.5 9t33.5 9q18 0 19 -20l3 -51 q1 -21 -24 -33q-31 -13 -70 -17v-58q0 -32 -29 -32h-54q-30 0 -30 32z" />
<glyph unicode="&#xa3;" horiz-adv-x="699" d="M597 90v-57q0 -33 -32 -33h-413q-34 0 -34 33v57q0 34 34 34h58v192h-62q-30 0 -30 33v42q0 33 30 33h62v70q0 109 70.5 172.5t197.5 63.5q57 0 94 -8q34 -7 33 -39l-4 -56q-1 -24 -23 -24q-7 0 -35 5.5t-55 5.5q-72 0 -104 -39t-32 -115v-36h132q30 0 30 -33v-42 q0 -33 -30 -33h-132v-192h213q32 0 32 -34z" />
<glyph unicode="&#xa5;" horiz-adv-x="699" d="M589 128h-170v-95q0 -33 -32 -33h-76q-34 0 -34 33v95h-171q-30 0 -30 32v35q0 32 30 32h171v63l-11 19h-160q-30 0 -30 33v34q0 33 30 33h100l-170 274q-6 12 -6 18q0 18 22 18h98q19 0 27.5 -5.5t17.5 -22.5l153 -271l154 271q10 17 18 22.5t27 5.5h100q22 0 22 -18 q0 -7 -7 -18l-170 -274h97q31 0 31 -33v-34q0 -33 -31 -33h-156l-14 -24v-58h170q31 0 31 -32v-35q0 -32 -31 -32z" />
<glyph unicode="&#xa6;" horiz-adv-x="297" d="M215 737v-321q0 -33 -31 -33h-71q-31 0 -31 33v321q0 33 31 33h71q31 0 31 -33zM215 203v-321q0 -33 -31 -33h-71q-31 0 -31 33v321q0 33 31 33h71q31 0 31 -33z" />
<glyph unicode="&#xa7;" horiz-adv-x="596" d="M106 568q0 80 58.5 121t152.5 41q82 0 137 -23q22 -10 17 -31l-12 -55q-4 -16 -18 -16q-9 0 -44 13.5t-75 13.5q-38 0 -60.5 -14.5t-22.5 -39.5q0 -16 7.5 -28.5t25.5 -24.5t35 -19.5t49 -21.5q8 -3 12 -5q70 -30 101 -69.5t31 -97.5q0 -45 -22 -80.5t-56 -55.5 q68 -48 68 -131q0 -60 -34.5 -100t-84 -56t-109.5 -16q-87 0 -147 29q-22 11 -19 32l8 54q3 20 19 20q6 0 48 -19t87 -19q42 0 69 16t27 50q0 31 -26.5 50.5t-94.5 48.5q-70 30 -103.5 65.5t-33.5 98.5q0 87 81 138q-71 46 -71 131zM377 293q0 34 -25 54.5t-82 44.5 q-24 -11 -39.5 -31t-15.5 -41q0 -34 26.5 -54.5t89.5 -45.5q46 25 46 73z" />
<glyph unicode="&#xa8;" horiz-adv-x="304" d="M-18 669q0 29 20 49.5t49 20.5t49.5 -20.5t20.5 -49.5q0 -28 -20.5 -48.5t-49.5 -20.5t-49 20t-20 49zM181 669q0 29 20 49.5t49 20.5t49.5 -20.5t20.5 -49.5t-20.5 -49t-49.5 -20q-28 0 -48.5 20t-20.5 49z" />
<glyph unicode="&#xa9;" horiz-adv-x="868" d="M54 359q0 157 110 264.5t270 107.5t270 -107.5t110 -264.5t-110 -264t-270 -107t-270 107t-110 264zM132 359q0 -126 87 -211.5t215 -85.5t215 85.5t87 211.5t-87 212t-215 86t-215 -86t-87 -212zM469 223q26 0 52 7t32 7q19 0 20 -21l3 -34q1 -14 -5.5 -20.5 t-21.5 -10.5q-38 -10 -89 -10q-103 0 -171 56t-68 160q0 103 64 161.5t174 58.5q53 0 86 -10q29 -7 27 -31l-3 -34q-1 -20 -20 -20q-7 0 -33.5 7t-52.5 7q-63 0 -104 -38.5t-41 -100.5q0 -61 43.5 -97.5t107.5 -36.5z" />
<glyph unicode="&#xaa;" horiz-adv-x="449" d="M187 731q61 0 96 -37h4v8q0 22 24 22h46q22 0 22 -24v-270q0 -23 -22 -23h-44q-24 0 -24 23v10h-4q-35 -40 -109 -40q-65 5 -100 53t-35 116q0 66 40 114t106 48zM286 523v92q-22 43 -69 43q-38 0 -58.5 -26.5t-20.5 -64.5q0 -40 20.5 -67t57.5 -27q22 0 41 13.5t29 36.5 z" />
<glyph unicode="&#xab;" horiz-adv-x="626" d="M72 269q0 12 10 27l113 147q21 28 52 28h59q19 0 19 -17q0 -9 -13 -27l-117 -158l117 -158q13 -18 13 -27q0 -17 -19 -17h-59q-31 0 -52 28l-113 147q-10 15 -10 27zM301 269q0 14 10 27l112 147q21 28 52 28h60q19 0 19 -17q0 -9 -13 -27l-117 -158l117 -158 q13 -18 13 -27q0 -17 -19 -17h-60q-31 0 -52 28l-112 147q-10 13 -10 27z" />
<glyph unicode="&#xac;" horiz-adv-x="657" d="M562 383v-245q0 -33 -32 -33h-50q-33 0 -33 33v167h-368q-33 0 -33 33v45q0 34 33 34h451q32 0 32 -34z" />
<glyph unicode="&#xad;" horiz-adv-x="371" d="M294 210h-217q-31 0 -31 33v52q0 32 31 32h217q29 0 29 -32v-52q0 -33 -29 -33z" />
<glyph unicode="&#xae;" horiz-adv-x="868" d="M54 359q0 157 110 264.5t270 107.5t270 -107.5t110 -264.5t-110 -264t-270 -107t-270 107t-110 264zM132 359q0 -126 87 -211.5t215 -85.5t215 85.5t87 211.5t-87 212t-215 86t-215 -86t-87 -212zM275 184v353q0 35 33 35h128q90 0 131.5 -29.5t41.5 -92.5 q0 -99 -107 -119l96 -144q9 -11 9 -19q0 -19 -27 -19h-30q-36 0 -48 21l-99 155h-37v-141q0 -35 -31 -35h-27q-33 0 -33 35zM434 500h-68v-103h68q26 0 41.5 2.5t28.5 15t13 35.5q0 50 -83 50z" />
<glyph unicode="&#xb0;" horiz-adv-x="406" d="M61 585q0 62 40.5 104t102.5 42q64 0 105 -42t41 -104q0 -61 -41 -102t-105 -41q-62 0 -102.5 41t-40.5 102zM129 585q0 -32 21 -53.5t54 -21.5t55 21.5t22 53.5t-22 54.5t-55 22.5t-54 -22t-21 -55z" />
<glyph unicode="&#xb1;" horiz-adv-x="600" d="M523 0h-446q-30 0 -30 32v52q0 33 30 33h446q30 0 30 -33v-52q0 -32 -30 -32zM358 202q0 -31 -32 -31h-52q-33 0 -33 31v143h-163q-31 0 -31 33v52q0 32 31 32h163v145q0 29 33 29h52q32 0 32 -29v-145h165q29 0 29 -32v-52q0 -33 -29 -33h-165v-143z" />
<glyph unicode="&#xb2;" horiz-adv-x="409" d="M357 603q0 -58 -48 -117.5t-113 -107.5h136q30 0 30 -33v-23q0 -32 -30 -32h-257q-30 0 -30 32v25q0 25 24 41q76 53 124.5 106t48.5 93q0 29 -17 44t-47 15q-25 0 -57.5 -10.5t-40.5 -10.5q-18 0 -18 20l-2 28q-1 30 24 39q50 19 112 19q70 0 115.5 -32.5t45.5 -95.5z " />
<glyph unicode="&#xb3;" horiz-adv-x="412" d="M355 412q0 -66 -52.5 -97.5t-138.5 -31.5q-61 0 -92 9q-31 7 -28 37l2 30q2 25 24 25q5 0 30 -7t54 -7q89 0 89 51q0 24 -22.5 36.5t-59.5 12.5l-27 -1q-27 0 -27 29v22q0 31 26 31l36 -1q33 0 50.5 14t17.5 37q0 43 -68 43q-27 0 -53.5 -7t-33.5 -7q-20 0 -22 22l-2 34 q-1 25 20 32q43 13 106 13q78 0 122 -29.5t44 -88.5q0 -75 -91 -97q96 -18 96 -104z" />
<glyph unicode="&#xb4;" horiz-adv-x="308" d="M76 618l67 106q20 31 54 31h73q21 0 21 -18q0 -12 -12 -24l-94 -103q-13 -15 -23.5 -20t-28.5 -5h-38q-24 0 -24 16q0 9 5 17z" />
<glyph unicode="&#xb5;" horiz-adv-x="637" d="M70 -227v710q0 32 29 32h76q31 0 31 -32v-235q0 -73 21.5 -109.5t74.5 -36.5q62 0 95.5 48.5t33.5 131.5v201q0 32 30 32h76q30 0 30 -32v-451q0 -32 -30 -32h-72q-30 0 -30 32v43h-6q-57 -87 -167 -87q-31 0 -56 10v-225q0 -32 -30 -32h-76q-30 0 -30 32z" />
<glyph unicode="&#xb6;" horiz-adv-x="657" d="M294 697h263q30 0 30 -33v-751q0 -32 -30 -32h-49q-30 0 -30 32v685h-93v-685q0 -32 -30 -32h-49q-30 0 -30 32v418q-223 8 -223 183q0 183 241 183z" />
<glyph unicode="&#xb8;" horiz-adv-x="304" d="M262 -132q0 -49 -38 -72.5t-92 -23.5q-41 0 -75 14q-15 8 -15 16q0 4 2 10l4 12q4 16 15 16q4 0 23.5 -7.5t38.5 -7.5q53 0 53 39q0 33 -44 33l-33 -2q-21 0 -21 19q0 10 11 26l42 62h63l-45 -59q12 4 27 4q40 0 62 -21.5t22 -57.5z" />
<glyph unicode="&#xb9;" horiz-adv-x="351" d="M67 563l-16 20q-8 9 -8 20q0 13 14 24l107 84q14 10 29 10h50q30 0 30 -33v-373q0 -32 -30 -32h-52q-30 0 -30 32v283l-50 -39q-13 -9 -22 -9q-13 0 -22 13z" />
<glyph unicode="&#xba;" horiz-adv-x="428" d="M141 564q0 -38 18.5 -65t53.5 -27q37 0 55.5 27t18.5 65q0 39 -18.5 66.5t-55.5 27.5q-35 0 -53.5 -27.5t-18.5 -66.5zM41 564q0 78 47.5 122.5t124.5 44.5q79 0 126.5 -44.5t47.5 -122.5q0 -77 -47.5 -121t-126.5 -44q-77 0 -124.5 44t-47.5 121z" />
<glyph unicode="&#xbb;" horiz-adv-x="626" d="M325 269q0 -14 -10 -27l-112 -147q-21 -28 -52 -28h-60q-19 0 -19 17q0 9 13 27l117 158l-117 158q-13 18 -13 27q0 17 19 17h60q31 0 52 -28l112 -147q10 -13 10 -27zM554 269q0 -12 -10 -27l-113 -147q-21 -28 -52 -28h-59q-19 0 -19 17q0 9 13 27l117 158l-117 158 q-13 18 -13 27q0 17 19 17h59q31 0 52 -28l113 -147q10 -15 10 -27z" />
<glyph unicode="&#xbc;" horiz-adv-x="941" d="M497 171l127 245q10 22 37 22h63q20 0 20 -16q0 -9 -6 -21l-127 -238h91v61q0 33 30 33h41q30 0 30 -33v-61h28q30 0 30 -32v-23q0 -33 -30 -33h-28v-43q0 -32 -30 -32h-41q-30 0 -30 32v43h-186q-30 0 -30 33v24q0 17 11 39zM184 13l414 706q13 22 39 22h33q20 0 20 -16 q0 -8 -7 -20l-414 -707q-13 -21 -39 -21h-33q-20 0 -20 15q0 8 7 21zM79 563l-16 20q-8 9 -8 20q0 13 14 24l107 84q14 10 29 10h50q30 0 30 -33v-373q0 -32 -30 -32h-52q-30 0 -30 32v283l-50 -39q-13 -9 -22 -9q-13 0 -22 13z" />
<glyph unicode="&#xbd;" horiz-adv-x="941" d="M840 0h-257q-31 0 -31 32v25q0 24 24 41q76 53 124.5 106t48.5 93q0 59 -64 59q-24 0 -57 -10.5t-40 -10.5q-18 0 -19 20l-1 34q0 25 23 33q50 19 112 19q70 0 116 -32.5t46 -95.5q0 -58 -48 -117.5t-114 -107.5h137q30 0 30 -33v-23q0 -32 -30 -32zM181 13l414 706 q12 22 39 22h32q20 0 20 -16q0 -8 -7 -20l-414 -707q-12 -21 -39 -21h-32q-20 0 -20 15q0 8 7 21zM79 563l-16 20q-8 9 -8 20q0 13 14 24l107 84q14 10 29 10h50q30 0 30 -33v-373q0 -32 -30 -32h-52q-30 0 -30 32v283l-50 -39q-13 -9 -22 -9q-13 0 -22 13z" />
<glyph unicode="&#xbe;" horiz-adv-x="997" d="M389 412q0 -66 -52.5 -97.5t-138.5 -31.5q-62 0 -93 9q-29 7 -28 37l2 30q2 25 24 25q6 0 31 -7t54 -7q88 0 88 51q0 49 -81 49l-28 -1q-27 0 -27 29v22q0 31 27 31l36 -1q33 0 50.5 14t17.5 37q0 43 -68 43q-27 0 -54 -7t-34 -7q-20 0 -22 22l-2 34q-1 25 21 32 q42 13 105 13q78 0 122 -29.5t44 -88.5q0 -76 -91 -97q97 -18 97 -104zM560 171l128 245q10 22 37 22h63q20 0 20 -16q0 -7 -7 -21l-127 -238h92v61q0 33 30 33h41q30 0 30 -33v-61h28q30 0 30 -32v-23q0 -33 -30 -33h-28v-43q0 -32 -30 -32h-41q-30 0 -30 32v43h-186 q-30 0 -30 33v24q0 19 10 39zM256 13l414 706q12 22 39 22h32q20 0 20 -16q0 -8 -7 -20l-414 -707q-12 -21 -39 -21h-32q-20 0 -20 15q0 8 7 21z" />
<glyph unicode="&#xbf;" horiz-adv-x="524" d="M296 -100q44 0 89.5 16.5t55.5 16.5q17 0 18 -21l3 -62q1 -16 -3.5 -23t-17.5 -13q-71 -30 -172 -30q-92 0 -150 44.5t-58 127.5q0 64 35.5 114.5t97.5 101.5q21 18 21 47v43q0 30 29 30h66q27 0 27 -31v-65q0 -34 -24 -58q-12 -12 -38 -37t-39 -39t-24.5 -36t-11.5 -45 q0 -39 25.5 -60t70.5 -21zM358 447q0 -33 -23 -56.5t-56 -23.5q-34 0 -57.5 23.5t-23.5 56.5q0 34 23.5 57t57.5 23q33 0 56 -23t23 -57z" />
<glyph unicode="&#xc0;" horiz-adv-x="739" d="M715 32q4 -10 4 -14q0 -18 -25 -18h-91q-33 0 -43 31l-48 135h-297l-48 -135q-10 -31 -43 -31h-80q-24 0 -24 18q0 5 4 15l250 653q13 33 42 33h107q27 0 40 -33zM474 281l-107 300h-4l-108 -300h219zM423 927l67 -106q5 -8 5 -17q0 -16 -24 -16h-38q-18 0 -28.5 5 t-23.5 20l-94 103q-12 12 -12 24q0 18 21 18h73q34 0 54 -31z" />
<glyph unicode="&#xc1;" horiz-adv-x="739" d="M715 32q4 -10 4 -14q0 -18 -25 -18h-91q-33 0 -43 31l-48 135h-297l-48 -135q-10 -31 -43 -31h-80q-24 0 -24 18q0 5 4 15l250 653q13 33 42 33h107q27 0 40 -33zM474 281l-107 300h-4l-108 -300h219zM248 821l67 106q20 31 54 31h73q21 0 21 -18q0 -12 -12 -24l-94 -103 q-13 -15 -23.5 -20t-28.5 -5h-38q-24 0 -24 16q0 9 5 17z" />
<glyph unicode="&#xc2;" horiz-adv-x="739" d="M715 32q4 -10 4 -14q0 -18 -25 -18h-91q-33 0 -43 31l-48 135h-297l-48 -135q-10 -31 -43 -31h-80q-24 0 -24 18q0 5 4 15l250 653q13 33 42 33h107q27 0 40 -33zM474 281l-107 300h-4l-108 -300h219zM455 927l69 -108q6 -9 6 -16q0 -15 -21 -15h-40q-30 0 -51 26l-48 60 l-49 -60q-21 -26 -51 -26h-40q-21 0 -21 14q0 7 6 16l70 109q19 31 55 31h61q35 0 54 -31z" />
<glyph unicode="&#xc3;" horiz-adv-x="739" d="M715 32q4 -10 4 -14q0 -18 -25 -18h-91q-33 0 -43 31l-48 135h-297l-48 -135q-10 -31 -43 -31h-80q-24 0 -24 18q0 5 4 15l250 653q13 33 42 33h107q27 0 40 -33zM474 281l-107 300h-4l-108 -300h219zM490 934h27q23 0 23 -26q0 -47 -26.5 -78.5t-77.5 -31.5 q-32 0 -75.5 20t-56.5 20q-23 0 -29 -23q-7 -20 -30 -20h-27q-24 0 -24 27q0 46 27 77.5t78 31.5q31 0 74 -20t57 -20q21 0 30 24q5 19 30 19z" />
<glyph unicode="&#xc4;" horiz-adv-x="739" d="M715 32q4 -10 4 -14q0 -18 -25 -18h-91q-33 0 -43 31l-48 135h-297l-48 -135q-10 -31 -43 -31h-80q-24 0 -24 18q0 5 4 15l250 653q13 33 42 33h107q27 0 40 -33zM474 281l-107 300h-4l-108 -300h219zM200 872q0 29 20 49.5t49 20.5t49.5 -20.5t20.5 -49.5 q0 -28 -20.5 -48.5t-49.5 -20.5t-49 20.5t-20 48.5zM399 872q0 29 20 49.5t49 20.5t49.5 -20.5t20.5 -49.5t-20.5 -49t-49.5 -20q-28 0 -48.5 20.5t-20.5 48.5z" />
<glyph unicode="&#xc5;" horiz-adv-x="739" d="M715 32q4 -10 4 -14q0 -18 -25 -18h-91q-33 0 -43 31l-48 135h-297l-48 -135q-10 -31 -43 -31h-80q-24 0 -24 18q0 5 4 15l250 653q13 33 42 33h107q27 0 40 -33zM474 281l-107 300h-4l-108 -300h219zM262 873q0 46 30 77t76 31q47 0 77.5 -31t30.5 -77q0 -45 -30.5 -76 t-77.5 -31q-46 0 -76 31t-30 76zM317 873q0 -22 14.5 -37t36.5 -15q23 0 38 15t15 37q0 23 -15 38t-38 15q-22 0 -36.5 -15t-14.5 -38z" />
<glyph unicode="&#xc6;" horiz-adv-x="964" d="M482 33v133h-232l-73 -135q-17 -31 -46 -31h-87q-24 0 -24 18q0 6 5 18l355 650q17 33 53 33h444q32 0 32 -34v-51q0 -34 -32 -34h-253v-169h226q32 0 32 -34v-50q0 -34 -32 -34h-226v-195h253q32 0 32 -34v-51q0 -33 -32 -33h-361q-34 0 -34 33zM482 281v308h-5 l-166 -308h171z" />
<glyph unicode="&#xc7;" d="M608 111l3 -60q1 -20 -2.5 -26t-21.5 -13q-63 -24 -159 -24q-164 0 -266 92q-115 101 -115 279q0 172 108 275q103 97 273 97q90 0 158 -26q14 -5 18.5 -12t3.5 -24l-4 -68q-2 -21 -18 -21q-4 0 -56 18q-45 15 -96 15q-110 0 -176 -72q-65 -69 -65 -184q0 -116 72 -185 q69 -67 174 -67q48 0 83 10q11 3 24.5 7.5t23 7.5t16.5 3q21 0 22 -22zM528 -132q0 -49 -38 -72.5t-92 -23.5q-41 0 -75 14q-15 8 -15 16q0 4 2 10l4 12q4 16 15 16q4 0 23.5 -7.5t38.5 -7.5q53 0 53 39q0 33 -44 33l-33 -2q-21 0 -21 19q0 10 11 26l42 62h63l-45 -59 q12 4 27 4q40 0 62 -21.5t22 -57.5z" />
<glyph unicode="&#xc8;" horiz-adv-x="573" d="M82 33v652q0 34 33 34h371q32 0 32 -34v-51q0 -34 -32 -34h-262v-169h236q32 0 32 -34v-50q0 -34 -32 -34h-236v-195h262q32 0 32 -34v-51q0 -33 -32 -33h-371q-33 0 -33 33zM340 927l67 -106q5 -8 5 -17q0 -16 -24 -16h-38q-18 0 -28.5 5t-23.5 20l-94 103 q-12 12 -12 24q0 18 21 18h73q34 0 54 -31z" />
<glyph unicode="&#xc9;" horiz-adv-x="573" d="M82 33v652q0 34 33 34h371q32 0 32 -34v-51q0 -34 -32 -34h-262v-169h236q32 0 32 -34v-50q0 -34 -32 -34h-236v-195h262q32 0 32 -34v-51q0 -33 -32 -33h-371q-33 0 -33 33zM165 821l67 106q20 31 54 31h73q21 0 21 -18q0 -12 -12 -24l-94 -103q-13 -15 -23.5 -20 t-28.5 -5h-38q-24 0 -24 16q0 9 5 17z" />
<glyph unicode="&#xca;" horiz-adv-x="573" d="M82 33v652q0 34 33 34h371q32 0 32 -34v-51q0 -34 -32 -34h-262v-169h236q32 0 32 -34v-50q0 -34 -32 -34h-236v-195h262q32 0 32 -34v-51q0 -33 -32 -33h-371q-33 0 -33 33zM372 927l69 -108q6 -9 6 -16q0 -15 -21 -15h-40q-30 0 -51 26l-48 60l-49 -60q-21 -26 -51 -26 h-40q-21 0 -21 14q0 7 6 16l70 109q19 31 55 31h61q35 0 54 -31z" />
<glyph unicode="&#xcb;" horiz-adv-x="573" d="M82 33v652q0 34 33 34h371q32 0 32 -34v-51q0 -34 -32 -34h-262v-169h236q32 0 32 -34v-50q0 -34 -32 -34h-236v-195h262q32 0 32 -34v-51q0 -33 -32 -33h-371q-33 0 -33 33zM117 872q0 29 20 49.5t49 20.5t49.5 -20.5t20.5 -49.5q0 -28 -20.5 -48.5t-49.5 -20.5 q-28 0 -48.5 20.5t-20.5 48.5zM316 872q0 29 20 49.5t49 20.5t49.5 -20.5t20.5 -49.5t-20.5 -49t-49.5 -20t-49 20.5t-20 48.5z" />
<glyph unicode="&#xcc;" horiz-adv-x="390" d="M63 114h61v491h-61q-31 0 -31 32v49q0 33 31 33h264q30 0 30 -33v-49q0 -32 -30 -32h-61v-491h61q30 0 30 -33v-49q0 -32 -30 -32h-264q-31 0 -31 32v49q0 33 31 33zM248 927l67 -106q5 -8 5 -17q0 -16 -24 -16h-38q-18 0 -28.5 5t-23.5 20l-94 103q-12 12 -12 24 q0 18 21 18h73q34 0 54 -31z" />
<glyph unicode="&#xcd;" horiz-adv-x="390" d="M63 114h61v491h-61q-31 0 -31 32v49q0 33 31 33h264q30 0 30 -33v-49q0 -32 -30 -32h-61v-491h61q30 0 30 -33v-49q0 -32 -30 -32h-264q-31 0 -31 32v49q0 33 31 33zM74 821l67 106q20 31 54 31h73q21 0 21 -18q0 -12 -12 -24l-94 -103q-13 -15 -23.5 -20t-28.5 -5h-38 q-24 0 -24 16q0 9 5 17z" />
<glyph unicode="&#xce;" horiz-adv-x="390" d="M63 114h61v491h-61q-31 0 -31 32v49q0 33 31 33h264q30 0 30 -33v-49q0 -32 -30 -32h-61v-491h61q30 0 30 -33v-49q0 -32 -30 -32h-264q-31 0 -31 32v49q0 33 31 33zM280 927l69 -108q6 -9 6 -16q0 -15 -21 -15h-40q-30 0 -51 26l-48 60l-49 -60q-21 -26 -51 -26h-40 q-21 0 -21 14q0 7 6 16l70 109q19 31 55 31h61q35 0 54 -31z" />
<glyph unicode="&#xcf;" horiz-adv-x="390" d="M63 114h61v491h-61q-31 0 -31 32v49q0 33 31 33h264q30 0 30 -33v-49q0 -32 -30 -32h-61v-491h61q30 0 30 -33v-49q0 -32 -30 -32h-264q-31 0 -31 32v49q0 33 31 33zM25 872q0 29 20 49.5t49 20.5t49.5 -20.5t20.5 -49.5q0 -28 -20.5 -48.5t-49.5 -20.5q-28 0 -48.5 20.5 t-20.5 48.5zM224 872q0 29 20 49.5t49 20.5t49.5 -20.5t20.5 -49.5t-20.5 -49t-49.5 -20t-49 20.5t-20 48.5z" />
<glyph unicode="&#xd0;" horiz-adv-x="745" d="M112 719h194q181 0 286 -88.5t105 -266.5t-101.5 -271t-290.5 -93h-193q-30 0 -30 32v295h-36q-33 0 -33 34v20q0 34 33 34h36v271q0 33 30 33zM395 381v-20q0 -34 -32 -34h-139v-211h87q239 0 239 244q0 116 -68 182q-62 59 -176 59h-82v-186h139q32 0 32 -34z" />
<glyph unicode="&#xd1;" horiz-adv-x="756" d="M478 33l-267 516v-516q0 -33 -32 -33h-64q-33 0 -33 33v652q0 34 33 34h124q31 0 47 -34l258 -505v505q0 34 33 34h64q33 0 33 -34v-651q0 -34 -33 -34h-114q-33 0 -49 33zM499 934h27q23 0 23 -26q0 -47 -26.5 -78.5t-77.5 -31.5q-32 0 -75.5 20t-56.5 20q-23 0 -29 -23 q-7 -20 -30 -20h-27q-24 0 -24 27q0 46 27 77.5t78 31.5q32 0 75 -20t56 -20q21 0 30 24q5 19 30 19z" />
<glyph unicode="&#xd2;" horiz-adv-x="783" d="M193 359q0 -109 50 -181.5t148 -72.5q99 0 148.5 72.5t49.5 181.5t-49.5 181.5t-148.5 72.5q-98 0 -148 -73t-50 -181zM47 359q0 174 90.5 273t253.5 99t253.5 -99t90.5 -273q0 -175 -90 -273t-254 -98q-163 0 -253.5 98t-90.5 273zM445 927l67 -106q5 -8 5 -17 q0 -16 -24 -16h-38q-18 0 -28.5 5t-23.5 20l-94 103q-12 12 -12 24q0 18 21 18h73q34 0 54 -31z" />
<glyph unicode="&#xd3;" horiz-adv-x="783" d="M193 359q0 -109 50 -181.5t148 -72.5q99 0 148.5 72.5t49.5 181.5t-49.5 181.5t-148.5 72.5q-98 0 -148 -73t-50 -181zM47 359q0 174 90.5 273t253.5 99t253.5 -99t90.5 -273q0 -175 -90 -273t-254 -98q-163 0 -253.5 98t-90.5 273zM270 821l67 106q20 31 54 31h73 q21 0 21 -18q0 -12 -12 -24l-94 -103q-13 -15 -23.5 -20t-28.5 -5h-38q-24 0 -24 16q0 9 5 17z" />
<glyph unicode="&#xd4;" horiz-adv-x="783" d="M193 359q0 -109 50 -181.5t148 -72.5q99 0 148.5 72.5t49.5 181.5t-49.5 181.5t-148.5 72.5q-98 0 -148 -73t-50 -181zM47 359q0 174 90.5 273t253.5 99t253.5 -99t90.5 -273q0 -175 -90 -273t-254 -98q-163 0 -253.5 98t-90.5 273zM477 927l69 -108q6 -9 6 -16 q0 -15 -21 -15h-40q-30 0 -51 26l-48 60l-49 -60q-21 -26 -51 -26h-40q-21 0 -21 14q0 7 6 16l70 109q19 31 55 31h61q35 0 54 -31z" />
<glyph unicode="&#xd5;" horiz-adv-x="783" d="M193 359q0 -109 50 -181.5t148 -72.5q99 0 148.5 72.5t49.5 181.5t-49.5 181.5t-148.5 72.5q-98 0 -148 -73t-50 -181zM47 359q0 174 90.5 273t253.5 99t253.5 -99t90.5 -273q0 -175 -90 -273t-254 -98q-163 0 -253.5 98t-90.5 273zM513 934h27q23 0 23 -26 q0 -47 -26.5 -78.5t-77.5 -31.5q-32 0 -75.5 20t-56.5 20q-23 0 -29 -23q-7 -20 -30 -20h-27q-24 0 -24 27q0 46 27 77.5t78 31.5q32 0 75 -20t56 -20q21 0 30 24q5 19 30 19z" />
<glyph unicode="&#xd6;" horiz-adv-x="783" d="M193 359q0 -109 50 -181.5t148 -72.5q99 0 148.5 72.5t49.5 181.5t-49.5 181.5t-148.5 72.5q-98 0 -148 -73t-50 -181zM47 359q0 174 90.5 273t253.5 99t253.5 -99t90.5 -273q0 -175 -90 -273t-254 -98q-163 0 -253.5 98t-90.5 273zM222 872q0 29 20 49.5t49 20.5 t49.5 -20.5t20.5 -49.5q0 -28 -20.5 -48.5t-49.5 -20.5t-49 20.5t-20 48.5zM421 872q0 29 20 49.5t49 20.5t49.5 -20.5t20.5 -49.5t-20.5 -49t-49.5 -20q-28 0 -48.5 20.5t-20.5 48.5z" />
<glyph unicode="&#xd7;" horiz-adv-x="600" d="M516 116q10 -10 10 -21q0 -13 -12 -23l-37 -37q-12 -12 -23 -12t-21 10l-135 135l-135 -135q-10 -10 -22 -10q-11 0 -23 12l-37 37q-12 12 -12 23q0 10 11 21l135 135l-136 136q-10 10 -10 20q0 11 12 24l37 37q12 12 23 12t21 -10l136 -136l135 136q10 10 21 10t23 -12 l37 -37q12 -12 12 -23t-10 -21l-135 -136z" />
<glyph unicode="&#xd8;" horiz-adv-x="783" d="M47 359q0 174 90.5 273t253.5 99q121 0 206 -57l40 48q21 26 44 6l19 -16q24 -19 3 -44l-45 -54q77 -95 77 -255q0 -175 -90 -273t-254 -98q-123 0 -206 57l-40 -48q-21 -25 -45 -6l-19 16q-23 20 -2 45l44 52q-76 98 -76 255zM589 359q0 81 -30 139l-288 -351 q48 -42 120 -42q99 0 148.5 72.5t49.5 181.5zM193 359q0 -80 30 -137l287 350q-47 41 -119 41q-98 0 -148 -73t-50 -181z" />
<glyph unicode="&#xd9;" horiz-adv-x="732" d="M77 287v399q0 33 31 33h81q30 0 30 -33v-378q0 -193 146 -193q148 0 148 193v378q0 33 30 33h81q31 0 31 -33v-399q0 -147 -77.5 -223t-212.5 -76q-139 0 -213.5 77.5t-74.5 221.5zM419 927l67 -106q5 -8 5 -17q0 -16 -24 -16h-38q-18 0 -28.5 5t-23.5 20l-94 103 q-12 12 -12 24q0 18 21 18h73q34 0 54 -31z" />
<glyph unicode="&#xda;" horiz-adv-x="732" d="M77 287v399q0 33 31 33h81q30 0 30 -33v-378q0 -193 146 -193q148 0 148 193v378q0 33 30 33h81q31 0 31 -33v-399q0 -147 -77.5 -223t-212.5 -76q-139 0 -213.5 77.5t-74.5 221.5zM244 821l67 106q20 31 54 31h73q21 0 21 -18q0 -12 -12 -24l-94 -103q-13 -15 -23.5 -20 t-28.5 -5h-38q-24 0 -24 16q0 9 5 17z" />
<glyph unicode="&#xdb;" horiz-adv-x="732" d="M77 287v399q0 33 31 33h81q30 0 30 -33v-378q0 -193 146 -193q148 0 148 193v378q0 33 30 33h81q31 0 31 -33v-399q0 -147 -77.5 -223t-212.5 -76q-139 0 -213.5 77.5t-74.5 221.5zM452 927l69 -108q6 -9 6 -16q0 -15 -21 -15h-40q-30 0 -51 26l-48 60l-49 -60 q-21 -26 -51 -26h-40q-21 0 -21 14q0 7 6 16l70 109q19 31 55 31h61q35 0 54 -31z" />
<glyph unicode="&#xdc;" horiz-adv-x="732" d="M77 287v399q0 33 31 33h81q30 0 30 -33v-378q0 -193 146 -193q148 0 148 193v378q0 33 30 33h81q31 0 31 -33v-399q0 -147 -77.5 -223t-212.5 -76q-139 0 -213.5 77.5t-74.5 221.5zM197 872q0 29 20 49.5t49 20.5t49.5 -20.5t20.5 -49.5q0 -28 -20.5 -48.5t-49.5 -20.5 q-28 0 -48.5 20.5t-20.5 48.5zM396 872q0 29 20 49.5t49 20.5t49.5 -20.5t20.5 -49.5t-20.5 -49t-49.5 -20t-49 20.5t-20 48.5z" />
<glyph unicode="&#xdd;" horiz-adv-x="699" d="M185 691l163 -271l164 271q10 17 18 22.5t27 5.5h100q22 0 22 -18q0 -7 -7 -18l-253 -398v-252q0 -33 -32 -33h-76q-34 0 -34 33v257l-251 393q-6 12 -6 18q0 18 22 18h98q19 0 27 -5.5t18 -22.5zM247 797l67 106q20 31 54 31h73q21 0 21 -18q0 -12 -12 -24l-94 -103 q-13 -15 -23.5 -20t-28.5 -5h-38q-24 0 -24 16q0 9 5 17z" />
<glyph unicode="&#xde;" horiz-adv-x="608" d="M224 685v-76h51q149 0 221.5 -53.5t72.5 -170.5q0 -110 -73.5 -168.5t-195.5 -58.5h-76v-125q0 -33 -32 -33h-77q-33 0 -33 33v652q0 34 33 34h77q32 0 32 -34zM283 494h-59v-221h65q134 0 134 111q0 110 -140 110z" />
<glyph unicode="&#xdf;" horiz-adv-x="631" d="M70 32v458q0 142 60 218t199 76q101 0 166.5 -54t65.5 -153q0 -126 -120 -171q73 -16 111 -65t38 -125q0 -104 -63.5 -163t-172.5 -59h-66q-32 0 -32 29l1 51q0 28 31 28h48q55 0 86.5 30.5t31.5 91.5t-37 94t-102 33q-27 0 -27 30v42q0 33 28 33q47 2 78 32t31 83 t-28 82t-75 29q-59 0 -87.5 -44t-28.5 -119v-487q0 -32 -30 -32h-76q-30 0 -30 32z" />
<glyph unicode="&#xe0;" horiz-adv-x="636" d="M264 527q103 0 162 -65h4v21q0 32 31 32h76q29 0 29 -32v-451q0 -32 -29 -32h-71q-31 0 -31 32v33h-4q-60 -77 -163 -77q-111 0 -170.5 79.5t-59.5 197.5q0 107 62 184.5t164 77.5zM430 184v157q-37 78 -119 78q-63 0 -97 -46.5t-34 -111.5q0 -71 34 -118t96 -47 q40 0 72 23t48 65zM371 724l67 -106q5 -8 5 -17q0 -16 -24 -16h-38q-18 0 -28.5 5t-23.5 20l-94 103q-12 12 -12 24q0 18 21 18h73q34 0 54 -31z" />
<glyph unicode="&#xe1;" horiz-adv-x="636" d="M264 527q103 0 162 -65h4v21q0 32 31 32h76q29 0 29 -32v-451q0 -32 -29 -32h-71q-31 0 -31 32v33h-4q-60 -77 -163 -77q-111 0 -170.5 79.5t-59.5 197.5q0 107 62 184.5t164 77.5zM430 184v157q-37 78 -119 78q-63 0 -97 -46.5t-34 -111.5q0 -71 34 -118t96 -47 q40 0 72 23t48 65zM196 618l67 106q20 31 54 31h73q21 0 21 -18q0 -12 -12 -24l-94 -103q-13 -15 -23.5 -20t-28.5 -5h-38q-24 0 -24 16q0 9 5 17z" />
<glyph unicode="&#xe2;" horiz-adv-x="636" d="M264 527q103 0 162 -65h4v21q0 32 31 32h76q29 0 29 -32v-451q0 -32 -29 -32h-71q-31 0 -31 32v33h-4q-60 -77 -163 -77q-111 0 -170.5 79.5t-59.5 197.5q0 107 62 184.5t164 77.5zM430 184v157q-37 78 -119 78q-63 0 -97 -46.5t-34 -111.5q0 -71 34 -118t96 -47 q40 0 72 23t48 65zM403 724l69 -108q6 -9 6 -16q0 -15 -21 -15h-40q-30 0 -51 26l-48 60l-49 -60q-21 -26 -51 -26h-40q-21 0 -21 14q0 7 6 16l70 109q19 31 55 31h61q35 0 54 -31z" />
<glyph unicode="&#xe3;" horiz-adv-x="636" d="M264 527q103 0 162 -65h4v21q0 32 31 32h76q29 0 29 -32v-451q0 -32 -29 -32h-71q-31 0 -31 32v33h-4q-60 -77 -163 -77q-111 0 -170.5 79.5t-59.5 197.5q0 107 62 184.5t164 77.5zM430 184v157q-37 78 -119 78q-63 0 -97 -46.5t-34 -111.5q0 -71 34 -118t96 -47 q40 0 72 23t48 65zM439 731h27q23 0 23 -26q0 -47 -26.5 -78.5t-77.5 -31.5q-32 0 -75.5 20t-56.5 20q-23 0 -29 -23q-7 -20 -30 -20h-27q-24 0 -24 27q0 46 27 77.5t78 31.5q32 0 75 -20t56 -20q21 0 30 24q5 19 30 19z" />
<glyph unicode="&#xe4;" horiz-adv-x="636" d="M264 527q103 0 162 -65h4v21q0 32 31 32h76q29 0 29 -32v-451q0 -32 -29 -32h-71q-31 0 -31 32v33h-4q-60 -77 -163 -77q-111 0 -170.5 79.5t-59.5 197.5q0 107 62 184.5t164 77.5zM430 184v157q-37 78 -119 78q-63 0 -97 -46.5t-34 -111.5q0 -71 34 -118t96 -47 q40 0 72 23t48 65zM148 669q0 29 20 49.5t49 20.5t49.5 -20.5t20.5 -49.5q0 -28 -20.5 -48.5t-49.5 -20.5t-49 20t-20 49zM347 669q0 29 20 49.5t49 20.5t49.5 -20.5t20.5 -49.5t-20.5 -49t-49.5 -20q-28 0 -48.5 20t-20.5 49z" />
<glyph unicode="&#xe5;" horiz-adv-x="636" d="M264 527q103 0 162 -65h4v21q0 32 31 32h76q29 0 29 -32v-451q0 -32 -29 -32h-71q-31 0 -31 32v33h-4q-60 -77 -163 -77q-111 0 -170.5 79.5t-59.5 197.5q0 107 62 184.5t164 77.5zM430 184v157q-37 78 -119 78q-63 0 -97 -46.5t-34 -111.5q0 -71 34 -118t96 -47 q40 0 72 23t48 65zM211 670q0 46 30 77t76 31q47 0 77.5 -31t30.5 -77q0 -45 -30.5 -76t-77.5 -31q-46 0 -76 31t-30 76zM266 670q0 -22 14.5 -37t36.5 -15q23 0 38 15t15 37q0 23 -15 38t-38 15q-22 0 -36.5 -15t-14.5 -38z" />
<glyph unicode="&#xe6;" horiz-adv-x="963" d="M925 254q0 -34 -39 -34h-319q5 -60 48 -96.5t110 -36.5q48 0 91 15.5t48 15.5q17 0 18 -20l4 -50q1 -13 -5 -20.5t-22 -13.5q-66 -26 -151 -26t-143 35q-3 -23 -28 -23h-71q-31 0 -31 32v33h-4q-60 -77 -163 -77q-111 0 -170.5 79.5t-59.5 197.5q0 107 62 184.5t164 77.5 q103 0 162 -65h4v21q0 32 31 32h76q24 0 28 -20q53 32 119 32q120 0 180.5 -73.5t60.5 -199.5zM430 184v157q-37 78 -119 78q-63 0 -97 -46.5t-34 -111.5q0 -71 34 -118t96 -47q40 0 72 23t48 65zM567 307h229q-2 56 -30.5 88.5t-78.5 32.5q-51 0 -83 -33t-37 -88z" />
<glyph unicode="&#xe7;" horiz-adv-x="479" d="M452 91l3 -51q1 -21 -24 -33q-44 -19 -116 -19q-124 0 -199 75t-75 193q0 121 77 196t202 75q62 0 109 -19q24 -10 21 -35l-4 -49q-1 -20 -21 -20q-6 0 -34.5 8.5t-57.5 8.5q-67 0 -108.5 -47.5t-41.5 -117.5q0 -71 43 -117t116 -46q28 0 56.5 9t34.5 9q18 0 19 -20z M418 -132q0 -49 -38 -72.5t-92 -23.5q-41 0 -75 14q-15 8 -15 16q0 4 2 10l4 12q4 16 15 16q4 0 23.5 -7.5t38.5 -7.5q53 0 53 39q0 33 -44 33l-33 -2q-21 0 -21 19q0 10 11 26l42 62h63l-45 -59q12 4 27 4q40 0 62 -21.5t22 -57.5z" />
<glyph unicode="&#xe8;" horiz-adv-x="577" d="M539 254q0 -34 -39 -34h-319q5 -60 48 -96.5t110 -36.5q48 0 91 15.5t48 15.5q17 0 18 -20l4 -50q1 -13 -5 -20.5t-22 -13.5q-66 -26 -151 -26q-133 0 -207 73t-74 200q0 118 71.5 192t185.5 74q120 0 180.5 -73.5t60.5 -199.5zM181 307h229q-2 56 -30.5 88.5t-78.5 32.5 q-51 0 -83 -33t-37 -88zM343 724l67 -106q5 -8 5 -17q0 -16 -24 -16h-38q-18 0 -28.5 5t-23.5 20l-94 103q-12 12 -12 24q0 18 21 18h73q34 0 54 -31z" />
<glyph unicode="&#xe9;" horiz-adv-x="577" d="M539 254q0 -34 -39 -34h-319q5 -60 48 -96.5t110 -36.5q48 0 91 15.5t48 15.5q17 0 18 -20l4 -50q1 -13 -5 -20.5t-22 -13.5q-66 -26 -151 -26q-133 0 -207 73t-74 200q0 118 71.5 192t185.5 74q120 0 180.5 -73.5t60.5 -199.5zM181 307h229q-2 56 -30.5 88.5t-78.5 32.5 q-51 0 -83 -33t-37 -88zM168 618l67 106q20 31 54 31h73q21 0 21 -18q0 -12 -12 -24l-94 -103q-13 -15 -23.5 -20t-28.5 -5h-38q-24 0 -24 16q0 9 5 17z" />
<glyph unicode="&#xea;" horiz-adv-x="577" d="M539 254q0 -34 -39 -34h-319q5 -60 48 -96.5t110 -36.5q48 0 91 15.5t48 15.5q17 0 18 -20l4 -50q1 -13 -5 -20.5t-22 -13.5q-66 -26 -151 -26q-133 0 -207 73t-74 200q0 118 71.5 192t185.5 74q120 0 180.5 -73.5t60.5 -199.5zM181 307h229q-2 56 -30.5 88.5t-78.5 32.5 q-51 0 -83 -33t-37 -88zM375 724l69 -108q6 -9 6 -16q0 -15 -21 -15h-40q-30 0 -51 26l-48 60l-49 -60q-21 -26 -51 -26h-40q-21 0 -21 14q0 7 6 16l70 109q19 31 55 31h61q35 0 54 -31z" />
<glyph unicode="&#xeb;" horiz-adv-x="577" d="M539 254q0 -34 -39 -34h-319q5 -60 48 -96.5t110 -36.5q48 0 91 15.5t48 15.5q17 0 18 -20l4 -50q1 -13 -5 -20.5t-22 -13.5q-66 -26 -151 -26q-133 0 -207 73t-74 200q0 118 71.5 192t185.5 74q120 0 180.5 -73.5t60.5 -199.5zM181 307h229q-2 56 -30.5 88.5t-78.5 32.5 q-51 0 -83 -33t-37 -88zM120 669q0 29 20 49.5t49 20.5t49.5 -20.5t20.5 -49.5q0 -28 -20.5 -48.5t-49.5 -20.5t-49 20t-20 49zM319 669q0 29 20 49.5t49 20.5t49.5 -20.5t20.5 -49.5t-20.5 -49t-49.5 -20q-28 0 -48.5 20t-20.5 49z" />
<glyph unicode="&#xec;" horiz-adv-x="280" d="M72 32v451q0 32 30 32h76q30 0 30 -32v-451q0 -32 -30 -32h-76q-30 0 -30 32zM194 724l66 -106q6 -7 6 -17q0 -16 -24 -16h-39q-18 0 -28 4.5t-24 20.5l-94 103q-11 13 -11 24q0 18 21 18h73q32 0 54 -31z" />
<glyph unicode="&#xed;" horiz-adv-x="280" d="M72 32v451q0 32 30 32h76q30 0 30 -32v-451q0 -32 -30 -32h-76q-30 0 -30 32zM19 618l67 106q20 31 54 31h73q21 0 21 -18q0 -12 -12 -24l-94 -103q-13 -15 -23.5 -20t-28.5 -5h-38q-24 0 -24 16q0 9 5 17z" />
<glyph unicode="&#xee;" horiz-adv-x="280" d="M72 32v451q0 32 30 32h76q30 0 30 -32v-451q0 -32 -30 -32h-76q-30 0 -30 32zM226 724l69 -108q6 -9 6 -16q0 -15 -21 -15h-40q-30 0 -51 26l-48 60l-49 -60q-21 -26 -51 -26h-40q-21 0 -21 14q0 7 6 16l70 109q19 31 55 31h61q35 0 54 -31z" />
<glyph unicode="&#xef;" horiz-adv-x="280" d="M72 32v451q0 32 30 32h76q30 0 30 -32v-451q0 -32 -30 -32h-76q-30 0 -30 32zM-29 669q0 29 20 49.5t49 20.5t49.5 -20.5t20.5 -49.5q0 -28 -20.5 -48.5t-49.5 -20.5q-28 0 -48.5 20t-20.5 49zM170 669q0 29 20 49.5t49 20.5t49.5 -20.5t20.5 -49.5t-20.5 -49t-49.5 -20 t-49 20t-20 49z" />
<glyph unicode="&#xf0;" d="M41 257q0 126 80 198t199 72q31 0 59 -7q-40 55 -113 102l-90 -58q-10 -7 -18 -7q-14 0 -24 18l-10 15q-8 11 -8 21q0 11 15 22l52 33q-42 18 -62 25q-16 5 -16 20q0 6 8 20l30 47q10 14 30 14q11 0 25 -4q51 -17 106 -44l81 52q8 5 16 5q14 0 24 -17l9 -14q8 -11 8 -22 q0 -14 -13 -21l-47 -30q100 -72 158 -176t58 -235q0 -150 -79.5 -224t-198.5 -74t-199 72t-80 197zM183 257q0 -66 36.5 -114.5t100.5 -48.5q63 0 99.5 48.5t36.5 114.5q0 67 -36.5 115.5t-99.5 48.5q-64 0 -100.5 -48.5t-36.5 -115.5z" />
<glyph unicode="&#xf1;" horiz-adv-x="637" d="M175 0h-76q-29 0 -29 32v451q0 32 29 32h72q31 0 31 -32v-38h6q58 82 166 82q101 0 147 -59.5t46 -153.5v-282q0 -32 -30 -32h-76q-30 0 -30 32v233q0 75 -22 111.5t-74 36.5q-62 0 -95.5 -47.5t-33.5 -129.5v-204q0 -32 -31 -32zM440 731h27q23 0 23 -26 q0 -47 -26.5 -78.5t-77.5 -31.5q-32 0 -75.5 20t-56.5 20q-23 0 -29 -23q-7 -20 -30 -20h-27q-24 0 -24 27q0 46 27 77.5t78 31.5q31 0 74 -20t57 -20q21 0 30 24q5 19 30 19z" />
<glyph unicode="&#xf2;" d="M183 257q0 -66 36.5 -114.5t100.5 -48.5q63 0 99.5 48.5t36.5 114.5q0 67 -36.5 115.5t-99.5 48.5q-64 0 -100.5 -48.5t-36.5 -115.5zM41 257q0 126 80 198t199 72q118 0 198 -72t80 -198q0 -125 -80 -197t-198 -72q-119 0 -199 72t-80 197zM373 724l67 -106q5 -8 5 -17 q0 -16 -24 -16h-38q-18 0 -28.5 5t-23.5 20l-94 103q-12 12 -12 24q0 18 21 18h73q34 0 54 -31z" />
<glyph unicode="&#xf3;" d="M183 257q0 -66 36.5 -114.5t100.5 -48.5q63 0 99.5 48.5t36.5 114.5q0 67 -36.5 115.5t-99.5 48.5q-64 0 -100.5 -48.5t-36.5 -115.5zM41 257q0 126 80 198t199 72q118 0 198 -72t80 -198q0 -125 -80 -197t-198 -72q-119 0 -199 72t-80 197zM198 618l67 106q20 31 54 31 h73q21 0 21 -18q0 -12 -12 -24l-94 -103q-13 -15 -23.5 -20t-28.5 -5h-38q-24 0 -24 16q0 9 5 17z" />
<glyph unicode="&#xf4;" d="M183 257q0 -66 36.5 -114.5t100.5 -48.5q63 0 99.5 48.5t36.5 114.5q0 67 -36.5 115.5t-99.5 48.5q-64 0 -100.5 -48.5t-36.5 -115.5zM41 257q0 126 80 198t199 72q118 0 198 -72t80 -198q0 -125 -80 -197t-198 -72q-119 0 -199 72t-80 197zM405 724l69 -108q6 -9 6 -16 q0 -15 -21 -15h-40q-30 0 -51 26l-48 60l-49 -60q-21 -26 -51 -26h-40q-21 0 -21 14q0 7 6 16l70 109q19 31 55 31h61q35 0 54 -31z" />
<glyph unicode="&#xf5;" d="M183 257q0 -66 36.5 -114.5t100.5 -48.5q63 0 99.5 48.5t36.5 114.5q0 67 -36.5 115.5t-99.5 48.5q-64 0 -100.5 -48.5t-36.5 -115.5zM41 257q0 126 80 198t199 72q118 0 198 -72t80 -198q0 -125 -80 -197t-198 -72q-119 0 -199 72t-80 197zM441 731h27q23 0 23 -26 q0 -47 -26.5 -78.5t-77.5 -31.5q-32 0 -75.5 20t-56.5 20q-23 0 -29 -23q-7 -20 -30 -20h-27q-24 0 -24 27q0 46 27 77.5t78 31.5q32 0 75 -20t56 -20q21 0 30 24q5 19 30 19z" />
<glyph unicode="&#xf6;" d="M183 257q0 -66 36.5 -114.5t100.5 -48.5q63 0 99.5 48.5t36.5 114.5q0 67 -36.5 115.5t-99.5 48.5q-64 0 -100.5 -48.5t-36.5 -115.5zM41 257q0 126 80 198t199 72q118 0 198 -72t80 -198q0 -125 -80 -197t-198 -72q-119 0 -199 72t-80 197zM150 669q0 29 20 49.5 t49 20.5t49.5 -20.5t20.5 -49.5q0 -28 -20.5 -48.5t-49.5 -20.5t-49 20t-20 49zM349 669q0 29 20 49.5t49 20.5t49.5 -20.5t20.5 -49.5t-20.5 -49t-49.5 -20q-28 0 -48.5 20t-20.5 49z" />
<glyph unicode="&#xf7;" horiz-adv-x="600" d="M384 460q0 -35 -25 -59.5t-60 -24.5t-60 25t-25 59q0 35 25 60t60 25t60 -25t25 -60zM553 274v-43q0 -14 -9 -23t-24 -9h-440q-15 0 -24 9t-9 23v43q0 14 9 23t24 9h440q15 0 24 -9t9 -23zM384 45q0 -35 -25 -60t-60 -25t-60 25t-25 60t25 60t60 25t60 -25t25 -60z" />
<glyph unicode="&#xf8;" d="M84 24l33 40q-76 73 -76 193q0 126 80 198t199 72q87 0 153 -39l36 43q15 20 31 4l14 -11q18 -15 2 -33l-34 -40q76 -74 76 -194q0 -125 -80 -197t-198 -72q-86 0 -153 38l-36 -42q-16 -19 -32 -4l-14 11q-17 15 -1 33zM183 257q0 -51 23 -89l189 229q-32 24 -75 24 q-64 0 -100.5 -48.5t-36.5 -115.5zM456 257q0 50 -23 90l-188 -230q31 -23 75 -23q63 0 99.5 48.5t36.5 114.5z" />
<glyph unicode="&#xf9;" horiz-adv-x="637" d="M206 483v-235q0 -73 21.5 -109.5t74.5 -36.5q62 0 95.5 48.5t33.5 131.5v201q0 32 30 32h76q30 0 30 -32v-451q0 -32 -30 -32h-72q-30 0 -30 32v43h-6q-57 -87 -167 -87q-192 0 -192 222v273q0 32 29 32h76q31 0 31 -32zM371 724l67 -106q5 -8 5 -17q0 -16 -24 -16h-38 q-18 0 -28.5 5t-23.5 20l-94 103q-12 12 -12 24q0 18 21 18h73q34 0 54 -31z" />
<glyph unicode="&#xfa;" horiz-adv-x="637" d="M206 483v-235q0 -73 21.5 -109.5t74.5 -36.5q62 0 95.5 48.5t33.5 131.5v201q0 32 30 32h76q30 0 30 -32v-451q0 -32 -30 -32h-72q-30 0 -30 32v43h-6q-57 -87 -167 -87q-192 0 -192 222v273q0 32 29 32h76q31 0 31 -32zM196 618l67 106q20 31 54 31h73q21 0 21 -18 q0 -12 -12 -24l-94 -103q-13 -15 -23.5 -20t-28.5 -5h-38q-24 0 -24 16q0 9 5 17z" />
<glyph unicode="&#xfb;" horiz-adv-x="637" d="M206 483v-235q0 -73 21.5 -109.5t74.5 -36.5q62 0 95.5 48.5t33.5 131.5v201q0 32 30 32h76q30 0 30 -32v-451q0 -32 -30 -32h-72q-30 0 -30 32v43h-6q-57 -87 -167 -87q-192 0 -192 222v273q0 32 29 32h76q31 0 31 -32zM404 724l69 -108q6 -9 6 -16q0 -15 -21 -15h-40 q-30 0 -51 26l-48 60l-49 -60q-21 -26 -51 -26h-40q-21 0 -21 14q0 7 6 16l70 109q19 31 55 31h61q35 0 54 -31z" />
<glyph unicode="&#xfc;" horiz-adv-x="637" d="M206 483v-235q0 -73 21.5 -109.5t74.5 -36.5q62 0 95.5 48.5t33.5 131.5v201q0 32 30 32h76q30 0 30 -32v-451q0 -32 -30 -32h-72q-30 0 -30 32v43h-6q-57 -87 -167 -87q-192 0 -192 222v273q0 32 29 32h76q31 0 31 -32zM149 669q0 29 20 49.5t49 20.5t49.5 -20.5 t20.5 -49.5q0 -28 -20.5 -48.5t-49.5 -20.5q-28 0 -48.5 20t-20.5 49zM348 669q0 29 20 49.5t49 20.5t49.5 -20.5t20.5 -49.5t-20.5 -49t-49.5 -20t-49 20t-20 49z" />
<glyph unicode="&#xfd;" horiz-adv-x="554" d="M168 484l111 -340h6l110 340q10 31 42 31h74q24 0 24 -18l-5 -18l-269 -719q-12 -31 -42 -31h-74q-24 0 -24 18q0 6 5 18l90 216l-191 498q-5 10 -5 18q0 18 24 18h82q32 0 42 -31zM155 618l67 106q20 31 54 31h73q21 0 21 -18q0 -12 -12 -24l-94 -103q-13 -15 -23.5 -20 t-28.5 -5h-38q-24 0 -24 16q0 9 5 17z" />
<glyph unicode="&#xfe;" d="M70 -227v968q0 33 30 33h76q30 0 30 -33v-293h2q60 79 167 79q110 0 167 -78t57 -198q0 -108 -59.5 -185.5t-165.5 -77.5q-109 0 -165 74h-3v-289q0 -32 -31 -32h-76q-29 0 -29 32zM335 419q-59 0 -94 -46t-35 -111q0 -77 34.5 -121.5t92.5 -44.5q59 0 91.5 45.5 t32.5 113.5q0 69 -31.5 116.5t-90.5 47.5z" />
<glyph unicode="&#xff;" horiz-adv-x="554" d="M168 484l111 -340h6l110 340q10 31 42 31h74q24 0 24 -18l-5 -18l-269 -719q-12 -31 -42 -31h-74q-24 0 -24 18q0 6 5 18l90 216l-191 498q-5 10 -5 18q0 18 24 18h82q32 0 42 -31zM109 669q0 29 20 49.5t49 20.5t49.5 -20.5t20.5 -49.5q0 -28 -20.5 -48.5t-49.5 -20.5 q-28 0 -48.5 20t-20.5 49zM308 669q0 29 20 49.5t49 20.5t49.5 -20.5t20.5 -49.5t-20.5 -49t-49.5 -20t-49 20t-20 49z" />
<glyph unicode="&#x131;" horiz-adv-x="276" d="M70 32v451q0 32 30 32h76q30 0 30 -32v-451q0 -32 -30 -32h-76q-30 0 -30 32z" />
<glyph unicode="&#x141;" horiz-adv-x="538" d="M82 33v187l-17 -9q-18 -11 -30 -11q-16 0 -16 26v25q0 24 6 33t30 23l27 15v363q0 34 33 34h77q32 0 32 -34v-285l143 79q20 11 29 11q17 0 17 -26v-25q0 -25 -6 -33.5t-31 -22.5l-152 -84v-181h255q32 0 32 -34v-51q0 -33 -32 -33h-364q-33 0 -33 33z" />
<glyph unicode="&#x142;" horiz-adv-x="333" d="M43 367l27 15v359q0 33 29 33h76q31 0 31 -33v-284l49 27q20 11 29 11q17 0 17 -26v-25q0 -25 -6 -33.5t-31 -22.5l-58 -32v-152q0 -49 12.5 -74.5t44.5 -25.5q10 0 21.5 2t16.5 2q21 0 21 -26v-52q0 -20 -21 -27q-29 -10 -71 -10q-41 0 -70.5 12.5t-46.5 31.5t-27 50.5 t-13 61.5t-3 71v60l-17 -9q-18 -11 -30 -11q-16 0 -16 26v25q0 24 6 33t30 23z" />
<glyph unicode="&#x152;" horiz-adv-x="988" d="M568 719h333q32 0 32 -34v-51q0 -34 -32 -34h-260v-169h233q32 0 32 -34v-50q0 -34 -32 -34h-233v-195h260q32 0 32 -34v-51q0 -33 -32 -33h-333l-177 -12q-163 0 -253.5 98t-90.5 273q0 174 90.5 273t253.5 99q31 0 90.5 -6.5t86.5 -5.5zM391 105q61 0 108 21v466 q-47 21 -108 21q-98 0 -148 -73t-50 -181q0 -109 50 -181.5t148 -72.5z" />
<glyph unicode="&#x153;" horiz-adv-x="993" d="M41 257q0 126 80 198t199 72q127 0 205 -81q70 81 189 81q120 0 180.5 -73.5t60.5 -199.5q0 -34 -39 -34h-319q5 -60 48 -96.5t110 -36.5q48 0 91 15.5t48 15.5q17 0 18 -20l4 -50q1 -13 -5 -20.5t-22 -13.5q-66 -26 -151 -26q-141 0 -212 82q-77 -82 -206 -82 q-119 0 -199 72t-80 197zM183 257q0 -66 36.5 -114.5t100.5 -48.5q63 0 99.5 48.5t36.5 114.5q0 67 -36.5 115.5t-99.5 48.5q-64 0 -100.5 -48.5t-36.5 -115.5zM597 307h229q-2 56 -30.5 88.5t-78.5 32.5q-51 0 -83 -33t-37 -88z" />
<glyph unicode="&#x160;" horiz-adv-x="544" d="M234 110q43 0 75 22.5t32 66.5q0 22 -9 39t-31.5 32.5t-38.5 24.5t-52 26q-81 40 -124.5 86.5t-43.5 122.5q0 98 67 149.5t173 51.5q86 0 154 -31q17 -8 21 -16t1 -25l-13 -60q-5 -22 -23 -22q-8 0 -59 19q-41 13 -81 13q-41 0 -67 -19.5t-26 -54.5q0 -14 6.5 -26.5 t14 -21t24.5 -20t26.5 -16.5t32.5 -17t31 -16q87 -45 127 -90.5t40 -125.5q0 -56 -23 -99t-61 -67t-81.5 -36t-89.5 -12q-95 0 -167 34q-26 13 -23 42l9 63q3 24 23 24q8 0 54 -19q55 -22 102 -22zM195 795l-69 108q-6 10 -6 16q0 15 22 15h40q28 0 50 -27l49 -60l49 60 q22 27 51 27h39q22 0 22 -14q0 -6 -7 -17l-70 -108q-19 -31 -54 -31h-62q-35 0 -54 31z" />
<glyph unicode="&#x161;" horiz-adv-x="457" d="M365 503q15 -6 19 -12.5t1 -19.5l-11 -49q-4 -19 -22 -19q-6 0 -39.5 12t-67.5 12q-32 0 -51 -11.5t-19 -31.5q0 -22 23.5 -37t75.5 -37q12 -4 18 -7q65 -28 93.5 -63.5t28.5 -90.5q0 -82 -61 -121.5t-151 -39.5q-81 0 -135 27q-23 10 -20 35l6 48q4 24 24 24 q3 0 41.5 -17t79.5 -17q82 0 82 53q0 24 -23.5 39t-91.5 42q-61 25 -91.5 60.5t-30.5 92.5q0 75 54.5 113.5t142.5 38.5q68 0 125 -24zM144 616l-69 108q-6 10 -6 16q0 15 22 15h40q28 0 50 -27l49 -60l49 60q22 27 51 27h39q22 0 22 -14q0 -7 -7 -17l-70 -108 q-19 -31 -54 -31h-62q-35 0 -54 31z" />
<glyph unicode="&#x178;" horiz-adv-x="699" d="M185 691l163 -271l164 271q10 17 18 22.5t27 5.5h100q22 0 22 -18q0 -7 -7 -18l-253 -398v-252q0 -33 -32 -33h-76q-34 0 -34 33v257l-251 393q-6 12 -6 18q0 18 22 18h98q19 0 27 -5.5t18 -22.5zM180 872q0 29 20 49.5t49 20.5t49.5 -20.5t20.5 -49.5q0 -28 -20.5 -48.5 t-49.5 -20.5t-49 20.5t-20 48.5zM379 872q0 29 20 49.5t49 20.5t49.5 -20.5t20.5 -49.5t-20.5 -49t-49.5 -20q-28 0 -48.5 20.5t-20.5 48.5z" />
<glyph unicode="&#x17d;" horiz-adv-x="581" d="M41 629v56q0 34 33 34h430q32 0 32 -34v-55q0 -28 -21 -58l-319 -449h315q33 0 33 -33v-56q0 -34 -33 -34h-448q-32 0 -32 34v54q0 30 20 58l319 449h-296q-33 0 -33 34zM208 795l-69 108q-6 10 -6 16q0 15 22 15h40q28 0 50 -27l49 -60l49 60q22 27 51 27h39 q22 0 22 -14q0 -6 -7 -17l-70 -108q-19 -31 -54 -31h-62q-35 0 -54 31z" />
<glyph unicode="&#x17e;" horiz-adv-x="503" d="M82 515h343q30 0 30 -32v-41q0 -28 -15 -47l-247 -287h244q30 0 30 -33v-43q0 -32 -30 -32h-370q-31 0 -31 32v41q0 26 13 43l246 291h-213q-31 0 -31 33v43q0 32 31 32zM166 616l-69 108q-6 10 -6 16q0 15 22 15h40q28 0 50 -27l49 -60l49 60q22 27 51 27h39 q22 0 22 -14q0 -7 -7 -17l-70 -108q-19 -31 -54 -31h-62q-35 0 -54 31z" />
<glyph unicode="&#x192;" horiz-adv-x="551" d="M369 523l-20 -103h81q30 0 30 -33v-38q0 -33 -30 -33h-101l-74 -393q-18 -94 -65.5 -144.5t-151.5 -50.5q-32 0 -46 7q-18 7 -13 30l13 51q5 21 19 21q3 0 10.5 -1t12.5 -1q66 0 85 101l71 380h-70q-31 0 -31 33v38q0 33 31 33h90l22 116q18 93 68.5 144t154.5 51 q43 0 65 -9q19 -6 13 -30l-13 -51q-5 -22 -22 -22q-7 0 -19.5 2.5t-24.5 2.5q-66 0 -85 -101z" />
<glyph unicode="&#x2c6;" horiz-adv-x="288" d="M229 724l69 -108q6 -9 6 -16q0 -15 -21 -15h-40q-30 0 -51 26l-48 60l-49 -60q-21 -26 -51 -26h-40q-21 0 -21 14q0 7 6 16l70 109q19 31 55 31h61q35 0 54 -31z" />
<glyph unicode="&#x2c7;" horiz-adv-x="288" d="M57 616l-69 108q-6 10 -6 16q0 15 22 15h40q28 0 50 -27l49 -60l49 60q22 27 51 27h39q22 0 22 -14q0 -7 -7 -17l-70 -108q-19 -31 -54 -31h-62q-35 0 -54 31z" />
<glyph unicode="&#x2d8;" horiz-adv-x="297" d="M315 705q0 -35 -21 -70q-39 -62 -145 -62t-146 62q-20 33 -20 70q0 26 27 26h25q28 0 32 -21q14 -54 82 -54q66 0 82 54q4 21 31 21h26q27 0 27 -26z" />
<glyph unicode="&#x2d9;" horiz-adv-x="317" d="M89 669q0 29 20 49.5t49 20.5t49.5 -20.5t20.5 -49.5q0 -28 -20.5 -48.5t-49.5 -20.5q-28 0 -48.5 20t-20.5 49z" />
<glyph unicode="&#x2da;" horiz-adv-x="308" d="M47 670q0 46 30 77t76 31q47 0 77.5 -31t30.5 -77q0 -45 -30.5 -76t-77.5 -31q-46 0 -76 31t-30 76zM102 670q0 -22 14.5 -37t36.5 -15q23 0 38 15t15 37q0 23 -15 38t-38 15q-22 0 -36.5 -15t-14.5 -38z" />
<glyph unicode="&#x2db;" horiz-adv-x="301" d="M177 3h64q-41 -23 -71.5 -57.5t-30.5 -71.5q0 -21 13.5 -35t39.5 -14q19 0 38.5 7.5t23.5 7.5q11 0 15 -16l4 -12q2 -6 2 -10q0 -8 -15 -16q-34 -14 -81 -14q-52 0 -88 23.5t-36 72.5q0 41 38 80.5t84 54.5z" />
<glyph unicode="&#x2dc;" horiz-adv-x="298" d="M272 731h27q23 0 23 -26q0 -47 -26.5 -78.5t-77.5 -31.5q-32 0 -75.5 20t-56.5 20q-23 0 -29 -23q-7 -20 -30 -20h-27q-24 0 -24 27q0 46 27 77.5t78 31.5q31 0 74 -20t57 -20q21 0 30 24q5 19 30 19z" />
<glyph unicode="&#x2dd;" horiz-adv-x="325" d="M-46 618l66 106q22 31 54 31h73q21 0 21 -18q0 -11 -11 -24l-94 -103q-14 -16 -24 -20.5t-28 -4.5h-39q-24 0 -24 16q0 9 6 17zM161 618l66 106q22 31 54 31h73q21 0 21 -18q0 -11 -11 -24l-94 -103q-14 -16 -24 -20.5t-28 -4.5h-39q-24 0 -24 16q0 9 6 17z" />
<glyph unicode="&#x2000;" horiz-adv-x="490" />
<glyph unicode="&#x2001;" horiz-adv-x="981" />
<glyph unicode="&#x2002;" horiz-adv-x="490" />
<glyph unicode="&#x2003;" horiz-adv-x="981" />
<glyph unicode="&#x2004;" horiz-adv-x="327" />
<glyph unicode="&#x2005;" horiz-adv-x="245" />
<glyph unicode="&#x2006;" horiz-adv-x="163" />
<glyph unicode="&#x2007;" horiz-adv-x="163" />
<glyph unicode="&#x2008;" horiz-adv-x="122" />
<glyph unicode="&#x2009;" horiz-adv-x="196" />
<glyph unicode="&#x200a;" horiz-adv-x="54" />
<glyph unicode="&#x2010;" horiz-adv-x="371" d="M294 210h-217q-31 0 -31 33v52q0 32 31 32h217q29 0 29 -32v-52q0 -33 -29 -33z" />
<glyph unicode="&#x2011;" horiz-adv-x="371" d="M294 210h-217q-31 0 -31 33v52q0 32 31 32h217q29 0 29 -32v-52q0 -33 -29 -33z" />
<glyph unicode="&#x2012;" horiz-adv-x="371" d="M294 210h-217q-31 0 -31 33v52q0 32 31 32h217q29 0 29 -32v-52q0 -33 -29 -33z" />
<glyph unicode="&#x2013;" horiz-adv-x="621" d="M536 195h-451q-30 0 -30 32v52q0 33 30 33h451q30 0 30 -33v-52q0 -32 -30 -32z" />
<glyph unicode="&#x2014;" horiz-adv-x="1133" d="M1048 195h-963q-30 0 -30 32v52q0 33 30 33h963q30 0 30 -33v-52q0 -32 -30 -32z" />
<glyph unicode="&#x2018;" horiz-adv-x="295" d="M229 530q0 -33 -23 -56t-57 -23q-32 0 -56.5 22.5t-24.5 69.5q0 50 32 97t77 71q12 7 21 7q12 0 12 -10q0 -8 -8 -17q-40 -51 -45 -83q31 -3 51.5 -25t20.5 -53z" />
<glyph unicode="&#x2019;" horiz-adv-x="295" d="M73 640q0 33 23 56t57 23q32 0 56.5 -22.5t24.5 -69.5q0 -51 -32 -98t-77 -71q-16 -7 -21 -7q-12 0 -12 11q0 8 8 16q39 50 45 84q-31 2 -51.5 24.5t-20.5 53.5z" />
<glyph unicode="&#x201a;" horiz-adv-x="292" d="M68 69q0 33 22.5 56t56.5 23q32 0 57 -22.5t25 -69.5q0 -50 -32 -97t-77 -71q-12 -7 -21 -7q-12 0 -12 10q0 7 7 17q39 48 46 83q-31 3 -51.5 25t-20.5 53z" />
<glyph unicode="&#x201c;" horiz-adv-x="510" d="M437 530q0 -33 -23 -56t-57 -23q-32 0 -56.5 22.5t-24.5 69.5q0 50 32 97t77 71q12 7 21 7q12 0 12 -10q0 -8 -8 -17q-40 -51 -45 -83q31 -3 51.5 -25t20.5 -53zM229 530q0 -33 -23 -56t-57 -23q-32 0 -56.5 22.5t-24.5 69.5q0 50 32 97t77 71q12 7 21 7q12 0 12 -10 q0 -8 -8 -17q-40 -51 -45 -83q31 -3 51.5 -25t20.5 -53z" />
<glyph unicode="&#x201d;" horiz-adv-x="511" d="M73 640q0 33 23 56t57 23q32 0 56.5 -22.5t24.5 -69.5q0 -51 -32 -98t-77 -71q-16 -7 -21 -7q-12 0 -12 11q0 8 8 16q39 50 45 84q-31 2 -51.5 24.5t-20.5 53.5zM281 640q0 33 23 56t57 23q32 0 56.5 -22.5t24.5 -69.5q0 -51 -32 -98t-77 -71q-16 -7 -21 -7q-12 0 -12 11 q0 8 8 16q39 50 45 84q-31 2 -51.5 24.5t-20.5 53.5z" />
<glyph unicode="&#x201e;" horiz-adv-x="507" d="M68 69q0 33 22.5 56t56.5 23q32 0 57 -22.5t25 -69.5q0 -50 -32 -97t-77 -71q-12 -7 -21 -7q-12 0 -12 10q0 7 7 17q39 48 46 83q-31 3 -51.5 25t-20.5 53zM276 69q0 33 22.5 56t56.5 23q32 0 57 -22.5t25 -69.5q0 -50 -32 -97t-77 -71q-12 -7 -21 -7q-12 0 -12 10 q0 7 7 17q39 48 46 83q-31 3 -51.5 25t-20.5 53z" />
<glyph unicode="&#x2020;" horiz-adv-x="551" d="M519 493v-50q0 -33 -32 -33h-144v-377q0 -33 -32 -33h-68q-33 0 -33 33v377h-144q-34 0 -34 33v50q0 34 34 34h144v136q0 34 33 34h68q32 0 32 -34v-136h144q32 0 32 -34z" />
<glyph unicode="&#x2021;" horiz-adv-x="550" d="M64 272h144v153h-142q-34 0 -34 33v50q0 34 34 34h142v121q0 34 34 34h67q32 0 32 -34v-121h144q32 0 32 -34v-50q0 -33 -32 -33h-144v-153h143q33 0 33 -34v-50q0 -34 -33 -34h-143v-121q0 -33 -32 -33h-67q-34 0 -34 33v121h-144q-32 0 -32 34v50q0 34 32 34z" />
<glyph unicode="&#x2022;" horiz-adv-x="515" d="M80 347q0 74 51.5 125t125.5 51t126 -51.5t52 -124.5t-52 -123.5t-126 -50.5t-125.5 50.5t-51.5 123.5z" />
<glyph unicode="&#x2026;" horiz-adv-x="954" d="M888 68q0 -34 -23.5 -57t-57.5 -23q-33 0 -56 23t-23 57q0 33 23 56.5t56 23.5q34 0 57.5 -23.5t23.5 -56.5zM558 68q0 -34 -23.5 -57t-57.5 -23q-33 0 -56 23t-23 57q0 33 23 56.5t56 23.5q34 0 57.5 -23.5t23.5 -56.5zM228 68q0 -34 -23.5 -57t-57.5 -23q-33 0 -56 23 t-23 57q0 33 23 56.5t56 23.5q34 0 57.5 -23.5t23.5 -56.5z" />
<glyph unicode="&#x202f;" horiz-adv-x="196" />
<glyph unicode="&#x2030;" horiz-adv-x="1307" d="M647 198q0 -127 59 -127t59 127q0 126 -59 126t-59 -126zM545 197q0 210 161 210t161 -210t-161 -210t-161 210zM212 13l414 706q12 22 39 22h34q20 0 20 -16q0 -8 -7 -20l-414 -707q-12 -21 -39 -21h-34q-20 0 -20 15q0 8 7 21zM158 521q0 -126 59 -126t59 126 q0 127 -59 127t-59 -127zM56 520q0 211 161 211t161 -211q0 -209 -161 -209t-161 209zM1030 198q0 -127 60 -127q58 0 58 127q0 126 -58 126q-60 0 -60 -126zM928 197q0 210 162 210q160 0 160 -210t-160 -210q-162 0 -162 210z" />
<glyph unicode="&#x2039;" horiz-adv-x="392" d="M72 269q0 12 10 27l113 147q21 28 52 28h59q19 0 19 -17q0 -9 -13 -27l-117 -158l117 -158q13 -18 13 -27q0 -17 -19 -17h-59q-31 0 -52 28l-113 147q-10 15 -10 27z" />
<glyph unicode="&#x203a;" horiz-adv-x="397" d="M325 269q0 -12 -10 -27l-113 -147q-21 -28 -52 -28h-59q-19 0 -19 17q0 9 13 27l117 158l-117 158q-13 18 -13 27q0 17 19 17h59q31 0 52 -28l113 -147q10 -15 10 -27z" />
<glyph unicode="&#x2044;" horiz-adv-x="511" d="M8 13l414 706q13 22 39 22h33q20 0 20 -16q0 -8 -7 -20l-414 -707q-13 -21 -39 -21h-33q-20 0 -20 15q0 8 7 21z" />
<glyph unicode="&#x205f;" horiz-adv-x="245" />
<glyph unicode="&#x20ac;" horiz-adv-x="708" d="M539 274l-5 -27q-4 -19 -10.5 -25t-23.5 -6h-187q17 -27 35 -44q69 -67 174 -67q47 0 85 10.5t42 10.5q21 0 22 -22l3 -62q1 -17 -3 -24.5t-21 -12.5q-63 -17 -139 -17q-164 0 -266 92q-64 56 -92 136h-79q-33 0 -33 33v28q0 34 33 34h58q-2 15 -2 48q0 25 1 31h-57 q-33 0 -33 34v27q0 34 33 34h73q25 86 91 149q103 97 273 97q71 0 138 -20q23 -6 23 -25q0 -8 -2 -14l-14 -61q-4 -20 -20 -20q-4 0 -40 11t-79 11q-110 0 -176 -72q-25 -26 -38 -56h245q29 0 29 -23q0 -2 -2 -14l-5 -27q-4 -18 -11 -24.5t-23 -6.5h-258q-2 -11 -2 -33 q0 -23 3 -46h233q29 0 29 -24q0 -3 -2 -13z" />
<glyph unicode="&#x2122;" horiz-adv-x="1004" d="M644 320l-94 285v-285q0 -30 -28 -30h-34q-30 0 -30 30v368q0 31 30 31h88q28 0 38 -31l83 -258l83 258q10 31 38 31h86q30 0 30 -31v-368q0 -30 -30 -30h-33q-28 0 -28 30v285l-95 -285q-10 -30 -39 -30h-26q-29 0 -39 30zM72 719h284q27 0 27 -30v-24q0 -29 -27 -29 h-95v-317q0 -29 -26 -29h-41q-27 0 -27 29v317h-95q-27 0 -27 29v24q0 30 27 30z" />
<glyph unicode="&#x2212;" horiz-adv-x="600" d="M523 195h-446q-30 0 -30 32v52q0 33 30 33h446q30 0 30 -33v-52q0 -32 -30 -32z" />
<glyph unicode="&#x2264;" horiz-adv-x="647" d="M549 0h-451q-31 0 -31 32v47q0 33 31 33h451q30 0 30 -33v-47q0 -32 -30 -32zM539 558l-331 -142l331 -142q27 -12 33.5 -21t6.5 -36v-31q0 -28 -16 -28q-14 0 -34 10l-421 185q-27 12 -34 20t-7 31v27q0 21 7.5 29t33.5 19l421 185q20 10 34 10q16 0 16 -28v-31 q0 -27 -6.5 -35.5t-33.5 -21.5z" />
<glyph unicode="&#x2265;" horiz-adv-x="647" d="M549 0h-452q-30 0 -30 32v47q0 33 30 33h452q30 0 30 -33v-47q0 -32 -30 -32zM439 416l-331 142q-28 13 -34.5 22t-6.5 35v31q0 28 17 28q13 0 33 -10l422 -185q26 -11 33 -19t7 -29v-27q0 -23 -6.5 -31.5t-33.5 -19.5l-422 -185q-20 -10 -33 -10q-17 0 -17 28v31 q0 27 6.5 36t34.5 21z" />
<glyph unicode="&#x25ca;" horiz-adv-x="501" />
<glyph unicode="&#x25fc;" horiz-adv-x="515" d="M0 515h515v-515h-515v515z" />
<glyph horiz-adv-x="0" />
<glyph horiz-adv-x="275" />
</font>
</defs>
</svg>
