<?xml version="1.0" standalone="no"?>
<!DOCTYPE svg PUBLIC "-//W3C//DTD SVG 1.1//EN" "http://www.w3.org/Graphics/SVG/1.1/DTD/svg11.dtd" >
<svg xmlns="http://www.w3.org/2000/svg" xmlns:xlink="http://www.w3.org/1999/xlink" version="1.1">
<metadata></metadata>
<defs>
<font id="heinemann_specialroman" horiz-adv-x="286" >
<font-face units-per-em="1000" ascent="720" descent="-280" />
<missing-glyph horiz-adv-x="500" />
<glyph unicode="fi" horiz-adv-x="619" d="M3 461v20q0 29 26 29h96v92q0 184 169 184q30 0 51 -6q17 -4 16 -20l-2 -42q-1 -17 -16 -17q-8 0 -22.5 3t-26.5 3q-40 0 -58.5 -28t-18.5 -90v-79h114q25 0 25 -29v-20q0 -29 -25 -29h-114v-403q0 -29 -24 -29h-43q-26 0 -26 29v403h-95q-26 0 -26 29zM445 29v452 q0 29 26 29h43q24 0 24 -29v-452q0 -29 -24 -29h-43q-26 0 -26 29zM432 699q0 25 17 42.5t42 17.5t42.5 -17.5t17.5 -42.5t-17.5 -42t-42.5 -17t-42 17t-17 42z" />
<glyph unicode="fl" horiz-adv-x="652" d="M3 461v20q0 29 26 29h96v92q0 184 169 184q30 0 51 -6q17 -4 16 -20l-2 -42q-1 -17 -16 -17q-8 0 -22.5 3t-26.5 3q-40 0 -58.5 -28t-18.5 -90v-79h114q25 0 25 -29v-20q0 -29 -25 -29h-114v-403q0 -29 -24 -29h-43q-26 0 -26 29v403h-95q-26 0 -26 29zM445 189v556 q0 29 24 29h43q26 0 26 -29v-567q0 -100 67 -100q8 0 16 1t11 1q17 0 17 -19v-41q0 -17 -14 -21q-19 -6 -45 -6q-85 0 -115 50.5t-30 145.5z" />
<glyph unicode=" " />
<glyph unicode="!" horiz-adv-x="339" d="M102 55q0 29 19.5 48.5t47.5 19.5q29 0 48.5 -19.5t19.5 -48.5q0 -28 -19.5 -47.5t-48.5 -19.5t-48 19t-19 48zM186 201h-33q-26 0 -26 27l-11 402q-2 52 -2 63q0 26 26 26h59q26 0 26 -26q0 -11 -2 -63l-11 -402q0 -27 -26 -27z" />
<glyph unicode="&#x22;" horiz-adv-x="475" d="M161 483h-40q-26 0 -26 27l-4 120q-2 52 -2 63q0 26 26 26h52q26 0 26 -26q0 -11 -2 -63l-4 -120q0 -27 -26 -27zM357 483h-40q-26 0 -26 27l-4 120q-2 52 -2 63q0 26 26 26h52q26 0 26 -26q0 -11 -2 -63l-4 -120q0 -27 -26 -27z" />
<glyph unicode="#" horiz-adv-x="729" d="M608 213h-122l-28 -195q-3 -18 -25 -18h-40q-20 0 -20 18q0 8 2 20l25 175h-115l-28 -195q-3 -18 -25 -18h-40q-20 0 -20 18q0 8 2 20l25 175h-108q-26 0 -26 29v23q0 29 26 29h120l19 130h-109q-25 0 -25 29v23q0 29 25 29h121l29 196q3 18 25 18h40q20 0 20 -18 q0 -8 -2 -20l-26 -176h115l29 196q3 18 25 18h40q20 0 20 -18q0 -8 -2 -20l-26 -176h109q26 0 26 -29v-23q0 -29 -26 -29h-121l-19 -130h110q25 0 25 -29v-23q0 -29 -25 -29zM316 424l-19 -130h115l19 130h-115z" />
<glyph unicode="$" horiz-adv-x="552" d="M230 -70v58q-82 3 -138 32q-21 11 -20 32l6 53q2 17 15 17q6 0 13 -3t18.5 -9t22.5 -10q52 -19 98 -19q55 0 96.5 28t41.5 83q0 43 -32 73.5t-94 58.5q-45 20 -74 36.5t-58 42t-43.5 59t-14.5 76.5q0 79 44 126.5t119 60.5v69q0 29 26 29h37q24 0 24 -29v-64 q63 -5 114 -28q13 -7 16 -12t1 -18l-10 -49q-3 -16 -12 -16q-5 0 -11.5 2.5t-19.5 8t-27 9.5q-35 11 -79 11q-54 0 -87.5 -25t-33.5 -70q0 -40 32 -66.5t95 -56.5q97 -45 143 -92.5t46 -131.5t-47 -133t-120 -66v-67q0 -29 -24 -29h-37q-26 0 -26 29z" />
<glyph unicode="%" horiz-adv-x="900" d="M755 195q0 64 -17.5 99.5t-51.5 35.5q-70 0 -70 -135q0 -138 70 -138q69 0 69 138zM837 194q0 -39 -6.5 -72.5t-22 -65.5t-47 -50.5t-75.5 -18.5q-45 0 -76.5 18.5t-47 50.5t-22 65.5t-6.5 72.5t6.5 72.5t22 65t47 50t76.5 18.5q44 0 75.5 -18.5t47 -50t22 -65t6.5 -72.5 zM145 523q0 -64 17.5 -99.5t51.5 -35.5q70 0 70 135q0 138 -70 138q-69 0 -69 -138zM63 524q0 39 6.5 72.5t22 65.5t47 50.5t75.5 18.5q45 0 76.5 -18.5t47 -50.5t22 -65.5t6.5 -72.5t-6.5 -72.5t-22 -65t-47 -50t-76.5 -18.5q-44 0 -75.5 18.5t-47 50t-22 65t-6.5 72.5z M203 7l419 716q10 18 33 18h31q17 0 17 -13q0 -7 -6 -17l-419 -716q-10 -18 -33 -18h-31q-17 0 -17 13q0 6 6 17z" />
<glyph unicode="&#x26;" horiz-adv-x="744" d="M641 354q0 -116 -61 -215l95 -109q10 -13 6.5 -21.5t-16.5 -8.5h-63q-25 0 -44 22l-38 44q-86 -78 -209 -78q-105 0 -166.5 55t-61.5 146q0 75 41.5 122t115.5 85q-72 88 -72 166q0 77 51.5 123t131.5 46q76 0 126.5 -41t50.5 -119q0 -35 -12 -64t-37.5 -52t-48 -38.5 t-59.5 -35.5l146 -169q33 71 33 148q0 28 28 28h35q28 0 28 -34zM327 72q78 0 137 61l-174 204q-50 -30 -77 -63.5t-27 -79.5q0 -57 38.5 -89.5t102.5 -32.5zM261 560q0 -48 62 -123q55 28 84 56.5t29 70.5q0 40 -23 63.5t-66 23.5q-38 0 -62 -24t-24 -67z" />
<glyph unicode="'" horiz-adv-x="279" d="M161 483h-40q-26 0 -26 27l-4 120q-2 52 -2 63q0 26 26 26h52q26 0 26 -26q0 -11 -2 -63l-4 -120q0 -27 -26 -27z" />
<glyph unicode="(" horiz-adv-x="371" d="M194 309q0 -109 39 -223t100 -203q6 -9 6 -18q0 -17 -16 -17h-31q-28 0 -47 24q-150 195 -150 437t150 437q19 24 47 24h31q16 0 16 -17q0 -9 -6 -18q-61 -89 -100 -203t-39 -223z" />
<glyph unicode=")" horiz-adv-x="371" d="M177 309q0 109 -39 223t-100 203q-6 9 -6 18q0 17 16 17h31q28 0 47 -24q150 -195 150 -437t-150 -437q-19 -24 -47 -24h-31q-16 0 -16 17q0 9 6 18q61 89 100 203t39 223z" />
<glyph unicode="*" horiz-adv-x="492" d="M314 355l-68 113l-68 -113q-9 -14 -21 -14q-7 0 -15 5l-29 20q-12 8 -12 20q0 10 7 17l90 100l-132 27q-21 4 -21 22q0 3 2 11l11 33q6 19 19 19q6 0 12 -3l129 -52l-12 109q-2 18 -2 28q0 22 24 22h36q24 0 24 -22q0 -10 -2 -28l-12 -109l129 52q6 3 12 3q13 0 19 -19 l11 -33q2 -8 2 -11q0 -18 -21 -22l-132 -27l90 -100q7 -7 7 -17q0 -12 -12 -20l-29 -20q-8 -5 -15 -5q-12 0 -21 14z" />
<glyph unicode="+" horiz-adv-x="598" d="M342 26q0 -26 -29 -26h-28q-29 0 -29 26v183h-183q-26 0 -26 29v28q0 29 26 29h183v185q0 24 29 24h28q29 0 29 -24v-185h185q24 0 24 -29v-28q0 -29 -24 -29h-185v-183z" />
<glyph unicode="," d="M77 55q0 29 19.5 48.5t47.5 19.5q27 0 48 -19.5t21 -59.5q0 -43 -27 -84t-65 -61q-12 -6 -18 -6q-10 0 -10 9q0 6 6 14q33 42 39 72q-26 2 -43.5 21t-17.5 46z" />
<glyph unicode="-" horiz-adv-x="367" d="M288 226h-209q-26 0 -26 29v28q0 29 26 29h209q24 0 24 -29v-28q0 -29 -24 -29z" />
<glyph unicode="." horiz-adv-x="285" d="M77 55q0 29 19.5 48.5t47.5 19.5t48 -19.5t20 -48.5q0 -28 -19.5 -47.5t-48.5 -19.5q-28 0 -47.5 19t-19.5 48z" />
<glyph unicode="/" horiz-adv-x="322" d="M9 30l225 677q8 24 30 24h35q21 0 21 -17q0 -7 -6 -25l-225 -677q-8 -24 -30 -24h-35q-21 0 -21 17q0 7 6 25z" />
<glyph unicode="0" horiz-adv-x="608" d="M163 359q0 -132 35 -206t105 -74t105 74t35 206q0 133 -35 207t-105 74t-105 -74t-35 -207zM60 359q0 55 6 104t22.5 99.5t42.5 86.5t70 59t102 23t102 -23t70 -59t42.5 -86.5t22.5 -99.5t6 -104q0 -71 -10.5 -130.5t-35.5 -117t-75.5 -90.5t-121.5 -33t-121.5 33 t-75.5 90.5t-35.5 117t-10.5 130.5z" />
<glyph unicode="1" horiz-adv-x="307" d="M130 719h48q25 0 25 -29v-661q0 -29 -25 -29h-48q-26 0 -26 29v661q0 29 26 29z" />
<glyph unicode="2" horiz-adv-x="541" d="M212 636q-50 0 -98.5 -15t-53.5 -15q-11 0 -12 16l-3 50q-1 14 2.5 20t14.5 10q68 29 170 29q105 0 168.5 -55t63.5 -154q0 -110 -102 -228q-16 -18 -34.5 -38t-31.5 -33t-37 -35.5t-32.5 -30t-37.5 -34t-34 -30.5h295q25 0 25 -29v-35q0 -29 -25 -29h-404q-25 0 -25 29 v35q0 33 27 57q18 16 63.5 56.5t75.5 68.5t55 57q38 44 57 68.5t36 63t17 78.5q0 61 -39 92t-101 31z" />
<glyph unicode="3" horiz-adv-x="527" d="M185 72q78 0 129.5 30.5t51.5 93.5q0 65 -46 98t-127 33l-47 -1q-28 0 -28 27v34q0 27 29 27l40 -1q43 0 78 9.5t62 38t27 73.5q0 56 -38.5 81.5t-99.5 25.5q-50 0 -97.5 -18.5t-52.5 -18.5q-11 0 -12 16l-5 48q-1 13 2.5 19t14.5 11q71 33 162 33q104 0 168 -47t64 -143 q0 -67 -43 -111.5t-110 -57.5q161 -28 161 -180q0 -72 -42.5 -119.5t-103 -66t-136.5 -18.5q-83 0 -139 23q-11 5 -14.5 11t-2.5 19l5 48q1 16 15 16q5 0 45 -16.5t90 -16.5z" />
<glyph unicode="4" horiz-adv-x="583" d="M30 260l269 433q15 26 39 26h60q18 0 18 -14q0 -8 -7 -20l-279 -434h224v153q0 29 26 29h48q25 0 25 -29v-153h71q25 0 25 -29v-33q0 -29 -25 -29h-71v-131q0 -29 -25 -29h-48q-26 0 -26 29v131h-308q-25 0 -25 26v36q0 25 9 38z" />
<glyph unicode="5" horiz-adv-x="552" d="M105 719h340q25 0 25 -29v-35q0 -29 -25 -29h-266l-4 -185q43 11 90 11q101 0 166.5 -59t65.5 -163q0 -113 -76.5 -177.5t-198.5 -64.5q-83 0 -139 23q-11 5 -14.5 11t-2.5 19l3 48q1 16 15 16q5 0 46 -17t90 -16q77 1 123.5 40t46.5 109q0 74 -47 111t-127 37 q-40 0 -74 -8.5t-42 -8.5q-24 0 -24 32l4 306q0 29 25 29z" />
<glyph unicode="6" horiz-adv-x="584" d="M358 643q-52 0 -92 -23t-62.5 -61t-34 -82t-12.5 -92q67 67 159 67q97 0 157 -60t60 -166q0 -104 -62.5 -171t-168.5 -67q-246 0 -246 377q0 158 79.5 262t215.5 104q71 0 123 -20q11 -5 14.5 -11t2.5 -19l-5 -48q-1 -16 -12 -16q-7 0 -42.5 13t-73.5 13zM429 224 q0 58 -32.5 101t-87.5 43q-61 0 -97.5 -41.5t-36.5 -105.5q0 -63 33.5 -106t93.5 -43q61 0 94 43.5t33 108.5z" />
<glyph unicode="7" horiz-adv-x="503" d="M48 719h396q25 0 25 -29v-22q0 -23 -8 -41l-250 -601q-11 -26 -39 -26h-57q-19 0 -19 16q0 4 2 10l259 600h-309q-25 0 -25 29v35q0 29 25 29z" />
<glyph unicode="8" horiz-adv-x="597" d="M415 549q0 48 -35.5 72t-85.5 24q-47 0 -84.5 -24.5t-37.5 -69.5q0 -43 40 -75t108 -62q56 43 72 64q23 31 23 71zM437 185q1 32 -7 54t-34 41t-42 27t-63 28q-7 3 -11 5q-28 -17 -37.5 -22.5t-30 -21.5t-28.5 -28t-15.5 -31.5t-7.5 -41.5q0 -58 41.5 -89.5t102.5 -31.5 q55 0 92.5 30t39.5 81zM547 198q0 -101 -71.5 -155.5t-178.5 -54.5q-105 0 -175.5 51t-70.5 150q0 66 42.5 115t110.5 74v2q-135 48 -135 179q0 83 69.5 127.5t163.5 44.5q55 0 104 -17.5t83.5 -56.5t34.5 -93q0 -63 -31 -105t-96 -74v-2q150 -57 150 -185z" />
<glyph unicode="9" horiz-adv-x="614" d="M508 690v-661q0 -29 -25 -29h-48q-26 0 -26 29v293h-4q-50 -56 -142 -56q-100 0 -158.5 63t-58.5 164q0 100 58 169t162 69q89 0 143 -56v15q0 29 26 29h48q25 0 25 -29zM409 492q0 67 -33 111t-94 44q-59 0 -93 -44.5t-34 -107.5q0 -59 32.5 -101.5t88.5 -42.5 q61 0 97 37.5t36 103.5z" />
<glyph unicode=":" d="M77 55q0 29 19.5 48.5t47.5 19.5t48 -19.5t20 -48.5q0 -28 -19.5 -47.5t-48.5 -19.5q-28 0 -47.5 19t-19.5 48zM77 454q0 29 19.5 48.5t47.5 19.5t48 -20t20 -48t-19.5 -47.5t-48.5 -19.5q-28 0 -47.5 19.5t-19.5 47.5z" />
<glyph unicode=";" d="M77 454q0 29 19.5 48.5t47.5 19.5t48 -20t20 -48t-19.5 -47.5t-48.5 -19.5q-28 0 -47.5 19.5t-19.5 47.5zM77 55q0 29 19.5 48.5t47.5 19.5q27 0 48 -19.5t21 -59.5q0 -43 -27 -84t-65 -61q-12 -6 -18 -6q-10 0 -10 9q0 6 6 14q33 42 39 72q-26 2 -43.5 21t-17.5 46z" />
<glyph unicode="&#x3c;" horiz-adv-x="667" d="M558 414l-370 -159l370 -159q23 -10 28.5 -17.5t5.5 -30.5v-24q0 -24 -15 -24q-10 0 -28 8l-440 191q-23 10 -28.5 17.5t-5.5 28.5v25q0 18 6 25t28 16l440 191q18 8 28 8q15 0 15 -24v-24q0 -23 -5.5 -30.5t-28.5 -17.5z" />
<glyph unicode="=" horiz-adv-x="618" d="M542 316h-466q-26 0 -26 29v28q0 29 26 29h466q24 0 24 -29v-28q0 -29 -24 -29zM542 104h-466q-26 0 -26 29v28q0 29 26 29h466q24 0 24 -29v-28q0 -29 -24 -29z" />
<glyph unicode="&#x3e;" horiz-adv-x="667" d="M558 199l-440 -191q-18 -8 -28 -8q-15 0 -15 24v24q0 23 5.5 30.5t28.5 17.5l370 159l-370 159q-23 10 -28.5 17.5t-5.5 30.5v24q0 24 15 24q10 0 28 -8l440 -191q22 -9 28 -16t6 -25v-25q0 -21 -5.5 -28.5t-28.5 -17.5z" />
<glyph unicode="?" horiz-adv-x="506" d="M278 293v-62q0 -28 -25 -28h-43q-26 0 -26 29v84q0 35 23 56q11 11 40 36.5t45 41.5t31 43t15 54q0 44 -27.5 67.5t-78.5 23.5q-47 0 -95.5 -16t-54.5 -16q-11 0 -12 16l-3 50q-1 14 2.5 20t14.5 10q68 29 164 29q84 0 137 -46t53 -125q0 -69 -35 -118t-101 -104 q-24 -20 -24 -45zM163 55q0 29 19.5 48.5t47.5 19.5t48 -19.5t20 -48.5q0 -28 -19.5 -47.5t-48.5 -19.5q-28 0 -47.5 19t-19.5 48z" />
<glyph unicode="@" horiz-adv-x="851" d="M786 424q0 -110 -68.5 -186t-168.5 -76q-61 0 -66 52h-3q-35 -52 -102 -52q-56 0 -95 42t-39 107q0 54 23 106t69 88.5t104 36.5q66 0 102 -61h4l6 22q7 26 24 26h22q26 0 18 -31l-54 -210q-14 -54 18 -54q60 0 99 55t39 119q0 114 -76.5 181.5t-196.5 67.5 q-128 0 -214 -85.5t-86 -215.5q0 -136 81.5 -215t227.5 -79q131 0 220 69q1 1 4 3.5t4 3.5t4 3t5 2.5t4.5 2t4.5 1t4.5 -1t4.5 -2t4 -4.5l13 -17q13 -18 -1 -32q-49 -51 -122 -76.5t-154 -25.5q-173 0 -278.5 100.5t-105.5 269.5q0 159 105.5 265.5t274.5 106.5 q140 0 240.5 -84t100.5 -222zM509 388q0 33 -20.5 56.5t-49.5 23.5q-51 0 -85 -46.5t-34 -101.5q0 -38 20 -61t53 -23q51 0 82 48t34 104z" />
<glyph unicode="A" horiz-adv-x="724" d="M701 27q3 -6 3 -12q0 -15 -19 -15h-62q-22 0 -31 25l-61 155h-348l-60 -155q-9 -25 -31 -25h-54q-18 0 -18 15q0 6 4 14l272 663q10 27 35 27h63q22 0 32 -27zM497 269l-137 352h-4l-138 -352h279z" />
<glyph unicode="B" horiz-adv-x="624" d="M120 719h161q255 0 255 -181q0 -133 -142 -168q75 -10 117.5 -57t42.5 -121q0 -192 -277 -192h-157q-26 0 -26 29v661q0 29 26 29zM438 529q0 53 -36 80t-103 27h-106v-224h58q43 0 72.5 4t57.5 15.5t42.5 36t14.5 61.5zM449 200q0 129 -187 129h-69v-245h79 q89 0 133 27.5t44 88.5z" />
<glyph unicode="C" horiz-adv-x="630" d="M595 88l2 -37q1 -20 -2 -25.5t-19 -12.5q-62 -25 -147 -25q-171 0 -273 102q-103 103 -103 273q0 164 106 267q105 101 271 101q83 0 149 -28q11 -4 14.5 -10t2.5 -20l-4 -53q-1 -16 -12 -16q-4 0 -45 16q-45 18 -102 18q-127 0 -202 -78q-75 -76 -75 -201t80 -202 q78 -77 193 -77q41 0 87 10q10 2 32.5 10t29.5 8q16 0 17 -20z" />
<glyph unicode="D" horiz-adv-x="737" d="M120 719h187q170 0 273.5 -93t103.5 -260q0 -176 -100 -271t-280 -95h-184q-26 0 -26 29v661q0 29 26 29zM579 361q0 120 -76 195q-73 70 -210 70h-100v-536h110q276 0 276 271z" />
<glyph unicode="E" horiz-adv-x="551" d="M94 29v661q0 29 26 29h346q25 0 25 -29v-35q0 -29 -25 -29h-273v-207h246q25 0 25 -29v-34q0 -29 -25 -29h-246v-234h273q25 0 25 -29v-35q0 -29 -25 -29h-346q-26 0 -26 29z" />
<glyph unicode="F" horiz-adv-x="511" d="M94 29v661q0 29 26 29h326q25 0 25 -29v-35q0 -29 -25 -29h-253v-207h231q25 0 25 -29v-34q0 -29 -25 -29h-231v-298q0 -29 -25 -29h-48q-26 0 -26 29z" />
<glyph unicode="G" horiz-adv-x="735" d="M547 93v207h-138q-26 0 -26 29v36q0 29 26 29h211q26 0 26 -29v-316q0 -29 -26 -38q-72 -23 -191 -23q-171 0 -273 102q-103 103 -103 273q0 164 106 267q105 101 271 101q129 0 191 -31q11 -6 14.5 -10.5t2.5 -16.5l-5 -53q-1 -19 -14 -19q-5 0 -12.5 2.5t-19.5 7.5 t-20 8q-60 20 -133 20q-125 0 -203 -79q-75 -78 -75 -201q0 -125 79 -202t194 -77q65 0 118 13z" />
<glyph unicode="H" horiz-adv-x="733" d="M94 29v661q0 29 26 29h48q25 0 25 -29v-271h347v271q0 29 26 29h48q25 0 25 -29v-661q0 -29 -25 -29h-48q-26 0 -26 29v298h-347v-298q0 -29 -25 -29h-48q-26 0 -26 29z" />
<glyph unicode="I" horiz-adv-x="358" d="M61 89h69v541h-69q-26 0 -26 29v31q0 29 26 29h237q25 0 25 -29v-31q0 -29 -25 -29h-69v-541h69q25 0 25 -29v-31q0 -29 -25 -29h-237q-26 0 -26 29v31q0 29 26 29z" />
<glyph unicode="J" horiz-adv-x="419" d="M77 659v31q0 29 26 29h261q25 0 25 -29v-31q0 -29 -25 -29h-67v-423q0 -219 -199 -219q-39 0 -57 6q-24 7 -24 33v38q0 22 17 22q4 0 20 -3.5t31 -3.5q61 0 87.5 32t26.5 106v412h-96q-26 0 -26 29z" />
<glyph unicode="K" horiz-adv-x="664" d="M94 29v661q0 29 26 29h48q25 0 25 -29v-290l293 303q10 10 17.5 13t26.5 3h72q14 0 14 -14q0 -9 -10 -19l-301 -302l329 -351q9 -11 9 -19q0 -14 -12 -14h-85q-19 0 -26.5 3t-17.5 13l-309 339v-326q0 -29 -25 -29h-48q-26 0 -26 29z" />
<glyph unicode="L" horiz-adv-x="518" d="M94 29v661q0 29 26 29h48q25 0 25 -29v-597h275q25 0 25 -29v-35q0 -29 -25 -29h-348q-26 0 -26 29z" />
<glyph unicode="M" horiz-adv-x="937" d="M408 29l-217 590v-590q0 -29 -25 -29h-46q-26 0 -26 29v661q0 29 26 29h108q25 0 35 -29l207 -568l208 568q10 29 35 29h104q26 0 26 -29v-661q0 -29 -26 -29h-45q-25 0 -25 29v590l-217 -590q-10 -29 -36 -29h-51q-26 0 -35 29z" />
<glyph unicode="N" horiz-adv-x="746" d="M509 28l-320 569v-568q0 -29 -25 -29h-44q-26 0 -26 29v661q0 29 26 29h85q23 0 40 -29l312 -556v556q0 29 26 29h44q25 0 25 -29v-661q0 -29 -25 -29h-77q-25 0 -41 28z" />
<glyph unicode="O" horiz-adv-x="788" d="M156 359q0 -123 62 -200.5t176 -77.5t176 77.5t62 200.5t-62 201t-176 78t-176 -78t-62 -201zM53 359q0 172 91.5 272t249.5 100t249.5 -100t91.5 -272q0 -171 -91 -271t-250 -100t-250 100t-91 271z" />
<glyph unicode="P" horiz-adv-x="587" d="M120 719h145q142 0 212 -50.5t70 -164.5q0 -110 -71 -164t-190 -54h-93v-257q0 -29 -25 -29h-48q-26 0 -26 29v661q0 29 26 29zM270 626h-77v-247h89q162 0 162 124q0 123 -174 123z" />
<glyph unicode="Q" horiz-adv-x="789" d="M582 -84l-79 86q-51 -14 -109 -14q-159 0 -250 100t-91 271q0 172 91.5 272t249.5 100t249.5 -100t91.5 -272q0 -215 -138 -312l110 -118q11 -13 11 -19q0 -14 -17 -14h-74q-17 0 -25 3.5t-20 16.5zM156 359q0 -123 62 -200.5t176 -77.5q12 0 36 2l-55 61q-9 11 -9 20 q0 13 16 13h67q18 0 26.5 -3.5t19.5 -15.5l34 -37q103 73 103 238q0 123 -62 201t-176 78t-176 -78t-62 -201z" />
<glyph unicode="R" horiz-adv-x="629" d="M94 29v661q0 29 26 29h148q46 0 82.5 -4t75 -16.5t63.5 -34t41 -58.5t16 -87q0 -67 -37.5 -112.5t-98.5 -68.5l178 -305q6 -10 6 -17q0 -16 -18 -16h-62q-17 0 -23.5 3t-13.5 14l-169 302h-115v-290q0 -29 -25 -29h-48q-26 0 -26 29zM265 626h-72v-215h94q156 0 156 107 q0 44 -27.5 69t-63 32t-87.5 7z" />
<glyph unicode="S" horiz-adv-x="515" d="M415 702q13 -7 16 -12t1 -18l-10 -49q-3 -16 -12 -16q-5 0 -11.5 2.5t-19.5 8t-27 9.5q-35 11 -79 11q-54 0 -87.5 -25t-33.5 -70q0 -40 32 -66.5t95 -56.5q97 -45 143 -92.5t46 -131.5q0 -55 -21.5 -96.5t-57.5 -65t-76.5 -35t-84.5 -11.5q-86 0 -152 32q-21 11 -20 32 l6 53q2 17 15 17q6 0 13 -3t18.5 -9t22.5 -10q52 -19 98 -19q55 0 96.5 28t41.5 83q0 43 -32 73.5t-94 58.5q-45 20 -74 36.5t-58 42t-43.5 59t-14.5 76.5q0 95 62.5 144t162.5 49q73 0 139 -29z" />
<glyph unicode="T" horiz-adv-x="596" d="M51 719h495q25 0 25 -29v-35q0 -29 -25 -29h-199v-597q0 -29 -24 -29h-48q-26 0 -26 29v597h-198q-26 0 -26 29v35q0 29 26 29z" />
<glyph unicode="U" horiz-adv-x="746" d="M90 298v392q0 29 27 29h47q25 0 25 -29v-379q0 -231 183 -231q185 0 185 231v379q0 29 26 29h47q26 0 26 -29v-392q0 -150 -73.5 -230t-210.5 -80q-136 0 -209 80t-73 230z" />
<glyph unicode="V" horiz-adv-x="703" d="M281 27l-258 665q0 1 -0.5 3t-1 3.5l-1 3t-0.5 2.5q0 15 18 15h59q12 0 18.5 -5.5t11.5 -19.5l222 -596h4l222 596q9 25 29 25h62q17 0 17 -15q0 -6 -4 -14l-260 -663q-10 -27 -33 -27h-74q-20 0 -31 27z" />
<glyph unicode="W" horiz-adv-x="999" d="M568 694l148 -596h4l153 596q7 25 28 25h60q18 0 18 -15q0 -3 -4 -19l-187 -658q-8 -27 -31 -27h-77q-27 0 -33 27l-147 566h-4l-138 -566q-6 -27 -33 -27h-75q-24 0 -31 27l-195 658q-4 14 -4 19q0 15 18 15h59q21 0 28 -25l162 -596h4l139 596q6 25 29 25h80 q23 0 29 -25z" />
<glyph unicode="X" horiz-adv-x="680" d="M173 700l172 -254l173 250q7 9 10.5 13t10.5 7t18 3h67q14 0 14 -12q0 -8 -8 -19l-225 -312l247 -344q8 -11 8 -19q0 -13 -15 -13h-77q-17 0 -23.5 3.5t-14.5 15.5l-194 286l-195 -282q-7 -9 -10.5 -13t-10.5 -7t-18 -3h-67q-14 0 -14 12q0 8 8 19l247 342l-225 314 q-8 11 -8 19q0 13 15 13h77q17 0 23.5 -3.5t14.5 -15.5z" />
<glyph unicode="Y" horiz-adv-x="678" d="M135 701l203 -301l202 301q8 12 14 15t24 3h67q13 0 13 -13q0 -8 -8 -20l-263 -376v-281q0 -29 -25 -29h-47q-26 0 -26 29v282l-261 375q-8 12 -8 20q0 13 13 13h64q18 0 24 -3t14 -15z" />
<glyph unicode="Z" horiz-adv-x="563" d="M47 652v38q0 29 26 29h423q25 0 25 -29v-38q0 -28 -16 -52l-352 -504h349q26 0 26 -29v-38q0 -29 -26 -29h-442q-25 0 -25 29v38q0 28 16 52l352 504h-330q-26 0 -26 29z" />
<glyph unicode="[" horiz-adv-x="323" d="M283 -95v-27q0 -29 -25 -29h-152q-26 0 -26 29v863q0 29 26 29h152q25 0 25 -29v-27q0 -29 -25 -29h-79v-751h79q25 0 25 -29z" />
<glyph unicode="\" horiz-adv-x="317" d="M86 707l225 -677q6 -18 6 -25q0 -17 -21 -17h-35q-22 0 -30 24l-225 677q-6 18 -6 25q0 17 21 17h35q22 0 30 -24z" />
<glyph unicode="]" horiz-adv-x="313" d="M40 -122v27q0 29 25 29h79v751h-79q-25 0 -25 29v27q0 29 25 29h152q26 0 26 -29v-863q0 -29 -26 -29h-152q-25 0 -25 29z" />
<glyph unicode="^" horiz-adv-x="588" d="M347 695l173 -339q10 -18 10 -25q0 -17 -18 -17h-45q-22 0 -34 24l-139 279l-139 -279q-12 -24 -34 -24h-45q-18 0 -18 17q0 7 10 25l173 339q11 24 34 24h38q23 0 34 -24z" />
<glyph unicode="_" horiz-adv-x="419" d="M419 -196h-419q-26 0 -26 29v9q0 29 26 29h419q25 0 25 -29v-9q0 -29 -25 -29z" />
<glyph unicode="`" horiz-adv-x="278" d="M149 728l77 -116q5 -7 5 -14q0 -13 -19 -13h-27q-16 0 -24.5 4.5t-21.5 18.5l-104 112q-11 13 -11 22q0 13 17 13h60q31 0 48 -27z" />
<glyph unicode="a" horiz-adv-x="621" d="M278 522q102 0 166 -64h4v23q0 29 26 29h43q24 0 24 -29v-452q0 -29 -24 -29h-39q-26 0 -26 29v45h-3q-61 -86 -175 -86q-107 0 -167.5 79.5t-60.5 193.5q0 106 61 183.5t171 77.5zM448 185v158q-44 101 -150 101q-76 0 -114.5 -55.5t-38.5 -131.5q0 -78 38.5 -134 t112.5 -56q54 0 94 31t58 87z" />
<glyph unicode="b" horiz-adv-x="622" d="M106 774h43q24 0 24 -29v-307h4q59 84 173 84q106 0 165 -73.5t59 -187.5q0 -128 -67 -194.5t-184 -66.5h-217q-26 0 -26 29v716q0 29 26 29zM330 443q-72 0 -114.5 -55.5t-42.5 -130.5v-178h138q68 0 116.5 43.5t48.5 136.5q0 75 -37 129.5t-109 54.5z" />
<glyph unicode="c" horiz-adv-x="465" d="M435 70l2 -37q1 -10 -5 -15.5t-21 -12.5q-43 -17 -98 -17q-123 0 -194 76t-71 189q0 116 72 192.5t193 76.5q66 0 107 -22q16 -9 13 -33l-3 -28q-1 -17 -16 -17q-2 0 -31.5 9.5t-62.5 9.5q-79 0 -126 -55t-47 -131q0 -79 47.5 -134t132.5 -55q33 0 62 10.5t32 10.5 q13 0 14 -17z" />
<glyph unicode="d" horiz-adv-x="626" d="M274 522q113 0 172 -83h4v306q0 29 26 29h43q24 0 24 -29v-636l58 -80q5 -7 5 -13q0 -16 -21 -16h-54q-16 0 -22.5 3.5t-14.5 15.5l-38 55h-5q-62 -86 -177 -86q-107 0 -166.5 79.5t-59.5 193.5q0 106 59.5 183.5t166.5 77.5zM292 67q71 0 114.5 52.5t43.5 134.5 q0 86 -44 138t-113 52q-70 0 -108 -56t-38 -131q0 -46 14 -87t48 -72t83 -31z" />
<glyph unicode="e" horiz-adv-x="565" d="M520 268q0 -35 -38 -35h-335q1 -73 51 -120t123 -47q39 0 71 9t51 18.5t25 9.5q12 0 13 -15l3 -43q1 -18 -23 -28q-67 -29 -144 -29q-127 0 -198 73t-71 201q0 113 68 186.5t176 73.5q107 0 167.5 -66.5t60.5 -187.5zM148 305h276q-2 61 -37.5 98.5t-96.5 37.5 q-59 0 -97.5 -39t-44.5 -97z" />
<glyph unicode="f" horiz-adv-x="371" d="M3 461v20q0 29 26 29h96v92q0 184 169 184q30 0 51 -6q17 -4 16 -20l-2 -42q-1 -17 -16 -17q-8 0 -22.5 3t-26.5 3q-40 0 -58.5 -28t-18.5 -90v-79h114q25 0 25 -29v-20q0 -29 -25 -29h-114v-403q0 -29 -24 -29h-43q-26 0 -26 29v403h-95q-26 0 -26 29z" />
<glyph unicode="g" horiz-adv-x="623" d="M543 481v-508q0 -244 -268 -244q-39 0 -87.5 9.5t-77.5 24.5q-13 7 -16.5 12.5t-2.5 17.5l5 37q3 18 19 18q3 0 57.5 -20.5t112.5 -20.5q165 0 165 173v103h-3q-54 -83 -173 -83q-108 0 -167 74.5t-59 186.5q0 67 24.5 125t78 97t126.5 39q113 0 172 -83h5v42q0 29 26 29 h39q24 0 24 -29zM292 79q73 0 115.5 48t42.5 131t-44.5 134.5t-112.5 51.5q-70 0 -108 -56t-38 -131q0 -72 36.5 -125t108.5 -53z" />
<glyph unicode="h" horiz-adv-x="619" d="M106 774h43q24 0 24 -29v-307h3q58 84 173 84q190 0 190 -217v-276q0 -29 -24 -29h-43q-26 0 -26 29v268q0 146 -115 146q-75 0 -116.5 -56.5t-41.5 -141.5v-216q0 -29 -24 -29h-43q-26 0 -26 29v716q0 29 26 29z" />
<glyph unicode="i" horiz-adv-x="253" d="M80 29v452q0 29 26 29h43q24 0 24 -29v-452q0 -29 -24 -29h-43q-26 0 -26 29zM67 699q0 25 17 42.5t42 17.5t42.5 -17.5t17.5 -42.5t-17.5 -42t-42.5 -17t-42 17t-17 42z" />
<glyph unicode="j" horiz-adv-x="253" d="M67 699q0 25 17 42.5t42 17.5t42.5 -17.5t17.5 -42.5t-17.5 -42t-42.5 -17t-42 17t-17 42zM80 -93v574q0 29 26 29h43q24 0 24 -29v-557q0 -44 -6 -77t-21.5 -61.5t-45 -43t-72.5 -14.5q-28 0 -44 5q-15 5 -14 21l4 39q2 21 21 21q2 0 10.5 -0.5t17.5 -0.5 q34 0 45.5 25.5t11.5 68.5z" />
<glyph unicode="k" horiz-adv-x="529" d="M106 774h43q24 0 24 -29v-449l204 196q18 18 42 18h62q19 0 19 -13q0 -8 -8 -16l-213 -197l241 -255q8 -8 8 -16q0 -13 -19 -13h-69q-18 0 -25.5 4t-17.5 15l-224 244v-234q0 -29 -24 -29h-43q-26 0 -26 29v716q0 29 26 29z" />
<glyph unicode="l" horiz-adv-x="287" d="M80 189v556q0 29 24 29h43q26 0 26 -29v-567q0 -100 67 -100q8 0 16 1t11 1q17 0 17 -19v-41q0 -17 -14 -21q-20 -6 -45 -6q-85 0 -115 50.5t-30 145.5z" />
<glyph unicode="m" horiz-adv-x="910" d="M147 0h-43q-24 0 -24 29v452q0 29 24 29h39q26 0 26 -29v-45h2q54 86 153 86q124 0 162 -100h3q23 41 64 70.5t101 29.5q46 0 79.5 -13.5t51.5 -33.5t28.5 -51t13.5 -57.5t3 -61.5v-276q0 -29 -24 -29h-43q-26 0 -26 29v268q0 72 -21 109t-80 37q-40 0 -68.5 -20.5 t-41.5 -54t-18.5 -65.5t-5.5 -66v-208q0 -29 -24 -29h-43q-26 0 -26 29v268q0 72 -21 109t-80 37q-71 0 -103 -52t-32 -138v-224q0 -29 -26 -29z" />
<glyph unicode="n" horiz-adv-x="619" d="M147 0h-43q-24 0 -24 29v452q0 29 24 29h39q26 0 26 -29v-43h7q58 84 173 84q190 0 190 -217v-276q0 -29 -24 -29h-43q-26 0 -26 29v268q0 146 -115 146q-75 0 -116.5 -56.5t-41.5 -141.5v-216q0 -29 -26 -29z" />
<glyph unicode="o" horiz-adv-x="626" d="M147 255q0 -79 45 -133.5t121 -54.5t121 54.5t45 133.5t-45 133.5t-121 54.5t-121 -54.5t-45 -133.5zM48 255q0 123 77.5 195t187.5 72t187.5 -72t77.5 -195t-77.5 -195t-187.5 -72t-187.5 72t-77.5 195z" />
<glyph unicode="p" horiz-adv-x="623" d="M147 -259h-43q-24 0 -24 29v711q0 29 24 29h39q26 0 26 -29v-45h3q62 86 177 86q108 0 167 -77.5t59 -193.5q0 -106 -59.5 -184.5t-166.5 -78.5q-113 0 -172 83h-4v-301q0 -29 -26 -29zM331 443q-71 0 -114.5 -52t-43.5 -131q0 -90 43.5 -142t113.5 -52t108 56t38 131 t-36 132.5t-109 57.5z" />
<glyph unicode="q" horiz-adv-x="623" d="M450 -230v302q-62 -84 -176 -84q-109 0 -167.5 79t-58.5 194q0 106 59.5 183.5t166.5 77.5q113 0 172 -83h8v42q0 29 26 29h39q24 0 24 -29v-638l59 44q12 9 19 9q9 0 18 -12l19 -24q5 -8 5 -14q0 -12 -15 -23l-106 -73q-13 -9 -29 -9h-37q-26 0 -26 29zM292 67 q70 0 114 51.5t44 131.5q0 89 -43.5 141.5t-113.5 52.5t-108 -56t-38 -131q0 -46 14 -87t48 -72t83 -31z" />
<glyph unicode="r" horiz-adv-x="378" d="M147 0h-43q-24 0 -24 29v452q0 29 24 29h39q26 0 26 -29v-45h4q51 86 135 86q30 0 50 -5t20 -27v-36q0 -21 -16 -21q-2 0 -19 2.5t-34 2.5q-72 0 -104 -59t-32 -140v-210q0 -29 -26 -29z" />
<glyph unicode="s" horiz-adv-x="434" d="M335 500q14 -6 17.5 -12t0.5 -19l-8 -34q-4 -16 -18 -16q-5 0 -36 11t-65 11q-36 0 -57 -14.5t-21 -39.5q0 -28 23.5 -46.5t87.5 -48.5q65 -31 93 -64t28 -89q0 -76 -56.5 -113.5t-129.5 -37.5q-66 0 -117 24q-22 10 -19 30l4 34q3 23 21 23q3 0 38 -15t73 -15 q37 0 64 15.5t27 49.5q0 30 -22.5 48.5t-84.5 45.5q-61 27 -92.5 62t-31.5 90q0 69 48.5 105.5t125.5 36.5q54 0 107 -22z" />
<glyph unicode="t" horiz-adv-x="371" d="M113 432h-77q-26 0 -26 29v20q0 29 26 29h77v136q0 29 26 29h43q24 0 24 -29v-136h112q25 0 25 -29v-20q0 -29 -25 -29h-112v-247q0 -62 18.5 -90t58.5 -28q15 0 32.5 3t21.5 3q14 0 14 -17v-41q0 -15 -16 -20q-23 -7 -52 -7q-92 0 -131 43.5t-39 141.5v259z" />
<glyph unicode="u" horiz-adv-x="619" d="M173 481v-256q0 -158 115 -158q76 0 117 59t41 147v208q0 29 26 29h43q24 0 24 -29v-452q0 -29 -24 -29h-39q-26 0 -26 29v52h-7q-57 -93 -173 -93q-190 0 -190 217v276q0 29 24 29h43q26 0 26 -29z" />
<glyph unicode="v" horiz-adv-x="516" d="M125 485l133 -387h7l133 387q8 25 30 25h51q18 0 18 -15q0 -4 -6 -20l-168 -448q-11 -27 -31 -27h-67q-21 0 -31 27l-168 448q-6 18 -6 20q0 15 18 15h57q12 0 18.5 -5.5t11.5 -19.5z" />
<glyph unicode="w" horiz-adv-x="821" d="M475 485l118 -387h4l109 387q7 25 30 25h48q17 0 17 -14q0 -4 -5 -21l-144 -448q-9 -27 -31 -27h-53q-22 0 -31 27l-123 389l-122 -389q-9 -27 -31 -27h-61q-22 0 -31 27l-144 448q-5 17 -5 21q0 14 17 14h56q23 0 30 -25l109 -387h4l118 387q8 25 30 25h61q22 0 30 -25z " />
<glyph unicode="x" horiz-adv-x="505" d="M30 31l168 234l-154 214q-9 13 -9 19q0 12 15 12h62q14 0 20 -3.5t15 -16.5l109 -163l108 163q9 13 15 16.5t20 3.5h55q15 0 15 -12q0 -6 -9 -19l-153 -213l169 -235q9 -13 9 -19q0 -12 -15 -12h-62q-14 0 -20 3.5t-15 16.5l-124 183l-121 -183q-9 -13 -15 -16.5 t-20 -3.5h-57q-15 0 -15 12q0 6 9 19z" />
<glyph unicode="y" horiz-adv-x="516" d="M125 485l133 -387h7l133 387q8 25 30 25h51q18 0 18 -15q0 -4 -6 -20l-270 -721q-8 -25 -30 -25h-51q-18 0 -18 15q0 4 6 20l87 215l-189 496q-6 18 -6 20q0 15 18 15h57q22 0 30 -25z" />
<glyph unicode="z" horiz-adv-x="508" d="M84 510h344q25 0 25 -29v-20q0 -27 -15 -44l-286 -339h288q25 0 25 -29v-20q0 -29 -25 -29h-371q-26 0 -26 29v20q0 30 13 46l286 337h-258q-26 0 -26 29v20q0 29 26 29z" />
<glyph unicode="{" horiz-adv-x="385" d="M281 770h36q27 0 27 -29v-27q0 -29 -25 -29h-18q-37 0 -51.5 -18.5t-14.5 -67.5v-140q0 -54 -21.5 -94t-62.5 -53v-4q41 -12 62.5 -53t21.5 -94v-140q0 -49 14.5 -67.5t51.5 -18.5h18q25 0 25 -29v-27q0 -29 -27 -29h-36q-64 0 -101.5 35t-37.5 105v161q0 53 -14.5 80 t-47.5 36q-27 7 -27 34v18q0 27 27 34q33 9 47.5 36t14.5 80v161q0 70 37.5 105t101.5 35z" />
<glyph unicode="|" horiz-adv-x="275" d="M181 740v-861q0 -29 -26 -29h-34q-27 0 -27 29v861q0 30 27 30h34q26 0 26 -30z" />
<glyph unicode="}" horiz-adv-x="385" d="M68 770h36q64 0 101.5 -35t37.5 -105v-161q0 -53 14.5 -80t47.5 -36q27 -7 27 -34v-18q0 -27 -27 -34q-33 -9 -47.5 -36t-14.5 -80v-161q0 -70 -37.5 -105t-101.5 -35h-36q-27 0 -27 29v27q0 29 25 29h18q37 0 51.5 18.5t14.5 67.5v140q0 53 21.5 94t62.5 53v4 q-41 13 -62.5 53t-21.5 94v140q0 49 -14.5 67.5t-51.5 18.5h-18q-25 0 -25 29v27q0 29 27 29z" />
<glyph unicode="~" horiz-adv-x="583" d="M503 313l12 -20q6 -10 6 -22q0 -14 -9 -29q-39 -60 -111 -60q-43 0 -115 32.5t-104 32.5q-44 0 -71 -45q-6 -11 -16 -11q-9 0 -15 10l-12 20q-6 11 -6 22q0 14 9 29q39 60 111 60q43 0 115 -32.5t104 -32.5q44 0 71 45q6 11 16 11q9 0 15 -10z" />
<glyph unicode="&#xa0;" />
<glyph unicode="&#xa1;" horiz-adv-x="339" d="M236 455q0 -29 -19.5 -48.5t-47.5 -19.5q-29 0 -48.5 19.5t-19.5 48.5q0 28 19.5 47.5t48.5 19.5t48 -19t19 -48zM152 309h33q26 0 26 -27l11 -402q2 -52 2 -63q0 -26 -26 -26h-59q-26 0 -26 26q0 11 2 63l11 402q0 27 26 27z" />
<glyph unicode="&#xa2;" horiz-adv-x="512" d="M272 -72v66q-96 18 -150.5 89.5t-54.5 169.5q0 100 55 172.5t150 90.5v69q0 29 26 29h37q24 0 24 -29v-65q52 -5 80 -20q16 -9 13 -33l-3 -28q-1 -17 -16 -17q-2 0 -31.5 9.5t-62.5 9.5q-79 0 -126 -55t-47 -131q0 -79 47.5 -134t132.5 -55q33 0 62 10.5t32 10.5 q13 0 14 -17l2 -37q1 -10 -5 -15.5t-21 -12.5q-29 -11 -71 -16v-61q0 -29 -24 -29h-37q-26 0 -26 29z" />
<glyph unicode="&#xa3;" horiz-adv-x="678" d="M566 64v-35q0 -29 -25 -29h-394q-26 0 -26 29v35q0 29 26 29h68v239h-68q-26 0 -26 29v28q0 29 26 29h68v73q0 106 68 172.5t178 66.5q44 0 86 -9q32 -6 30 -37l-3 -42q-1 -18 -17 -18q-5 0 -30.5 7t-55.5 7q-157 0 -157 -170v-50h143q25 0 25 -29v-28q0 -29 -25 -29 h-143v-239h227q25 0 25 -29z" />
<glyph unicode="&#xa5;" horiz-adv-x="678" d="M575 147h-188v-118q0 -29 -25 -29h-47q-26 0 -26 29v118h-189q-25 0 -25 29v18q0 29 25 29h189v88l-6 8h-183q-25 0 -25 29v18q0 29 25 29h132l-194 291q-8 12 -8 20q0 13 14 13h63q18 0 24 -3t14 -15l193 -301l192 301q8 13 14 15.5t24 2.5h67q13 0 13 -13q0 -8 -8 -20 l-196 -291h131q26 0 26 -29v-18q0 -29 -26 -29h-182l-6 -9v-87h188q26 0 26 -29v-18q0 -29 -26 -29z" />
<glyph unicode="&#xa6;" horiz-adv-x="275" d="M181 740v-328q0 -29 -26 -29h-34q-27 0 -27 29v328q0 30 27 30h34q26 0 26 -30zM181 206v-328q0 -29 -26 -29h-34q-27 0 -27 29v328q0 30 27 30h34q26 0 26 -30z" />
<glyph unicode="&#xa7;" horiz-adv-x="618" d="M137 577q0 75 53 114t136 39q63 0 118 -23q21 -8 16 -30l-9 -38q-3 -14 -15 -14q-6 0 -39 12.5t-74 12.5q-42 0 -67 -18t-25 -47q0 -35 27.5 -59t97.5 -57t101 -70.5t31 -95.5q0 -46 -25 -80.5t-63 -52.5q38 -25 56 -56.5t18 -77.5q0 -81 -61.5 -122t-140.5 -41 q-75 0 -129 27q-21 11 -18 27l5 39q3 21 18 21q4 0 41.5 -17t82.5 -17q43 0 74.5 18.5t31.5 59.5q0 37 -26 61t-94 54t-101.5 65.5t-33.5 94.5q0 93 92 136q-78 49 -78 135zM399 293q0 38 -25 61t-88 52q-32 -10 -54 -33.5t-22 -51.5q0 -38 27 -60.5t98 -55.5q28 11 46 34 t18 54z" />
<glyph unicode="&#xa8;" d="M-1 668q0 23 16.5 40t39.5 17t40 -17t17 -40t-17 -39.5t-40 -16.5t-39.5 16.5t-16.5 39.5zM173 668q0 23 16.5 40t39.5 17t40 -17t17 -40t-17 -39.5t-40 -16.5t-39.5 16.5t-16.5 39.5z" />
<glyph unicode="&#xa9;" horiz-adv-x="868" d="M54 359q0 157 110 264.5t270 107.5t270 -107.5t110 -264.5t-110 -264t-270 -107t-270 107t-110 264zM132 359q0 -126 87 -211.5t215 -85.5t215 85.5t87 211.5t-87 212t-215 86t-215 -86t-87 -212zM471 207q26 0 53.5 7.5t32.5 7.5q12 0 13 -13l3 -35q1 -10 -4 -15t-17 -8 q-36 -10 -90 -10q-102 0 -169.5 56t-67.5 160t63.5 162.5t172.5 58.5q51 0 87 -10q12 -3 17 -8t4 -15l-3 -35q-1 -13 -13 -13q-5 0 -34 7.5t-55 7.5q-70 0 -115.5 -42.5t-45.5 -112.5q0 -69 48 -109.5t120 -40.5z" />
<glyph unicode="&#xaa;" horiz-adv-x="450" d="M200 731q55 0 95 -32h5v4q0 21 24 21h23q23 0 23 -24v-266q0 -24 -23 -24h-23q-24 0 -24 24v8h-4q-38 -39 -98 -39q-71 0 -110.5 49t-39.5 119q0 65 40 112.5t112 47.5zM297 529v89q-27 52 -84 52q-43 0 -65.5 -30t-22.5 -72t22 -72.5t65 -30.5q28 0 51 17.5t34 46.5z " />
<glyph unicode="&#xab;" horiz-adv-x="601" d="M85 269q0 12 10 27l110 147q21 28 52 28h32q19 0 19 -17q0 -9 -13 -27l-117 -158l117 -158q13 -18 13 -27q0 -17 -19 -17h-32q-31 0 -52 28l-110 147q-10 15 -10 27zM293 269q0 12 10 27l110 147q21 28 52 28h32q19 0 19 -17q0 -9 -13 -27l-117 -158l117 -158 q13 -18 13 -27q0 -17 -19 -17h-32q-31 0 -52 28l-110 147q-10 15 -10 27z" />
<glyph unicode="&#xac;" horiz-adv-x="676" d="M562 373v-239q0 -29 -25 -29h-43q-26 0 -26 29v179h-396q-26 0 -26 29v31q0 29 26 29h465q25 0 25 -29z" />
<glyph unicode="&#xad;" horiz-adv-x="367" d="M288 226h-209q-26 0 -26 29v28q0 29 26 29h209q24 0 24 -29v-28q0 -29 -24 -29z" />
<glyph unicode="&#xae;" horiz-adv-x="868" d="M54 359q0 157 110 264.5t270 107.5t270 -107.5t110 -264.5t-110 -264t-270 -107t-270 107t-110 264zM132 359q0 -126 87 -211.5t215 -85.5t215 85.5t87 211.5t-87 212t-215 86t-215 -86t-87 -212zM283 179v364q0 29 26 29h126q84 0 124 -29t40 -90q0 -100 -109 -118 l100 -156q7 -10 7 -16q0 -13 -20 -13h-29q-31 0 -42 19l-99 162h-48v-152q0 -29 -24 -29h-26q-26 0 -26 29zM433 510h-74v-118h74q43 0 66 11.5t23 49.5q0 57 -89 57z" />
<glyph unicode="&#xaf;" horiz-adv-x="833" />
<glyph unicode="&#xb0;" horiz-adv-x="412" d="M61 585q0 62 40.5 104t102.5 42q64 0 105 -42t41 -104q0 -61 -41 -102t-105 -41q-62 0 -102.5 41t-40.5 102zM122 585q0 -35 23 -58.5t59 -23.5q37 0 61 23.5t24 58.5q0 36 -24 60.5t-61 24.5q-36 0 -59 -24.5t-23 -60.5z" />
<glyph unicode="&#xb1;" horiz-adv-x="600" d="M343 171q0 -26 -29 -26h-28q-29 0 -29 26v163h-183q-26 0 -26 29v28q0 29 26 29h183v165q0 24 29 24h28q29 0 29 -24v-165h185q24 0 24 -29v-28q0 -29 -24 -29h-185v-163zM528 0h-455q-26 0 -26 29v28q0 29 26 29h455q25 0 25 -29v-28q0 -29 -25 -29z" />
<glyph unicode="&#xb2;" horiz-adv-x="400" d="M325 290h-251q-26 0 -26 29v23q0 22 23 38q186 130 186 211q0 33 -19.5 52t-55.5 19q-27 0 -61.5 -11t-39.5 -11q-15 0 -15 19l-1 24q-1 24 22 32q51 16 101 16q66 0 111 -31.5t45 -96.5q0 -62 -57 -128t-126 -111h164q25 0 25 -29v-16q0 -29 -25 -29z" />
<glyph unicode="&#xb3;" horiz-adv-x="398" d="M338 407q0 -61 -48.5 -92t-139.5 -31q-48 0 -85 12q-20 6 -19 28l2 29q2 21 18 21q5 0 31 -7.5t58 -7.5q47 0 72 16t25 44q0 30 -27 44.5t-65 14.5l-30 -1q-26 0 -26 29v18q0 29 22 29l46 -1q38 0 57 16t19 40q0 23 -20 36.5t-56 13.5q-32 0 -61.5 -9t-35.5 -9 q-11 0 -13 15l-2 34q-1 14 3.5 20t16.5 9q46 13 97 13q68 0 112.5 -29t44.5 -87q0 -78 -95 -99q99 -17 99 -109z" />
<glyph unicode="&#xb4;" d="M65 612l77 116q17 27 48 27h60q17 0 17 -13q0 -9 -11 -22l-104 -112q-13 -14 -21.5 -18.5t-24.5 -4.5h-27q-19 0 -19 13q0 7 5 14z" />
<glyph unicode="&#xb5;" horiz-adv-x="619" d="M80 -230v711q0 29 24 29h43q26 0 26 -29v-256q0 -158 115 -158q76 0 117 59t41 147v208q0 29 26 29h43q24 0 24 -29v-452q0 -29 -24 -29h-39q-26 0 -26 29v52h-7q-57 -93 -173 -93q-55 0 -97 20v-238q0 -29 -24 -29h-43q-26 0 -26 29z" />
<glyph unicode="&#xb6;" horiz-adv-x="630" d="M294 697h232q24 0 24 -29v-751q0 -29 -24 -29h-36q-26 0 -26 29v699h-102v-699q0 -29 -24 -29h-36q-26 0 -26 29v414q-223 8 -223 183q0 183 241 183z" />
<glyph unicode="&#xb8;" d="M250 -132q0 -46 -37 -68.5t-88 -22.5q-40 0 -73 14q-12 5 -12 12q0 4 2 10l3 9q4 12 12 12q3 0 22.5 -6.5t38.5 -6.5q58 0 58 42q0 39 -49 39q-8 0 -17.5 -1t-15.5 -1q-16 0 -16 16q0 6 10 22l43 64h51l-46 -62q18 5 31 5q39 0 61 -21.5t22 -55.5z" />
<glyph unicode="&#xb9;" horiz-adv-x="328" d="M75 590l-7 9q-7 8 -7 17q0 11 13 21l93 73q11 9 24 9h36q25 0 25 -29v-378q0 -29 -25 -29h-36q-26 0 -26 29v316l-52 -40q-12 -9 -20 -9q-10 0 -18 11z" />
<glyph unicode="&#xba;" horiz-adv-x="439" d="M129 566q0 -43 24 -73t65 -30q42 0 67 30t25 73q0 44 -24.5 74t-67.5 30q-41 0 -65 -30t-24 -74zM48 566q0 76 50 120.5t120 44.5q73 0 123 -44.5t50 -120.5q0 -75 -50.5 -119t-122.5 -44q-70 0 -120 44t-50 119z" />
<glyph unicode="&#xbb;" horiz-adv-x="601" d="M308 269q0 -12 -10 -27l-110 -147q-21 -28 -52 -28h-32q-19 0 -19 17q0 9 13 27l117 158l-117 158q-13 18 -13 27q0 17 19 17h32q31 0 52 -28l110 -147q10 -15 10 -27zM516 269q0 -12 -10 -27l-110 -147q-21 -28 -52 -28h-32q-19 0 -19 17q0 9 13 27l117 158l-117 158 q-13 18 -13 27q0 17 19 17h32q31 0 52 -28l110 -147q10 -15 10 -27z" />
<glyph unicode="&#xbc;" horiz-adv-x="918" d="M477 177l139 241q10 18 33 18h51q17 0 17 -13q0 -8 -7 -19l-148 -248h111v77q0 29 25 29h37q25 0 25 -29v-77h39q25 0 25 -29v-16q0 -29 -25 -29h-39v-53q0 -29 -25 -29h-37q-25 0 -25 29v53h-184q-25 0 -25 29v22q0 21 13 44zM171 7l419 716q10 18 33 18h27q17 0 17 -13 q0 -7 -6 -17l-419 -716q-10 -18 -33 -18h-27q-17 0 -17 13q0 6 6 17zM75 590l-7 9q-7 8 -7 17q0 11 13 21l93 73q11 9 24 9h36q25 0 25 -29v-378q0 -29 -25 -29h-36q-26 0 -26 29v316l-52 -40q-12 -9 -20 -9q-10 0 -18 11z" />
<glyph unicode="&#xbd;" horiz-adv-x="918" d="M817 0h-251q-26 0 -26 29v23q0 22 23 38q186 130 186 211q0 33 -19.5 52t-55.5 19q-27 0 -61.5 -11t-39.5 -11q-15 0 -15 19l-1 27q0 21 22 29q51 16 101 16q66 0 111 -31.5t45 -96.5q0 -62 -57 -128t-126 -111h164q25 0 25 -29v-16q0 -29 -25 -29zM164 7l419 716 q10 18 33 18h27q17 0 17 -13q0 -7 -6 -17l-419 -716q-10 -18 -33 -18h-27q-17 0 -17 13q0 6 6 17zM75 590l-7 9q-7 8 -7 17q0 11 13 21l93 73q11 9 24 9h36q25 0 25 -29v-378q0 -29 -25 -29h-36q-26 0 -26 29v316l-52 -40q-12 -9 -20 -9q-10 0 -18 11z" />
<glyph unicode="&#xbe;" horiz-adv-x="1030" d="M404 407q0 -61 -48.5 -92t-139.5 -31q-48 0 -85 12q-20 6 -19 28l2 29q2 21 18 21q5 0 31 -7.5t58 -7.5q47 0 72 16t25 44q0 30 -27 44.5t-65 14.5l-30 -1q-26 0 -26 29v18q0 29 22 29l46 -1q38 0 57 16t19 40q0 23 -20 36.5t-56 13.5q-32 0 -61.5 -9t-35.5 -9 q-11 0 -13 15l-2 34q-1 14 3.5 20t16.5 9q46 13 97 13q68 0 112.5 -29t44.5 -87q0 -78 -95 -99q99 -17 99 -109zM581 177l139 241q10 18 33 18h51q17 0 17 -13q0 -8 -7 -19l-148 -248h111v77q0 29 25 29h37q25 0 25 -29v-77h39q25 0 25 -29v-16q0 -29 -25 -29h-39v-53 q0 -29 -25 -29h-37q-25 0 -25 29v53h-184q-25 0 -25 29v22q0 21 13 44zM275 7l419 716q10 18 33 18h27q17 0 17 -13q0 -7 -6 -17l-419 -716q-10 -18 -33 -18h-27q-17 0 -17 13q0 6 6 17z" />
<glyph unicode="&#xbf;" horiz-adv-x="506" d="M226 217v62q0 28 25 28h43q26 0 26 -29v-84q0 -35 -23 -56q-11 -11 -40 -36.5t-45 -41.5t-31 -43t-15 -54q0 -44 27.5 -67.5t78.5 -23.5q47 0 95.5 16t54.5 16q11 0 12 -16l3 -50q1 -14 -2.5 -20t-14.5 -10q-68 -29 -164 -29q-84 0 -137 46t-53 125q0 69 35 118t101 104 q24 20 24 45zM341 455q0 -29 -19.5 -48.5t-47.5 -19.5t-48 19.5t-20 48.5q0 28 19.5 47.5t48.5 19.5q28 0 47.5 -19t19.5 -48z" />
<glyph unicode="&#xc0;" horiz-adv-x="724" d="M701 27q3 -6 3 -12q0 -15 -19 -15h-62q-22 0 -31 25l-61 155h-348l-60 -155q-9 -25 -31 -25h-54q-18 0 -18 15q0 6 4 14l272 663q10 27 35 27h63q22 0 32 -27zM497 269l-137 352h-4l-138 -352h279zM403 937l77 -116q5 -7 5 -14q0 -13 -19 -13h-27q-16 0 -24.5 4.5 t-21.5 18.5l-104 112q-11 13 -11 22q0 13 17 13h60q31 0 48 -27z" />
<glyph unicode="&#xc1;" horiz-adv-x="724" d="M701 27q3 -6 3 -12q0 -15 -19 -15h-62q-22 0 -31 25l-61 155h-348l-60 -155q-9 -25 -31 -25h-54q-18 0 -18 15q0 6 4 14l272 663q10 27 35 27h63q22 0 32 -27zM497 269l-137 352h-4l-138 -352h279zM252 821l77 116q17 27 48 27h60q17 0 17 -13q0 -9 -11 -22l-104 -112 q-13 -14 -21.5 -18.5t-24.5 -4.5h-27q-19 0 -19 13q0 7 5 14z" />
<glyph unicode="&#xc2;" horiz-adv-x="724" d="M701 27q3 -6 3 -12q0 -15 -19 -15h-62q-22 0 -31 25l-61 155h-348l-60 -155q-9 -25 -31 -25h-54q-18 0 -18 15q0 6 4 14l272 663q10 27 35 27h63q22 0 32 -27zM497 269l-137 352h-4l-138 -352h279zM432 937l77 -116q5 -7 5 -14q0 -13 -19 -13h-27q-16 0 -24.5 4t-21.5 18 l-59 64l-59 -64q-13 -14 -21.5 -18t-24.5 -4h-27q-19 0 -19 13q0 7 5 14l77 116q17 27 48 27h42q31 0 48 -27z" />
<glyph unicode="&#xc3;" horiz-adv-x="724" d="M701 27q3 -6 3 -12q0 -15 -19 -15h-62q-22 0 -31 25l-61 155h-348l-60 -155q-9 -25 -31 -25h-54q-18 0 -18 15q0 6 4 14l272 663q10 27 35 27h63q22 0 32 -27zM497 269l-137 352h-4l-138 -352h279zM483 933h27q16 0 16 -19q0 -43 -25 -72.5t-72 -29.5q-32 0 -75 20 t-56 20q-27 0 -35 -28q-4 -15 -25 -15h-27q-16 0 -16 19q0 43 25 72.5t72 29.5q32 0 75 -20t56 -20q27 0 35 28q4 15 25 15z" />
<glyph unicode="&#xc4;" horiz-adv-x="724" d="M701 27q3 -6 3 -12q0 -15 -19 -15h-62q-22 0 -31 25l-61 155h-348l-60 -155q-9 -25 -31 -25h-54q-18 0 -18 15q0 6 4 14l272 663q10 27 35 27h63q22 0 32 -27zM497 269l-137 352h-4l-138 -352h279zM219 877q0 23 16.5 40t39.5 17t40 -17t17 -40t-17 -39.5t-40 -16.5 t-39.5 16.5t-16.5 39.5zM393 877q0 23 16.5 40t39.5 17t40 -17t17 -40t-17 -39.5t-40 -16.5t-39.5 16.5t-16.5 39.5z" />
<glyph unicode="&#xc5;" horiz-adv-x="724" d="M701 27q3 -6 3 -12q0 -15 -19 -15h-62q-22 0 -31 25l-61 155h-348l-60 -155q-9 -25 -31 -25h-54q-18 0 -18 15q0 6 4 14l272 663q10 27 35 27h63q22 0 32 -27zM497 269l-137 352h-4l-138 -352h279zM259 872q0 43 29 73t73 30t73.5 -30t29.5 -73t-29 -72.5t-74 -29.5 q-44 0 -73 29.5t-29 72.5zM301 872q0 -26 17 -43t43 -17t43.5 17t17.5 43t-17.5 43.5t-43.5 17.5t-43 -17.5t-17 -43.5z" />
<glyph unicode="&#xc6;" horiz-adv-x="942" d="M495 29v151h-266l-92 -156q-15 -24 -37 -24h-61q-19 0 -19 15q0 7 7 19l396 658q16 27 44 27h390q25 0 25 -29v-35q0 -29 -25 -29h-263v-207h236q25 0 25 -29v-34q0 -29 -25 -29h-236v-234h263q25 0 25 -29v-35q0 -29 -25 -29h-336q-26 0 -26 29zM495 269v352h-6 l-207 -352h213z" />
<glyph unicode="&#xc7;" horiz-adv-x="630" d="M595 88l2 -37q1 -20 -2 -25.5t-19 -12.5q-62 -25 -147 -25q-171 0 -273 102q-103 103 -103 273q0 164 106 267q105 101 271 101q83 0 149 -28q11 -4 14.5 -10t2.5 -20l-4 -53q-1 -16 -12 -16q-4 0 -45 16q-45 18 -102 18q-127 0 -202 -78q-75 -76 -75 -201t80 -202 q78 -77 193 -77q41 0 87 10q10 2 32.5 10t29.5 8q16 0 17 -20zM520 -132q0 -46 -37 -68.5t-88 -22.5q-40 0 -73 14q-12 5 -12 12q0 4 2 10l3 9q4 12 12 12q3 0 22.5 -6.5t38.5 -6.5q58 0 58 42q0 39 -49 39q-8 0 -17.5 -1t-15.5 -1q-16 0 -16 16q0 6 10 22l43 64h51l-46 -62 q18 5 31 5q39 0 61 -21.5t22 -55.5z" />
<glyph unicode="&#xc8;" horiz-adv-x="551" d="M94 29v661q0 29 26 29h346q25 0 25 -29v-35q0 -29 -25 -29h-273v-207h246q25 0 25 -29v-34q0 -29 -25 -29h-246v-234h273q25 0 25 -29v-35q0 -29 -25 -29h-346q-26 0 -26 29zM316 937l77 -116q5 -7 5 -14q0 -13 -19 -13h-27q-16 0 -24.5 4.5t-21.5 18.5l-104 112 q-11 13 -11 22q0 13 17 13h60q31 0 48 -27z" />
<glyph unicode="&#xc9;" horiz-adv-x="551" d="M94 29v661q0 29 26 29h346q25 0 25 -29v-35q0 -29 -25 -29h-273v-207h246q25 0 25 -29v-34q0 -29 -25 -29h-246v-234h273q25 0 25 -29v-35q0 -29 -25 -29h-346q-26 0 -26 29zM165 821l77 116q17 27 48 27h60q17 0 17 -13q0 -9 -11 -22l-104 -112q-13 -14 -21.5 -18.5 t-24.5 -4.5h-27q-19 0 -19 13q0 7 5 14z" />
<glyph unicode="&#xca;" horiz-adv-x="551" d="M94 29v661q0 29 26 29h346q25 0 25 -29v-35q0 -29 -25 -29h-273v-207h246q25 0 25 -29v-34q0 -29 -25 -29h-246v-234h273q25 0 25 -29v-35q0 -29 -25 -29h-346q-26 0 -26 29zM345 937l77 -116q5 -7 5 -14q0 -13 -19 -13h-27q-16 0 -24.5 4t-21.5 18l-59 64l-59 -64 q-13 -14 -21.5 -18t-24.5 -4h-27q-19 0 -19 13q0 7 5 14l77 116q17 27 48 27h42q31 0 48 -27z" />
<glyph unicode="&#xcb;" horiz-adv-x="551" d="M94 29v661q0 29 26 29h346q25 0 25 -29v-35q0 -29 -25 -29h-273v-207h246q25 0 25 -29v-34q0 -29 -25 -29h-246v-234h273q25 0 25 -29v-35q0 -29 -25 -29h-346q-26 0 -26 29zM132 877q0 23 16.5 40t39.5 17t40 -17t17 -40t-17 -39.5t-40 -16.5t-39.5 16.5t-16.5 39.5z M306 877q0 23 16.5 40t39.5 17t40 -17t17 -40t-17 -39.5t-40 -16.5t-39.5 16.5t-16.5 39.5z" />
<glyph unicode="&#xcc;" horiz-adv-x="358" d="M61 89h69v541h-69q-26 0 -26 29v31q0 29 26 29h237q25 0 25 -29v-31q0 -29 -25 -29h-69v-541h69q25 0 25 -29v-31q0 -29 -25 -29h-237q-26 0 -26 29v31q0 29 26 29zM220 937l77 -116q5 -7 5 -14q0 -13 -19 -13h-27q-16 0 -24.5 4.5t-21.5 18.5l-104 112q-11 13 -11 22 q0 13 17 13h60q31 0 48 -27z" />
<glyph unicode="&#xcd;" horiz-adv-x="358" d="M61 89h69v541h-69q-26 0 -26 29v31q0 29 26 29h237q25 0 25 -29v-31q0 -29 -25 -29h-69v-541h69q25 0 25 -29v-31q0 -29 -25 -29h-237q-26 0 -26 29v31q0 29 26 29zM69 821l77 116q17 27 48 27h60q17 0 17 -13q0 -9 -11 -22l-104 -112q-13 -14 -21.5 -18.5t-24.5 -4.5 h-27q-19 0 -19 13q0 7 5 14z" />
<glyph unicode="&#xce;" horiz-adv-x="358" d="M61 89h69v541h-69q-26 0 -26 29v31q0 29 26 29h237q25 0 25 -29v-31q0 -29 -25 -29h-69v-541h69q25 0 25 -29v-31q0 -29 -25 -29h-237q-26 0 -26 29v31q0 29 26 29zM249 937l77 -116q5 -7 5 -14q0 -13 -19 -13h-27q-16 0 -24.5 4t-21.5 18l-59 64l-59 -64 q-13 -14 -21.5 -18t-24.5 -4h-27q-19 0 -19 13q0 7 5 14l77 116q17 27 48 27h42q31 0 48 -27z" />
<glyph unicode="&#xcf;" horiz-adv-x="358" d="M61 89h69v541h-69q-26 0 -26 29v31q0 29 26 29h237q25 0 25 -29v-31q0 -29 -25 -29h-69v-541h69q25 0 25 -29v-31q0 -29 -25 -29h-237q-26 0 -26 29v31q0 29 26 29zM36 877q0 23 16.5 40t39.5 17t40 -17t17 -40t-17 -39.5t-40 -16.5t-39.5 16.5t-16.5 39.5zM210 877 q0 23 16.5 40t39.5 17t40 -17t17 -40t-17 -39.5t-40 -16.5t-39.5 16.5t-16.5 39.5z" />
<glyph unicode="&#xd0;" horiz-adv-x="737" d="M120 719h187q170 0 273.5 -93t103.5 -260q0 -176 -100 -271t-280 -95h-184q-26 0 -26 29v306h-47q-26 0 -26 29v16q0 29 26 29h47v281q0 29 26 29zM378 380v-16q0 -29 -25 -29h-160v-245h110q276 0 276 271q0 120 -76 195q-73 70 -210 70h-100v-217h160q25 0 25 -29z" />
<glyph unicode="&#xd1;" horiz-adv-x="746" d="M509 28l-320 569v-568q0 -29 -25 -29h-44q-26 0 -26 29v661q0 29 26 29h85q23 0 40 -29l312 -556v556q0 29 26 29h44q25 0 25 -29v-661q0 -29 -25 -29h-77q-25 0 -41 28zM494 933h27q16 0 16 -19q0 -43 -25 -72.5t-72 -29.5q-32 0 -75 20t-56 20q-27 0 -35 -28 q-4 -15 -25 -15h-27q-16 0 -16 19q0 43 25 72.5t72 29.5q32 0 75 -20t56 -20q27 0 35 28q4 15 25 15z" />
<glyph unicode="&#xd2;" horiz-adv-x="788" d="M156 359q0 -123 62 -200.5t176 -77.5t176 77.5t62 200.5t-62 201t-176 78t-176 -78t-62 -201zM53 359q0 172 91.5 272t249.5 100t249.5 -100t91.5 -272q0 -171 -91 -271t-250 -100t-250 100t-91 271zM435 937l77 -116q5 -7 5 -14q0 -13 -19 -13h-27q-16 0 -24.5 4.5 t-21.5 18.5l-104 112q-11 13 -11 22q0 13 17 13h60q31 0 48 -27z" />
<glyph unicode="&#xd3;" horiz-adv-x="788" d="M156 359q0 -123 62 -200.5t176 -77.5t176 77.5t62 200.5t-62 201t-176 78t-176 -78t-62 -201zM53 359q0 172 91.5 272t249.5 100t249.5 -100t91.5 -272q0 -171 -91 -271t-250 -100t-250 100t-91 271zM284 821l77 116q17 27 48 27h60q17 0 17 -13q0 -9 -11 -22l-104 -112 q-13 -14 -21.5 -18.5t-24.5 -4.5h-27q-19 0 -19 13q0 7 5 14z" />
<glyph unicode="&#xd4;" horiz-adv-x="788" d="M156 359q0 -123 62 -200.5t176 -77.5t176 77.5t62 200.5t-62 201t-176 78t-176 -78t-62 -201zM53 359q0 172 91.5 272t249.5 100t249.5 -100t91.5 -272q0 -171 -91 -271t-250 -100t-250 100t-91 271zM464 937l77 -116q5 -7 5 -14q0 -13 -19 -13h-27q-16 0 -24.5 4 t-21.5 18l-59 64l-59 -64q-13 -14 -21.5 -18t-24.5 -4h-27q-19 0 -19 13q0 7 5 14l77 116q17 27 48 27h42q31 0 48 -27z" />
<glyph unicode="&#xd5;" horiz-adv-x="788" d="M156 359q0 -123 62 -200.5t176 -77.5t176 77.5t62 200.5t-62 201t-176 78t-176 -78t-62 -201zM53 359q0 172 91.5 272t249.5 100t249.5 -100t91.5 -272q0 -171 -91 -271t-250 -100t-250 100t-91 271zM516 933h27q16 0 16 -19q0 -43 -25 -72.5t-72 -29.5q-32 0 -75 20 t-56 20q-27 0 -35 -28q-4 -15 -25 -15h-27q-16 0 -16 19q0 43 25 72.5t72 29.5q32 0 75 -20t56 -20q27 0 35 28q4 15 25 15z" />
<glyph unicode="&#xd6;" horiz-adv-x="788" d="M156 359q0 -123 62 -200.5t176 -77.5t176 77.5t62 200.5t-62 201t-176 78t-176 -78t-62 -201zM53 359q0 172 91.5 272t249.5 100t249.5 -100t91.5 -272q0 -171 -91 -271t-250 -100t-250 100t-91 271zM251 877q0 23 16.5 40t39.5 17t40 -17t17 -40t-17 -39.5t-40 -16.5 t-39.5 16.5t-16.5 39.5zM425 877q0 23 16.5 40t39.5 17t40 -17t17 -40t-17 -39.5t-40 -16.5t-39.5 16.5t-16.5 39.5z" />
<glyph unicode="&#xd7;" horiz-adv-x="600" d="M509 98q9 -9 9 -18q0 -10 -11 -21l-20 -20q-11 -11 -21 -11q-9 0 -18 9l-152 152l-152 -152q-9 -9 -18 -9q-10 0 -21 11l-20 20q-11 11 -11 21q0 9 9 18l152 152l-153 153q-8 8 -8 17q0 10 11 21l20 20q11 11 21 11q9 0 17 -8l153 -153l153 153q8 8 17 8q10 0 21 -11 l20 -20q11 -11 11 -21q0 -9 -8 -17l-153 -153z" />
<glyph unicode="&#xd8;" horiz-adv-x="788" d="M53 359q0 172 91.5 272t249.5 100q117 0 200 -57l36 47q18 24 38 7l11 -8q21 -17 4 -39l-39 -51q91 -100 91 -271t-91 -271t-250 -100q-118 0 -200 57l-36 -47q-18 -24 -40 -7l-11 8q-20 17 -2 40l38 50q-90 99 -90 270zM632 359q0 113 -52 188l-326 -423q59 -43 140 -43 q114 0 176 77.5t62 200.5zM156 359q0 -114 51 -187l326 423q-59 43 -139 43q-114 0 -176 -78t-62 -201z" />
<glyph unicode="&#xd9;" horiz-adv-x="746" d="M90 298v392q0 29 27 29h47q25 0 25 -29v-379q0 -231 183 -231q185 0 185 231v379q0 29 26 29h47q26 0 26 -29v-392q0 -150 -73.5 -230t-210.5 -80q-136 0 -209 80t-73 230zM414 937l77 -116q5 -7 5 -14q0 -13 -19 -13h-27q-16 0 -24.5 4.5t-21.5 18.5l-104 112 q-11 13 -11 22q0 13 17 13h60q31 0 48 -27z" />
<glyph unicode="&#xda;" horiz-adv-x="746" d="M90 298v392q0 29 27 29h47q25 0 25 -29v-379q0 -231 183 -231q185 0 185 231v379q0 29 26 29h47q26 0 26 -29v-392q0 -150 -73.5 -230t-210.5 -80q-136 0 -209 80t-73 230zM263 821l77 116q17 27 48 27h60q17 0 17 -13q0 -9 -11 -22l-104 -112q-13 -14 -21.5 -18.5 t-24.5 -4.5h-27q-19 0 -19 13q0 7 5 14z" />
<glyph unicode="&#xdb;" horiz-adv-x="746" d="M90 298v392q0 29 27 29h47q25 0 25 -29v-379q0 -231 183 -231q185 0 185 231v379q0 29 26 29h47q26 0 26 -29v-392q0 -150 -73.5 -230t-210.5 -80q-136 0 -209 80t-73 230zM443 937l77 -116q5 -7 5 -14q0 -13 -19 -13h-27q-16 0 -24.5 4t-21.5 18l-59 64l-59 -64 q-13 -14 -21.5 -18t-24.5 -4h-27q-19 0 -19 13q0 7 5 14l77 116q17 27 48 27h42q31 0 48 -27z" />
<glyph unicode="&#xdc;" horiz-adv-x="746" d="M90 298v392q0 29 27 29h47q25 0 25 -29v-379q0 -231 183 -231q185 0 185 231v379q0 29 26 29h47q26 0 26 -29v-392q0 -150 -73.5 -230t-210.5 -80q-136 0 -209 80t-73 230zM230 877q0 23 16.5 40t39.5 17t40 -17t17 -40t-17 -39.5t-40 -16.5t-39.5 16.5t-16.5 39.5z M404 877q0 23 16.5 40t39.5 17t40 -17t17 -40t-17 -39.5t-40 -16.5t-39.5 16.5t-16.5 39.5z" />
<glyph unicode="&#xdd;" horiz-adv-x="678" d="M135 701l203 -301l202 301q8 12 14 15t24 3h67q13 0 13 -13q0 -8 -8 -20l-263 -376v-281q0 -29 -25 -29h-47q-26 0 -26 29v282l-261 375q-8 12 -8 20q0 13 13 13h64q18 0 24 -3t14 -15zM252 800l77 116q17 27 48 27h60q17 0 17 -13q0 -9 -11 -22l-104 -112 q-13 -14 -21.5 -18.5t-24.5 -4.5h-27q-19 0 -19 13q0 7 5 14z" />
<glyph unicode="&#xde;" horiz-adv-x="590" d="M193 690v-90h72q142 0 212 -50.5t70 -164.5q0 -110 -71 -164t-190 -54h-93v-138q0 -29 -25 -29h-48q-26 0 -26 29v661q0 29 26 29h48q25 0 25 -29zM270 507h-77v-247h89q162 0 162 124q0 123 -174 123z" />
<glyph unicode="&#xdf;" horiz-adv-x="617" d="M80 29v443q0 56 5.5 99t21.5 84.5t42.5 68.5t71 43.5t104.5 16.5q90 0 151 -55.5t61 -146.5q0 -123 -115 -168q72 -20 109.5 -72.5t37.5 -125.5q0 -100 -60.5 -161t-164.5 -61h-84q-24 0 -24 22v36q0 22 24 22h66q68 0 109 34.5t41 103.5q0 74 -47.5 114t-123.5 40 q-27 0 -27 33v13q0 34 25 34q60 0 100.5 32t40.5 100q0 57 -36 91t-92 34q-75 0 -109 -53t-34 -133v-488q0 -29 -24 -29h-43q-26 0 -26 29z" />
<glyph unicode="&#xe0;" horiz-adv-x="621" d="M278 522q102 0 166 -64h4v23q0 29 26 29h43q24 0 24 -29v-452q0 -29 -24 -29h-39q-26 0 -26 29v45h-3q-61 -86 -175 -86q-107 0 -167.5 79.5t-60.5 193.5q0 106 61 183.5t171 77.5zM448 185v158q-44 101 -150 101q-76 0 -114.5 -55.5t-38.5 -131.5q0 -78 38.5 -134 t112.5 -56q54 0 94 31t58 87zM351 728l77 -116q5 -7 5 -14q0 -13 -19 -13h-27q-16 0 -24.5 4.5t-21.5 18.5l-104 112q-11 13 -11 22q0 13 17 13h60q31 0 48 -27z" />
<glyph unicode="&#xe1;" horiz-adv-x="621" d="M278 522q102 0 166 -64h4v23q0 29 26 29h43q24 0 24 -29v-452q0 -29 -24 -29h-39q-26 0 -26 29v45h-3q-61 -86 -175 -86q-107 0 -167.5 79.5t-60.5 193.5q0 106 61 183.5t171 77.5zM448 185v158q-44 101 -150 101q-76 0 -114.5 -55.5t-38.5 -131.5q0 -78 38.5 -134 t112.5 -56q54 0 94 31t58 87zM200 612l77 116q17 27 48 27h60q17 0 17 -13q0 -9 -11 -22l-104 -112q-13 -14 -21.5 -18.5t-24.5 -4.5h-27q-19 0 -19 13q0 7 5 14z" />
<glyph unicode="&#xe2;" horiz-adv-x="621" d="M278 522q102 0 166 -64h4v23q0 29 26 29h43q24 0 24 -29v-452q0 -29 -24 -29h-39q-26 0 -26 29v45h-3q-61 -86 -175 -86q-107 0 -167.5 79.5t-60.5 193.5q0 106 61 183.5t171 77.5zM448 185v158q-44 101 -150 101q-76 0 -114.5 -55.5t-38.5 -131.5q0 -78 38.5 -134 t112.5 -56q54 0 94 31t58 87zM380 728l77 -116q5 -7 5 -14q0 -13 -19 -13h-27q-16 0 -24.5 4t-21.5 18l-59 64l-59 -64q-13 -14 -21.5 -18t-24.5 -4h-27q-19 0 -19 13q0 7 5 14l77 116q17 27 48 27h42q31 0 48 -27z" />
<glyph unicode="&#xe3;" horiz-adv-x="621" d="M278 522q102 0 166 -64h4v23q0 29 26 29h43q24 0 24 -29v-452q0 -29 -24 -29h-39q-26 0 -26 29v45h-3q-61 -86 -175 -86q-107 0 -167.5 79.5t-60.5 193.5q0 106 61 183.5t171 77.5zM448 185v158q-44 101 -150 101q-76 0 -114.5 -55.5t-38.5 -131.5q0 -78 38.5 -134 t112.5 -56q54 0 94 31t58 87zM432 724h27q16 0 16 -19q0 -43 -25 -72.5t-72 -29.5q-32 0 -75 20t-56 20q-27 0 -35 -28q-4 -15 -25 -15h-27q-16 0 -16 19q0 43 25 72.5t72 29.5q32 0 75 -20t56 -20q27 0 35 28q4 15 25 15z" />
<glyph unicode="&#xe4;" horiz-adv-x="621" d="M278 522q102 0 166 -64h4v23q0 29 26 29h43q24 0 24 -29v-452q0 -29 -24 -29h-39q-26 0 -26 29v45h-3q-61 -86 -175 -86q-107 0 -167.5 79.5t-60.5 193.5q0 106 61 183.5t171 77.5zM448 185v158q-44 101 -150 101q-76 0 -114.5 -55.5t-38.5 -131.5q0 -78 38.5 -134 t112.5 -56q54 0 94 31t58 87zM167 668q0 23 16.5 40t39.5 17t40 -17t17 -40t-17 -39.5t-40 -16.5t-39.5 16.5t-16.5 39.5zM341 668q0 23 16.5 40t39.5 17t40 -17t17 -40t-17 -39.5t-40 -16.5t-39.5 16.5t-16.5 39.5z" />
<glyph unicode="&#xe5;" horiz-adv-x="621" d="M278 522q102 0 166 -64h4v23q0 29 26 29h43q24 0 24 -29v-452q0 -29 -24 -29h-39q-26 0 -26 29v45h-3q-61 -86 -175 -86q-107 0 -167.5 79.5t-60.5 193.5q0 106 61 183.5t171 77.5zM448 185v158q-44 101 -150 101q-76 0 -114.5 -55.5t-38.5 -131.5q0 -78 38.5 -134 t112.5 -56q54 0 94 31t58 87zM208 663q0 43 29 73t73 30t73.5 -30t29.5 -73t-29 -72.5t-74 -29.5q-44 0 -73 29.5t-29 72.5zM250 663q0 -26 17 -43t43 -17t43.5 17t17.5 43t-17.5 43.5t-43.5 17.5t-43 -17.5t-17 -43.5z" />
<glyph unicode="&#xe6;" horiz-adv-x="959" d="M914 268q0 -35 -38 -35h-335q1 -73 51 -120t123 -47q39 0 71 9t51 18.5t25 9.5q12 0 13 -15l3 -43q1 -18 -23 -28q-67 -29 -144 -29q-109 0 -170 56v-15q0 -29 -24 -29h-39q-26 0 -26 29v45h-3q-61 -86 -175 -86q-107 0 -167.5 79.5t-60.5 193.5q0 106 61 183.5t171 77.5 q102 0 166 -64h4v23q0 29 26 29h43q24 0 24 -29v-14q57 55 145 55q107 0 167.5 -66.5t60.5 -187.5zM448 185v158q-44 101 -150 101q-76 0 -114.5 -55.5t-38.5 -131.5q0 -78 38.5 -134t112.5 -56q54 0 94 31t58 87zM542 305h276q-2 61 -37.5 98.5t-96.5 37.5q-59 0 -97.5 -39 t-44.5 -97z" />
<glyph unicode="&#xe7;" horiz-adv-x="465" d="M435 70l2 -37q1 -10 -5 -15.5t-21 -12.5q-43 -17 -98 -17q-123 0 -194 76t-71 189q0 116 72 192.5t193 76.5q66 0 107 -22q16 -9 13 -33l-3 -28q-1 -17 -16 -17q-2 0 -31.5 9.5t-62.5 9.5q-79 0 -126 -55t-47 -131q0 -79 47.5 -134t132.5 -55q33 0 62 10.5t32 10.5 q13 0 14 -17zM407 -132q0 -46 -37 -68.5t-88 -22.5q-40 0 -73 14q-12 5 -12 12q0 4 2 10l3 9q4 12 12 12q3 0 22.5 -6.5t38.5 -6.5q58 0 58 42q0 39 -49 39q-8 0 -17.5 -1t-15.5 -1q-16 0 -16 16q0 6 10 22l43 64h51l-46 -62q18 5 31 5q39 0 61 -21.5t22 -55.5z" />
<glyph unicode="&#xe8;" horiz-adv-x="565" d="M520 268q0 -35 -38 -35h-335q1 -73 51 -120t123 -47q39 0 71 9t51 18.5t25 9.5q12 0 13 -15l3 -43q1 -18 -23 -28q-67 -29 -144 -29q-127 0 -198 73t-71 201q0 113 68 186.5t176 73.5q107 0 167.5 -66.5t60.5 -187.5zM148 305h276q-2 61 -37.5 98.5t-96.5 37.5 q-59 0 -97.5 -39t-44.5 -97zM324 728l77 -116q5 -7 5 -14q0 -13 -19 -13h-27q-16 0 -24.5 4.5t-21.5 18.5l-104 112q-11 13 -11 22q0 13 17 13h60q31 0 48 -27z" />
<glyph unicode="&#xe9;" horiz-adv-x="565" d="M520 268q0 -35 -38 -35h-335q1 -73 51 -120t123 -47q39 0 71 9t51 18.5t25 9.5q12 0 13 -15l3 -43q1 -18 -23 -28q-67 -29 -144 -29q-127 0 -198 73t-71 201q0 113 68 186.5t176 73.5q107 0 167.5 -66.5t60.5 -187.5zM148 305h276q-2 61 -37.5 98.5t-96.5 37.5 q-59 0 -97.5 -39t-44.5 -97zM173 612l77 116q17 27 48 27h60q17 0 17 -13q0 -9 -11 -22l-104 -112q-13 -14 -21.5 -18.5t-24.5 -4.5h-27q-19 0 -19 13q0 7 5 14z" />
<glyph unicode="&#xea;" horiz-adv-x="565" d="M520 268q0 -35 -38 -35h-335q1 -73 51 -120t123 -47q39 0 71 9t51 18.5t25 9.5q12 0 13 -15l3 -43q1 -18 -23 -28q-67 -29 -144 -29q-127 0 -198 73t-71 201q0 113 68 186.5t176 73.5q107 0 167.5 -66.5t60.5 -187.5zM148 305h276q-2 61 -37.5 98.5t-96.5 37.5 q-59 0 -97.5 -39t-44.5 -97zM353 728l77 -116q5 -7 5 -14q0 -13 -19 -13h-27q-16 0 -24.5 4t-21.5 18l-59 64l-59 -64q-13 -14 -21.5 -18t-24.5 -4h-27q-19 0 -19 13q0 7 5 14l77 116q17 27 48 27h42q31 0 48 -27z" />
<glyph unicode="&#xeb;" horiz-adv-x="565" d="M520 268q0 -35 -38 -35h-335q1 -73 51 -120t123 -47q39 0 71 9t51 18.5t25 9.5q12 0 13 -15l3 -43q1 -18 -23 -28q-67 -29 -144 -29q-127 0 -198 73t-71 201q0 113 68 186.5t176 73.5q107 0 167.5 -66.5t60.5 -187.5zM148 305h276q-2 61 -37.5 98.5t-96.5 37.5 q-59 0 -97.5 -39t-44.5 -97zM140 668q0 23 16.5 40t39.5 17t40 -17t17 -40t-17 -39.5t-40 -16.5t-39.5 16.5t-16.5 39.5zM314 668q0 23 16.5 40t39.5 17t40 -17t17 -40t-17 -39.5t-40 -16.5t-39.5 16.5t-16.5 39.5z" />
<glyph unicode="&#xec;" horiz-adv-x="262" d="M84 29v452q0 29 26 29h43q24 0 24 -29v-452q0 -29 -24 -29h-43q-26 0 -26 29zM172 728l77 -116q5 -7 5 -14q0 -13 -19 -13h-27q-16 0 -24.5 4.5t-21.5 18.5l-104 112q-11 13 -11 22q0 13 17 13h60q31 0 48 -27z" />
<glyph unicode="&#xed;" horiz-adv-x="262" d="M84 29v452q0 29 26 29h43q24 0 24 -29v-452q0 -29 -24 -29h-43q-26 0 -26 29zM21 612l77 116q17 27 48 27h60q17 0 17 -13q0 -9 -11 -22l-104 -112q-13 -14 -21.5 -18.5t-24.5 -4.5h-27q-19 0 -19 13q0 7 5 14z" />
<glyph unicode="&#xee;" horiz-adv-x="262" d="M84 29v452q0 29 26 29h43q24 0 24 -29v-452q0 -29 -24 -29h-43q-26 0 -26 29zM201 728l77 -116q5 -7 5 -14q0 -13 -19 -13h-27q-16 0 -24.5 4t-21.5 18l-59 64l-59 -64q-13 -14 -21.5 -18t-24.5 -4h-27q-19 0 -19 13q0 7 5 14l77 116q17 27 48 27h42q31 0 48 -27z" />
<glyph unicode="&#xef;" horiz-adv-x="262" d="M84 29v452q0 29 26 29h43q24 0 24 -29v-452q0 -29 -24 -29h-43q-26 0 -26 29zM-12 668q0 23 16.5 40t39.5 17t40 -17t17 -40t-17 -39.5t-40 -16.5t-39.5 16.5t-16.5 39.5zM162 668q0 23 16.5 40t39.5 17t40 -17t17 -40t-17 -39.5t-40 -16.5t-39.5 16.5t-16.5 39.5z" />
<glyph unicode="&#xf0;" horiz-adv-x="626" d="M48 255q0 123 77.5 195t187.5 72q43 0 81 -11q-41 63 -129 121l-101 -65q-9 -6 -16 -6q-12 0 -22 16l-9 14q-7 12 -7 19q0 10 13 19l70 45q-37 18 -77 30q-15 5 -15 20q0 3 4 13l18 35q5 11 21 11q8 0 25 -5q48 -18 109 -49l93 60q8 5 15 5q12 0 22 -16l8 -13 q7 -10 7 -19q0 -12 -12 -19l-64 -41q108 -75 169.5 -180.5t61.5 -234.5q0 -73 -23 -129t-61.5 -88.5t-84 -49t-96.5 -16.5q-110 0 -187.5 72t-77.5 195zM147 255q0 -79 45 -133.5t121 -54.5t121 54.5t45 133.5t-45 133.5t-121 54.5t-121 -54.5t-45 -133.5z" />
<glyph unicode="&#xf1;" horiz-adv-x="619" d="M147 0h-43q-24 0 -24 29v452q0 29 24 29h39q26 0 26 -29v-43h7q58 84 173 84q190 0 190 -217v-276q0 -29 -24 -29h-43q-26 0 -26 29v268q0 146 -115 146q-75 0 -116.5 -56.5t-41.5 -141.5v-216q0 -29 -26 -29zM431 724h27q16 0 16 -19q0 -43 -25 -72.5t-72 -29.5 q-32 0 -75 20t-56 20q-27 0 -35 -28q-4 -15 -25 -15h-27q-16 0 -16 19q0 43 25 72.5t72 29.5q32 0 75 -20t56 -20q27 0 35 28q4 15 25 15z" />
<glyph unicode="&#xf2;" horiz-adv-x="626" d="M147 255q0 -79 45 -133.5t121 -54.5t121 54.5t45 133.5t-45 133.5t-121 54.5t-121 -54.5t-45 -133.5zM48 255q0 123 77.5 195t187.5 72t187.5 -72t77.5 -195t-77.5 -195t-187.5 -72t-187.5 72t-77.5 195zM354 728l77 -116q5 -7 5 -14q0 -13 -19 -13h-27q-16 0 -24.5 4.5 t-21.5 18.5l-104 112q-11 13 -11 22q0 13 17 13h60q31 0 48 -27z" />
<glyph unicode="&#xf3;" horiz-adv-x="626" d="M147 255q0 -79 45 -133.5t121 -54.5t121 54.5t45 133.5t-45 133.5t-121 54.5t-121 -54.5t-45 -133.5zM48 255q0 123 77.5 195t187.5 72t187.5 -72t77.5 -195t-77.5 -195t-187.5 -72t-187.5 72t-77.5 195zM203 612l77 116q17 27 48 27h60q17 0 17 -13q0 -9 -11 -22 l-104 -112q-13 -14 -21.5 -18.5t-24.5 -4.5h-27q-19 0 -19 13q0 7 5 14z" />
<glyph unicode="&#xf4;" horiz-adv-x="626" d="M147 255q0 -79 45 -133.5t121 -54.5t121 54.5t45 133.5t-45 133.5t-121 54.5t-121 -54.5t-45 -133.5zM48 255q0 123 77.5 195t187.5 72t187.5 -72t77.5 -195t-77.5 -195t-187.5 -72t-187.5 72t-77.5 195zM383 728l77 -116q5 -7 5 -14q0 -13 -19 -13h-27q-16 0 -24.5 4 t-21.5 18l-59 64l-59 -64q-13 -14 -21.5 -18t-24.5 -4h-27q-19 0 -19 13q0 7 5 14l77 116q17 27 48 27h42q31 0 48 -27z" />
<glyph unicode="&#xf5;" horiz-adv-x="626" d="M147 255q0 -79 45 -133.5t121 -54.5t121 54.5t45 133.5t-45 133.5t-121 54.5t-121 -54.5t-45 -133.5zM48 255q0 123 77.5 195t187.5 72t187.5 -72t77.5 -195t-77.5 -195t-187.5 -72t-187.5 72t-77.5 195zM434 724h27q16 0 16 -19q0 -43 -25 -72.5t-72 -29.5q-32 0 -75 20 t-56 20q-27 0 -35 -28q-4 -15 -25 -15h-27q-16 0 -16 19q0 43 25 72.5t72 29.5q32 0 75 -20t56 -20q27 0 35 28q4 15 25 15z" />
<glyph unicode="&#xf6;" horiz-adv-x="626" d="M147 255q0 -79 45 -133.5t121 -54.5t121 54.5t45 133.5t-45 133.5t-121 54.5t-121 -54.5t-45 -133.5zM48 255q0 123 77.5 195t187.5 72t187.5 -72t77.5 -195t-77.5 -195t-187.5 -72t-187.5 72t-77.5 195zM170 668q0 23 16.5 40t39.5 17t40 -17t17 -40t-17 -39.5 t-40 -16.5t-39.5 16.5t-16.5 39.5zM344 668q0 23 16.5 40t39.5 17t40 -17t17 -40t-17 -39.5t-40 -16.5t-39.5 16.5t-16.5 39.5z" />
<glyph unicode="&#xf7;" horiz-adv-x="600" d="M376 460q0 -31 -22.5 -53.5t-54.5 -22.5q-31 0 -53.5 22.5t-22.5 53.5q0 32 22.5 54.5t53.5 22.5q32 0 54.5 -22.5t22.5 -54.5zM553 270v-34q0 -27 -28 -27h-450q-28 0 -28 27v34q0 27 28 27h450q28 0 28 -27zM376 45q0 -31 -22.5 -53.5t-54.5 -22.5q-31 0 -53.5 22.5 t-22.5 53.5q0 32 22 54.5t54 22.5t54.5 -22.5t22.5 -54.5z" />
<glyph unicode="&#xf8;" horiz-adv-x="626" d="M96 14l33 42q-81 75 -81 199q0 123 77.5 195t187.5 72q81 0 146 -40l34 43q12 18 27 5l8 -6q16 -12 3 -28l-34 -43q81 -76 81 -198q0 -123 -77.5 -195t-187.5 -72q-83 0 -146 39l-33 -42q-13 -18 -29 -5l-8 5q-14 13 -1 29zM147 255q0 -74 38 -126l222 285q-40 29 -94 29 q-76 0 -121 -54.5t-45 -133.5zM479 255q0 73 -38 125l-221 -285q39 -28 93 -28q76 0 121 54.5t45 133.5z" />
<glyph unicode="&#xf9;" horiz-adv-x="619" d="M173 481v-256q0 -158 115 -158q76 0 117 59t41 147v208q0 29 26 29h43q24 0 24 -29v-452q0 -29 -24 -29h-39q-26 0 -26 29v52h-7q-57 -93 -173 -93q-190 0 -190 217v276q0 29 24 29h43q26 0 26 -29zM350 728l77 -116q5 -7 5 -14q0 -13 -19 -13h-27q-16 0 -24.5 4.5 t-21.5 18.5l-104 112q-11 13 -11 22q0 13 17 13h60q31 0 48 -27z" />
<glyph unicode="&#xfa;" horiz-adv-x="619" d="M173 481v-256q0 -158 115 -158q76 0 117 59t41 147v208q0 29 26 29h43q24 0 24 -29v-452q0 -29 -24 -29h-39q-26 0 -26 29v52h-7q-57 -93 -173 -93q-190 0 -190 217v276q0 29 24 29h43q26 0 26 -29zM199 612l77 116q17 27 48 27h60q17 0 17 -13q0 -9 -11 -22l-104 -112 q-13 -14 -21.5 -18.5t-24.5 -4.5h-27q-19 0 -19 13q0 7 5 14z" />
<glyph unicode="&#xfb;" horiz-adv-x="619" d="M173 481v-256q0 -158 115 -158q76 0 117 59t41 147v208q0 29 26 29h43q24 0 24 -29v-452q0 -29 -24 -29h-39q-26 0 -26 29v52h-7q-57 -93 -173 -93q-190 0 -190 217v276q0 29 24 29h43q26 0 26 -29zM379 728l77 -116q5 -7 5 -14q0 -13 -19 -13h-27q-16 0 -24.5 4 t-21.5 18l-59 64l-59 -64q-13 -14 -21.5 -18t-24.5 -4h-27q-19 0 -19 13q0 7 5 14l77 116q17 27 48 27h42q31 0 48 -27z" />
<glyph unicode="&#xfc;" horiz-adv-x="619" d="M173 481v-256q0 -158 115 -158q76 0 117 59t41 147v208q0 29 26 29h43q24 0 24 -29v-452q0 -29 -24 -29h-39q-26 0 -26 29v52h-7q-57 -93 -173 -93q-190 0 -190 217v276q0 29 24 29h43q26 0 26 -29zM166 668q0 23 16.5 40t39.5 17t40 -17t17 -40t-17 -39.5t-40 -16.5 t-39.5 16.5t-16.5 39.5zM340 668q0 23 16.5 40t39.5 17t40 -17t17 -40t-17 -39.5t-40 -16.5t-39.5 16.5t-16.5 39.5z" />
<glyph unicode="&#xfd;" horiz-adv-x="516" d="M125 485l133 -387h7l133 387q8 25 30 25h51q18 0 18 -15q0 -4 -6 -20l-270 -721q-8 -25 -30 -25h-51q-18 0 -18 15q0 4 6 20l87 215l-189 496q-6 18 -6 20q0 15 18 15h57q22 0 30 -25zM148 612l77 116q17 27 48 27h60q17 0 17 -13q0 -9 -11 -22l-104 -112 q-13 -14 -21.5 -18.5t-24.5 -4.5h-27q-19 0 -19 13q0 7 5 14z" />
<glyph unicode="&#xfe;" horiz-adv-x="623" d="M80 -230v975q0 29 26 29h43q24 0 24 -29v-304h3q61 81 173 81q108 0 167 -77.5t59 -193.5q0 -106 -59.5 -184.5t-166.5 -78.5q-113 0 -172 83h-4v-301q0 -29 -26 -29h-43q-24 0 -24 29zM331 443q-71 0 -114.5 -52t-43.5 -131q0 -90 43.5 -142t113.5 -52t108 56t38 131 t-36 132.5t-109 57.5z" />
<glyph unicode="&#xff;" horiz-adv-x="516" d="M125 485l133 -387h7l133 387q8 25 30 25h51q18 0 18 -15q0 -4 -6 -20l-270 -721q-8 -25 -30 -25h-51q-18 0 -18 15q0 4 6 20l87 215l-189 496q-6 18 -6 20q0 15 18 15h57q22 0 30 -25zM113 668q0 23 16.5 40t39.5 17t40 -17t17 -40t-17 -39.5t-40 -16.5t-39.5 16.5 t-16.5 39.5zM287 668q0 23 16.5 40t39.5 17t40 -17t17 -40t-17 -39.5t-40 -16.5t-39.5 16.5t-16.5 39.5z" />
<glyph unicode="&#x131;" horiz-adv-x="253" d="M80 29v452q0 29 26 29h43q24 0 24 -29v-452q0 -29 -24 -29h-43q-26 0 -26 29z" />
<glyph unicode="&#x141;" horiz-adv-x="531" d="M62 302l32 18v370q0 29 26 29h48q25 0 25 -29v-315l159 88q20 10 28 10q15 0 15 -25v-15q0 -23 -5.5 -31.5t-28.5 -21.5l-168 -93v-194h275q25 0 25 -29v-35q0 -29 -25 -29h-348q-26 0 -26 29v203l-23 -12q-17 -10 -28 -10q-15 0 -15 24v16q0 22 5.5 30.5t28.5 21.5z" />
<glyph unicode="&#x142;" horiz-adv-x="304" d="M48 362l32 18v365q0 29 24 29h43q26 0 26 -29v-314l51 29q20 10 28 10q15 0 15 -25v-15q0 -23 -5.5 -31.5t-28.5 -21.5l-60 -33v-166q0 -100 67 -100q8 0 16 1t11 1q17 0 17 -19v-41q0 -17 -14 -21q-20 -6 -45 -6q-85 0 -115 50.5t-30 145.5v103l-23 -12q-17 -10 -28 -10 q-15 0 -15 24v16q0 22 5.5 30.5t28.5 21.5z" />
<glyph unicode="&#x152;" horiz-adv-x="960" d="M562 719h313q25 0 25 -29v-35q0 -29 -25 -29h-271v-207h244q25 0 25 -29v-34q0 -29 -25 -29h-244v-234h271q25 0 25 -29v-35q0 -29 -25 -29h-313q-27 0 -82 -6t-86 -6q-159 0 -250 100t-91 271q0 172 91.5 272t249.5 100q31 0 86 -6t82 -6zM394 81q62 0 111 22v513 q-49 22 -111 22q-114 0 -176 -78t-62 -201t62 -200.5t176 -77.5z" />
<glyph unicode="&#x153;" horiz-adv-x="996" d="M48 255q0 123 77.5 195t187.5 72q136 0 213 -101q68 101 197 101q107 0 167.5 -66.5t60.5 -187.5q0 -35 -38 -35h-335q1 -73 51 -120t123 -47q39 0 71 9t51 18.5t25 9.5q12 0 13 -15l3 -43q1 -18 -23 -28q-67 -29 -144 -29q-152 0 -221 102q-37 -50 -93 -76t-121 -26 q-110 0 -187.5 72t-77.5 195zM147 255q0 -79 45 -133.5t121 -54.5t121 54.5t45 133.5t-45 133.5t-121 54.5t-121 -54.5t-45 -133.5zM579 305h276q-2 61 -37.5 98.5t-96.5 37.5q-59 0 -97.5 -39t-44.5 -97z" />
<glyph unicode="&#x160;" horiz-adv-x="515" d="M415 702q13 -7 16 -12t1 -18l-10 -49q-3 -16 -12 -16q-5 0 -11.5 2.5t-19.5 8t-27 9.5q-35 11 -79 11q-54 0 -87.5 -25t-33.5 -70q0 -40 32 -66.5t95 -56.5q97 -45 143 -92.5t46 -131.5q0 -55 -21.5 -96.5t-57.5 -65t-76.5 -35t-84.5 -11.5q-86 0 -152 32q-21 11 -20 32 l6 53q2 17 15 17q6 0 13 -3t18.5 -9t22.5 -10q52 -19 98 -19q55 0 96.5 28t41.5 83q0 43 -32 73.5t-94 58.5q-45 20 -74 36.5t-58 42t-43.5 59t-14.5 76.5q0 95 62.5 144t162.5 49q73 0 139 -29zM197 800l-77 116q-5 7 -5 14q0 13 19 13h27q16 0 24.5 -4t21.5 -18l59 -64 l59 64q13 14 21.5 18t24.5 4h27q19 0 19 -13q0 -7 -5 -14l-77 -116q-17 -27 -48 -27h-42q-31 0 -48 27z" />
<glyph unicode="&#x161;" horiz-adv-x="434" d="M335 500q14 -6 17.5 -12t0.5 -19l-8 -34q-4 -16 -18 -16q-5 0 -36 11t-65 11q-36 0 -57 -14.5t-21 -39.5q0 -28 23.5 -46.5t87.5 -48.5q65 -31 93 -64t28 -89q0 -76 -56.5 -113.5t-129.5 -37.5q-66 0 -117 24q-22 10 -19 30l4 34q3 23 21 23q3 0 38 -15t73 -15 q37 0 64 15.5t27 49.5q0 30 -22.5 48.5t-84.5 45.5q-61 27 -92.5 62t-31.5 90q0 69 48.5 105.5t125.5 36.5q54 0 107 -22zM148 612l-77 116q-5 7 -5 14q0 13 19 13h27q16 0 24.5 -4t21.5 -18l59 -64l59 64q13 14 21.5 18t24.5 4h27q19 0 19 -13q0 -7 -5 -14l-77 -116 q-17 -27 -48 -27h-42q-31 0 -48 27z" />
<glyph unicode="&#x178;" horiz-adv-x="678" d="M135 701l203 -301l202 301q8 12 14 15t24 3h67q13 0 13 -13q0 -8 -8 -20l-263 -376v-281q0 -29 -25 -29h-47q-26 0 -26 29v282l-261 375q-8 12 -8 20q0 13 13 13h64q18 0 24 -3t14 -15zM196 877q0 23 16.5 40t39.5 17t40 -17t17 -40t-17 -39.5t-40 -16.5t-39.5 16.5 t-16.5 39.5zM370 877q0 23 16.5 40t39.5 17t40 -17t17 -40t-17 -39.5t-40 -16.5t-39.5 16.5t-16.5 39.5z" />
<glyph unicode="&#x17d;" horiz-adv-x="563" d="M47 652v38q0 29 26 29h423q25 0 25 -29v-38q0 -28 -16 -52l-352 -504h349q26 0 26 -29v-38q0 -29 -26 -29h-442q-25 0 -25 29v38q0 28 16 52l352 504h-330q-26 0 -26 29zM224 800l-77 116q-5 7 -5 14q0 13 19 13h27q16 0 24.5 -4t21.5 -18l59 -64l59 64q13 14 21.5 18 t24.5 4h27q19 0 19 -13q0 -7 -5 -14l-77 -116q-17 -27 -48 -27h-42q-31 0 -48 27z" />
<glyph unicode="&#x17e;" horiz-adv-x="508" d="M84 510h344q25 0 25 -29v-20q0 -27 -15 -44l-286 -339h288q25 0 25 -29v-20q0 -29 -25 -29h-371q-26 0 -26 29v20q0 30 13 46l286 337h-258q-26 0 -26 29v20q0 29 26 29zM196 612l-77 116q-5 7 -5 14q0 13 19 13h27q16 0 24.5 -4t21.5 -18l59 -64l59 64q13 14 21.5 18 t24.5 4h27q19 0 19 -13q0 -7 -5 -14l-77 -116q-17 -27 -48 -27h-42q-31 0 -48 27z" />
<glyph unicode="&#x192;" horiz-adv-x="515" d="M327 534l-22 -116h95q25 0 25 -29v-20q0 -29 -25 -29h-110l-81 -427q-17 -91 -58.5 -137.5t-137.5 -46.5q-19 0 -28 3q-16 5 -12 20l10 43q4 14 15 14q2 0 8 -0.5t11 -0.5q39 0 63 28t36 90l78 414h-84q-26 0 -26 29v20q0 29 26 29h99l25 129q17 89 63.5 136.5 t143.5 47.5q29 0 50 -6q16 -4 12 -20l-10 -42q-5 -17 -19 -17q-8 0 -22 3t-26 3q-39 0 -63 -28t-36 -90z" />
<glyph unicode="&#x2c6;" d="M212 728l77 -116q5 -7 5 -14q0 -13 -19 -13h-27q-16 0 -24.5 4t-21.5 18l-59 64l-59 -64q-13 -14 -21.5 -18t-24.5 -4h-27q-19 0 -19 13q0 7 5 14l77 116q17 27 48 27h42q31 0 48 -27z" />
<glyph unicode="&#x2c7;" d="M74 612l-77 116q-5 7 -5 14q0 13 19 13h27q16 0 24.5 -4t21.5 -18l59 -64l59 64q13 14 21.5 18t24.5 4h27q19 0 19 -13q0 -7 -5 -14l-77 -116q-17 -27 -48 -27h-42q-31 0 -48 27z" />
<glyph unicode="&#x2d8;" d="M294 701q0 -33 -19 -62q-36 -55 -132 -55t-132 55q-19 29 -19 62q0 23 25 23h22q25 0 28 -18q14 -50 76 -50t76 50q3 18 28 18h22q25 0 25 -23z" />
<glyph unicode="&#x2d9;" d="M87 668q0 23 16.5 40t39.5 17t40 -17t17 -40t-17 -39.5t-40 -16.5t-39.5 16.5t-16.5 39.5z" />
<glyph unicode="&#x2da;" d="M40 663q0 43 29 73t73 30t73.5 -30t29.5 -73t-29 -72.5t-74 -29.5q-44 0 -73 29.5t-29 72.5zM82 663q0 -26 17 -43t43 -17t43.5 17t17.5 43t-17.5 43.5t-43.5 17.5t-43 -17.5t-17 -43.5z" />
<glyph unicode="&#x2db;" d="M188 2h49q-38 -18 -69.5 -53t-31.5 -75q0 -22 15 -37.5t43 -15.5q19 0 38.5 6.5t22.5 6.5q8 0 12 -12l3 -9q2 -6 2 -10q0 -7 -12 -12q-33 -14 -78 -14q-51 0 -85.5 22t-34.5 69q0 45 40.5 83.5t85.5 50.5z" />
<glyph unicode="&#x2dc;" d="M266 724h27q16 0 16 -19q0 -43 -25 -72.5t-72 -29.5q-32 0 -75 20t-56 20q-27 0 -35 -28q-4 -15 -25 -15h-27q-16 0 -16 19q0 43 25 72.5t72 29.5q32 0 75 -20t56 -20q27 0 35 28q4 15 25 15z" />
<glyph unicode="&#x2dd;" horiz-adv-x="289" d="M-47 612l77 116q17 27 48 27h60q17 0 17 -13q0 -9 -11 -22l-104 -112q-13 -14 -21.5 -18.5t-24.5 -4.5h-27q-19 0 -19 13q0 7 5 14zM139 612l77 116q17 27 48 27h60q17 0 17 -13q0 -9 -11 -22l-104 -112q-13 -14 -21.5 -18.5t-24.5 -4.5h-27q-19 0 -19 13q0 7 5 14z" />
<glyph unicode="&#x2000;" horiz-adv-x="487" />
<glyph unicode="&#x2001;" horiz-adv-x="975" />
<glyph unicode="&#x2002;" horiz-adv-x="487" />
<glyph unicode="&#x2003;" horiz-adv-x="975" />
<glyph unicode="&#x2004;" horiz-adv-x="325" />
<glyph unicode="&#x2005;" horiz-adv-x="243" />
<glyph unicode="&#x2006;" horiz-adv-x="162" />
<glyph unicode="&#x2007;" horiz-adv-x="162" />
<glyph unicode="&#x2008;" horiz-adv-x="121" />
<glyph unicode="&#x2009;" horiz-adv-x="195" />
<glyph unicode="&#x200a;" horiz-adv-x="54" />
<glyph unicode="&#x2010;" horiz-adv-x="367" d="M288 226h-209q-26 0 -26 29v28q0 29 26 29h209q24 0 24 -29v-28q0 -29 -24 -29z" />
<glyph unicode="&#x2011;" horiz-adv-x="367" d="M288 226h-209q-26 0 -26 29v28q0 29 26 29h209q24 0 24 -29v-28q0 -29 -24 -29z" />
<glyph unicode="&#x2012;" horiz-adv-x="367" d="M288 226h-209q-26 0 -26 29v28q0 29 26 29h209q24 0 24 -29v-28q0 -29 -24 -29z" />
<glyph unicode="&#x2013;" horiz-adv-x="621" d="M541 211h-460q-26 0 -26 29v28q0 29 26 29h460q25 0 25 -29v-28q0 -29 -25 -29z" />
<glyph unicode="&#x2014;" horiz-adv-x="1132" d="M1052 211h-971q-26 0 -26 29v28q0 29 26 29h971q25 0 25 -29v-28q0 -29 -25 -29z" />
<glyph unicode="&#x2018;" d="M212 557q0 -29 -19.5 -48.5t-47.5 -19.5q-27 0 -48 19.5t-21 59.5q0 43 27 84t65 61q12 6 18 6q10 0 10 -9q0 -6 -6 -14q-33 -42 -39 -72q26 -2 43.5 -21t17.5 -46z" />
<glyph unicode="&#x2019;" d="M77 651q0 29 19.5 48.5t47.5 19.5q27 0 48 -19.5t21 -59.5q0 -43 -27 -84t-65 -61q-12 -6 -18 -6q-10 0 -10 9q0 6 6 14q33 42 39 72q-26 2 -43.5 21t-17.5 46z" />
<glyph unicode="&#x201a;" horiz-adv-x="279" d="M77 55q0 29 19.5 48.5t47.5 19.5q27 0 48 -19.5t21 -59.5q0 -43 -27 -84t-65 -61q-12 -6 -18 -6q-10 0 -10 9q0 6 6 14q33 42 39 72q-26 2 -43.5 21t-17.5 46z" />
<glyph unicode="&#x201c;" horiz-adv-x="486" d="M397 557q0 -29 -19.5 -48.5t-47.5 -19.5q-27 0 -48 19.5t-21 59.5q0 43 27 84t65 61q12 6 18 6q10 0 10 -9q0 -6 -6 -14q-33 -42 -39 -72q26 -2 43.5 -21t17.5 -46zM212 557q0 -29 -19.5 -48.5t-47.5 -19.5q-27 0 -48 19.5t-21 59.5q0 43 27 84t65 61q12 6 18 6 q10 0 10 -9q0 -6 -6 -14q-33 -42 -39 -72q26 -2 43.5 -21t17.5 -46z" />
<glyph unicode="&#x201d;" horiz-adv-x="486" d="M77 651q0 29 19.5 48.5t47.5 19.5q27 0 48 -19.5t21 -59.5q0 -43 -27 -84t-65 -61q-12 -6 -18 -6q-10 0 -10 9q0 6 6 14q33 42 39 72q-26 2 -43.5 21t-17.5 46zM262 651q0 29 19.5 48.5t47.5 19.5q27 0 48 -19.5t21 -59.5q0 -43 -27 -84t-65 -61q-12 -6 -18 -6 q-10 0 -10 9q0 6 6 14q33 42 39 72q-26 2 -43.5 21t-17.5 46z" />
<glyph unicode="&#x201e;" horiz-adv-x="479" d="M77 55q0 29 19.5 48.5t47.5 19.5q27 0 48 -19.5t21 -59.5q0 -43 -27 -84t-65 -61q-12 -6 -18 -6q-10 0 -10 9q0 6 6 14q33 42 39 72q-26 2 -43.5 21t-17.5 46zM262 55q0 29 19.5 48.5t47.5 19.5q27 0 48 -19.5t21 -59.5q0 -43 -27 -84t-65 -61q-12 -6 -18 -6q-10 0 -10 9 q0 6 6 14q33 42 39 72q-26 2 -43.5 21t-17.5 46z" />
<glyph unicode="&#x2020;" horiz-adv-x="513" d="M483 493v-22q0 -29 -25 -29h-157v-413q0 -29 -25 -29h-37q-26 0 -26 29v413h-157q-26 0 -26 29v22q0 29 26 29h157v146q0 29 26 29h37q25 0 25 -29v-146h157q25 0 25 -29z" />
<glyph unicode="&#x2021;" horiz-adv-x="512" d="M55 255h157v187h-156q-26 0 -26 29v22q0 29 26 29h156v146q0 29 26 29h37q25 0 25 -29v-146h157q25 0 25 -29v-22q0 -29 -25 -29h-157v-187h156q26 0 26 -29v-22q0 -29 -26 -29h-156v-146q0 -29 -25 -29h-37q-26 0 -26 29v146h-157q-25 0 -25 29v22q0 29 25 29z" />
<glyph unicode="&#x2022;" horiz-adv-x="515" d="M80 347q0 74 51.5 125t125.5 51t126 -51.5t52 -124.5t-52 -123.5t-126 -50.5t-125.5 50.5t-51.5 123.5z" />
<glyph unicode="&#x2026;" horiz-adv-x="971" d="M898 55q0 -28 -19.5 -47.5t-48.5 -19.5q-28 0 -47.5 19t-19.5 48t19.5 48.5t47.5 19.5t48 -19.5t20 -48.5zM555 55q0 -28 -19.5 -47.5t-48.5 -19.5t-48 19t-19 48t19.5 48.5t47.5 19.5q29 0 48.5 -19.5t19.5 -48.5zM212 55q0 -28 -19.5 -47.5t-48.5 -19.5q-28 0 -47.5 19 t-19.5 48t19.5 48.5t47.5 19.5t48 -19.5t20 -48.5z" />
<glyph unicode="&#x202f;" horiz-adv-x="195" />
<glyph unicode="&#x2030;" horiz-adv-x="1268" d="M755 195q0 64 -17.5 99.5t-51.5 35.5q-70 0 -70 -135q0 -138 70 -138q69 0 69 138zM837 194q0 -39 -6.5 -72.5t-22 -65.5t-47 -50.5t-75.5 -18.5q-45 0 -76.5 18.5t-47 50.5t-22 65.5t-6.5 72.5t6.5 72.5t22 65t47 50t76.5 18.5q44 0 75.5 -18.5t47 -50t22 -65t6.5 -72.5 zM145 523q0 -64 17.5 -99.5t51.5 -35.5q70 0 70 135q0 138 -70 138q-69 0 -69 -138zM63 524q0 39 6.5 72.5t22 65.5t47 50.5t75.5 18.5q45 0 76.5 -18.5t47 -50.5t22 -65.5t6.5 -72.5t-6.5 -72.5t-22 -65t-47 -50t-76.5 -18.5q-44 0 -75.5 18.5t-47 50t-22 65t-6.5 72.5z M203 7l419 716q10 18 33 18h31q17 0 17 -13q0 -7 -6 -17l-419 -716q-10 -18 -33 -18h-31q-17 0 -17 13q0 6 6 17zM1123 195q0 64 -17.5 99.5t-51.5 35.5q-70 0 -70 -135q0 -138 70 -138q69 0 69 138zM1205 194q0 -39 -6.5 -72.5t-22 -65.5t-47 -50.5t-75.5 -18.5 q-45 0 -76.5 18.5t-47 50.5t-22 65.5t-6.5 72.5t6.5 72.5t22 65t47 50t76.5 18.5q44 0 75.5 -18.5t47 -50t22 -65t6.5 -72.5z" />
<glyph unicode="&#x2039;" horiz-adv-x="381" d="M85 269q0 12 10 27l110 147q21 28 52 28h32q19 0 19 -17q0 -9 -13 -27l-117 -158l117 -158q13 -18 13 -27q0 -17 -19 -17h-32q-31 0 -52 28l-110 147q-10 15 -10 27z" />
<glyph unicode="&#x203a;" horiz-adv-x="392" d="M307 269q0 -12 -10 -27l-110 -147q-21 -28 -52 -28h-32q-19 0 -19 17q0 9 13 27l117 158l-117 158q-13 18 -13 27q0 17 19 17h32q31 0 52 -28l110 -147q10 -15 10 -27z" />
<glyph unicode="&#x2044;" horiz-adv-x="502" d="M6 7l419 716q10 18 33 18h27q17 0 17 -13q0 -7 -6 -17l-419 -716q-10 -18 -33 -18h-27q-17 0 -17 13q0 6 6 17z" />
<glyph unicode="&#x205f;" horiz-adv-x="243" />
<glyph unicode="&#x20ac;" horiz-adv-x="697" d="M536 268l-4 -23q-3 -15 -9 -19.5t-20 -4.5h-226q21 -38 49 -64q78 -77 193 -77q49 0 88 10.5t41 10.5q16 0 17 -20l2 -42q1 -15 -3 -22t-18 -11q-60 -18 -127 -18q-171 0 -273 102q-58 58 -82 131h-96q-26 0 -26 29v24q0 29 26 29h78q-3 19 -3 60q0 24 1 36h-76 q-26 0 -26 29v24q0 29 26 29h91q26 86 90 149q105 101 271 101q68 0 129 -21q18 -6 18 -21q0 -5 -3 -17l-10 -42q-4 -14 -16 -14q-3 0 -38.5 11t-76.5 11q-127 0 -202 -78q-36 -37 -53 -79h282q24 0 24 -21q0 -2 -2 -14l-4 -23q-3 -15 -9 -19.5t-20 -4.5h-291q-2 -13 -2 -40 q0 -32 4 -56h264q24 0 24 -21q0 -2 -2 -14z" />
<glyph unicode="&#x2122;" horiz-adv-x="999" d="M647 319l-110 300v-300q0 -29 -25 -29h-27q-26 0 -26 29v371q0 29 26 29h70q25 0 35 -29l100 -278l102 278q10 29 35 29h66q26 0 26 -29v-371q0 -29 -26 -29h-26q-25 0 -25 29v300l-111 -300q-10 -29 -36 -29h-13q-26 0 -35 29zM71 719h291q25 0 25 -29v-15 q0 -29 -25 -29h-107v-327q0 -29 -24 -29h-28q-26 0 -26 29v327h-106q-26 0 -26 29v15q0 29 26 29z" />
<glyph unicode="&#x2212;" horiz-adv-x="600" d="M528 211h-455q-26 0 -26 29v28q0 29 26 29h455q25 0 25 -29v-28q0 -29 -25 -29z" />
<glyph unicode="&#x2264;" horiz-adv-x="667" d="M558 537l-370 -159l370 -159q23 -10 28.5 -17.5t5.5 -30.5v-24q0 -24 -15 -24q-10 0 -28 8l-440 191q-23 10 -28.5 17.5t-5.5 28.5v25q0 18 6 25t28 16l440 191q18 8 28 8q15 0 15 -24v-24q0 -23 -5.5 -30.5t-28.5 -17.5zM567 0h-466q-26 0 -26 29v28q0 29 26 29h466 q25 0 25 -29v-28q0 -29 -25 -29z" />
<glyph unicode="&#x2265;" horiz-adv-x="667" d="M479 378l-370 159q-23 10 -28.5 17.5t-5.5 30.5v24q0 24 15 24q10 0 28 -8l440 -191q22 -9 28 -16t6 -25v-25q0 -21 -5.5 -28.5t-28.5 -17.5l-440 -191q-18 -8 -28 -8q-15 0 -15 24v24q0 23 5.5 30.5t28.5 17.5zM566 0h-466q-25 0 -25 29v28q0 29 25 29h466q26 0 26 -29 v-28q0 -29 -26 -29z" />
<glyph unicode="&#x25ca;" horiz-adv-x="509" />
<glyph unicode="&#x25fc;" horiz-adv-x="510" d="M0 510h510v-510h-510v510z" />
<glyph horiz-adv-x="0" />
<glyph />
</font>
</defs>
</svg>
